<svg width="46" height="40" viewBox="0 0 46 40" fill="none" xmlns="http://www.w3.org/2000/svg">
<path fill-rule="evenodd" clip-rule="evenodd" d="M44.7686 27.0208V29.5059C44.7686 30.5696 44.3838 31.585 43.6959 32.3787C43.6959 32.9101 43.6939 33.4403 43.6622 33.9706C43.5926 35.1205 43.3829 36.2682 42.8171 37.2847C41.6951 39.2998 39.6525 40 37.4597 40H8.31506C6.12224 40 4.07979 39.2998 2.95767 37.2847C2.11821 35.7765 2.07847 34.0588 2.07828 32.3787C1.39018 31.585 1.00564 30.5696 1.00564 29.5059V26.3064C0.86708 26.1697 0.74052 26.0209 0.627765 25.8611C0.464119 25.6284 0.33076 25.3759 0.229838 25.1103C-0.208112 23.9583 -0.0150193 22.6717 0.764903 21.7776C0.433491 20.3037 1.24661 18.9389 2.24422 17.9015V16.4362C2.24422 13.1135 3.21337 10.0234 5.25198 7.38961C14.7826 -4.92139 43.5306 -1.81254 43.5306 16.4362V17.3887C43.7096 17.5189 43.887 17.6512 44.0632 17.7846C45.4314 18.8274 46.1766 20.5748 45.5322 22.2482C45.4948 22.3453 45.4532 22.4402 45.4079 22.5327C46.1247 23.5152 46.1911 24.859 45.6049 25.9833C45.4734 26.2359 45.3113 26.4707 45.1218 26.6824C45.0124 26.8047 44.8948 26.9173 44.7694 27.0208H44.7686ZM41.5389 32.6444H4.23442C4.23495 33.039 4.23821 33.4349 4.26442 33.8285C4.31385 34.6598 4.44979 35.567 4.884 36.2924C5.61636 37.5151 6.98411 37.8116 8.31609 37.8116H37.4608C38.7929 37.8116 40.1605 37.5151 40.8928 36.2924C41.5098 35.2627 41.5397 33.8296 41.5406 32.6444H41.5389ZM4.39316 17.5178H41.3804V16.4362C41.3804 -2.5688 4.39316 -2.5688 4.39316 16.4362V17.5178ZM23.3485 23.0951C24.0823 22.9957 24.5664 22.2703 24.8829 21.6684L24.9054 21.6242L24.9429 21.5913C25.1747 21.3763 25.4262 21.179 25.6986 21.0192C25.0162 20.7303 24.3166 20.4702 23.6233 20.2211L21.7069 19.533L23.7386 19.6609C25.3693 19.7625 27.1715 20.0048 28.5625 20.931C28.8572 21.0543 29.1429 21.1977 29.4272 21.3422C29.8908 21.5781 30.3781 21.8349 30.8828 21.9673C32.1788 22.3058 33.8128 22.6022 35.1197 22.148C35.4661 22.0268 35.7713 21.8615 36.0812 21.6685C36.2407 21.5693 36.398 21.4656 36.5587 21.3685C35.9593 21.1229 35.3502 20.8967 34.7421 20.6785L32.8259 19.9906L34.8573 20.1174C36.3674 20.211 38.0096 20.4249 39.3479 21.1833C39.4059 21.2046 39.4639 21.2253 39.5212 21.2484L39.5639 21.2651L39.5976 21.2948C40.2938 21.8703 41.2396 22.4148 42.1759 22.35C42.7319 22.3114 43.2621 22.0379 43.496 21.5098C43.6301 21.2066 43.6371 20.8726 43.5383 20.5584C43.4068 20.1405 43.1073 19.7965 42.7645 19.5352C42.5252 19.3523 42.2828 19.1738 42.0379 18.9996H4.24202C3.81804 19.3733 3.37862 19.8252 3.10098 20.3115C2.92985 20.6112 2.78269 20.9949 2.8823 21.3433C2.94821 21.5736 3.11144 21.7489 3.30354 21.8845C3.98337 22.3642 4.68642 22.5252 5.50683 22.4314C6.15351 22.3587 6.77454 22.1448 7.39755 21.9507C6.81992 21.7148 6.23322 21.4978 5.64911 21.2881L3.73273 20.6002L5.7643 20.727C7.26412 20.8208 8.8923 21.0312 10.2253 21.7765C10.4747 21.8792 10.7033 22.0213 10.9113 22.1934L10.9143 22.1954L10.9173 22.1988C11.3511 22.578 11.9899 23.0598 12.6064 22.879C13.0063 22.7622 13.3976 22.3829 13.6978 22.1052C14.1583 21.6784 14.5996 21.2795 15.1714 21.0037C16.5212 20.2145 18.1936 19.9961 19.7273 19.9003L21.7589 19.7734L19.8424 20.4614C19.3693 20.6311 18.8964 20.8052 18.4279 20.9905C18.7821 21.1139 19.1275 21.264 19.4604 21.427C19.857 21.6221 20.2428 21.8371 20.627 22.0556C20.9712 22.2506 21.3148 22.4502 21.6668 22.6309C22.1528 22.8802 22.7883 23.17 23.3481 23.0952L23.3485 23.0951ZM3.30103 25.0266L21.5856 24.224C21.3935 24.1423 21.2048 24.0519 21.0206 23.9571C20.2801 23.5779 19.5763 23.1292 18.8297 22.7621C18.4275 22.5637 18.0055 22.3818 17.5713 22.266L15.7913 22.3454C15.7161 22.3808 15.643 22.4204 15.5723 22.4633C15.4846 22.5186 15.4 22.577 15.318 22.6397C15.1266 22.7841 14.948 22.9461 14.772 23.1093C14.2401 23.601 13.7504 24.0763 13.0385 24.2934C11.8836 24.6484 10.8396 24.0784 9.98613 23.3354C9.80601 23.1887 9.62026 23.1016 9.38816 23.0752C8.66767 22.9935 7.39867 23.5216 6.67061 23.7114C5.16031 24.1026 3.8104 24.031 2.5022 23.1204C2.08725 23.4687 2.10289 24.161 2.40558 24.5909L2.41678 24.6065L2.43929 24.6363L2.44678 24.6451L2.46923 24.6728L2.48049 24.6848L2.49546 24.7026L2.49695 24.7036L2.50066 24.7078L2.50815 24.7188L2.5194 24.7309C2.64223 24.859 2.7943 24.9471 2.96584 24.9922L2.9883 24.999L3.00327 25.0022L3.00704 25.0032C3.02577 25.0066 3.0407 25.01 3.0583 25.0131H3.05904C3.07776 25.0167 3.09279 25.0188 3.11264 25.0209H3.11635C3.13508 25.023 3.15383 25.0245 3.17218 25.0252L3.17589 25.0264C3.19462 25.0274 3.21561 25.0274 3.23583 25.0274H3.238C3.25673 25.0285 3.27804 25.0274 3.29789 25.0264L3.30103 25.0266ZM25.9036 22.8238L42.5632 25.5403C42.6935 25.5612 42.8264 25.5622 42.9562 25.536C43.036 25.5193 43.1127 25.4929 43.1857 25.4577L43.1877 25.4566L43.1952 25.4531L43.2027 25.4488L43.2177 25.4421L43.2326 25.4332L43.2364 25.43L43.2401 25.428L43.2476 25.4223H43.2496L43.2609 25.4145L43.2721 25.4082L43.2833 25.4014L43.2983 25.3926L43.3207 25.3759L43.3357 25.3649L43.3582 25.3483L43.3732 25.3362L43.3919 25.3199L43.4069 25.3054L43.4256 25.2887L43.4406 25.2724L43.4555 25.2558L43.4743 25.2381L43.4893 25.2218L43.508 25.2019L43.5193 25.1874L43.5379 25.1644L43.5492 25.1499L43.5679 25.1258L43.5791 25.1112L43.5829 25.107C43.9334 24.6109 43.9098 23.8657 43.3458 23.568C43.0294 23.7058 42.6901 23.7908 42.346 23.8216C41.207 23.9251 40.1099 23.4742 39.1893 22.8316L37.457 22.5493C37.2196 22.674 36.9951 22.8338 36.7675 22.9738C36.3349 23.2394 35.8935 23.4579 35.4074 23.6077C33.844 24.0895 32.0678 23.8072 30.517 23.4015C29.8999 23.2405 29.337 22.9539 28.771 22.6662C28.3065 22.4303 27.6743 22.0875 27.1429 22.0896C26.7207 22.0917 26.3648 22.3024 26.0513 22.567C26.0026 22.6542 25.9521 22.739 25.8997 22.8239L25.9036 22.8238ZM24.2841 24.4389C23.8664 25.215 23.0964 25.6405 22.2288 25.6791L3.36583 26.5071C3.27071 26.5114 3.17595 26.5103 3.08121 26.5037L3.06253 26.7474C3.26399 27.0342 3.51923 27.2248 3.86038 27.3372C4.16183 27.4355 4.4916 27.4618 4.80691 27.4762C5.37406 27.5035 5.98498 27.4904 6.51296 27.7285C6.87395 27.8919 7.1439 28.1497 7.34001 28.4926C7.57106 28.8972 7.91355 29.2093 8.38808 29.272C8.83525 29.3316 9.2863 29.1562 9.64295 28.8951C10.4036 28.3372 11.402 27.6636 12.3222 27.4145C12.898 27.2579 13.4447 27.2712 13.9675 27.5797C14.4393 27.8577 14.7862 28.3029 15.2031 28.6514C15.6994 29.0659 16.1941 29.2477 16.8441 29.2477C17.8559 29.2477 18.663 29.0262 19.5746 28.6072C19.9735 28.4242 20.3632 28.2214 20.7591 28.0306C21.2054 27.8167 21.6551 27.6215 22.1246 27.465C23.4748 27.012 24.9786 26.797 26.3931 26.6715C28.0589 26.5235 29.7447 26.4927 31.4166 26.5082C33.7673 26.5301 36.1112 26.6548 38.4588 26.7628C39.3717 26.8058 40.2882 26.8478 41.2019 26.8576L41.4566 26.8598L24.6962 24.1269C24.5828 24.2017 24.4644 24.269 24.3416 24.3263C24.3228 24.3649 24.3041 24.4025 24.2847 24.4389L24.2841 24.4389ZM26.4859 28.0494C25.1444 28.1684 23.7404 28.3625 22.4599 28.7914C21.6097 29.0769 20.8273 29.519 20.015 29.8927C18.9697 30.3734 17.9992 30.6291 16.8435 30.6291C15.9484 30.6291 15.2126 30.3612 14.5252 29.7868C14.3001 29.5994 14.0957 29.3911 13.8846 29.1871C13.7472 29.0549 13.5958 28.9126 13.4307 28.8156C13.1607 28.6557 12.8897 28.6801 12.5976 28.7595C11.8172 28.971 10.9178 29.5951 10.2673 30.0725C8.92885 31.0537 7.26726 30.8221 6.42113 29.3415C6.3365 29.1927 6.23465 29.0879 6.07812 29.0174C5.73135 28.8609 5.13771 28.8751 4.75657 28.8576C4.13648 28.8278 3.54317 28.7395 3.02527 28.4453V29.5059C3.02527 30.1308 3.27207 30.7218 3.70639 31.1638H42.0671C42.5017 30.7218 42.7484 30.1308 42.7484 29.5059V28.2038C42.232 28.2512 41.7035 28.2456 41.189 28.2402C40.2619 28.2292 39.3355 28.1872 38.4094 28.1443C36.0762 28.0363 33.7425 27.9127 31.4062 27.8907C29.7657 27.8755 28.121 27.9038 26.486 28.0494H26.4859Z" fill="#FF8601"/>
</svg>
