<svg width="195" height="117" viewBox="0 0 195 117" fill="none" xmlns="http://www.w3.org/2000/svg">
<path fill-rule="evenodd" clip-rule="evenodd" d="M184.365 43.8282V47.1969C184.365 48.6388 183.817 50.0152 182.836 51.0911C182.836 51.8115 182.833 52.5302 182.788 53.249C182.689 54.8079 182.39 56.3636 181.584 57.7415C179.984 60.4731 177.074 61.4222 173.949 61.4222H132.413C129.288 61.4222 126.377 60.4731 124.778 57.7415C123.582 55.6972 123.525 53.3686 123.525 51.0911C122.544 50.0152 121.996 48.6388 121.996 47.1969V42.8598C121.799 42.6745 121.618 42.4728 121.458 42.2563C121.224 41.9407 121.034 41.5985 120.89 41.2384C120.266 39.6768 120.541 37.9328 121.653 36.7208C121.181 34.7228 122.339 32.8727 123.761 31.4665V29.4802C123.761 24.9761 125.142 20.7873 128.048 17.217C141.631 0.528797 182.601 4.74302 182.601 29.4802V30.7714C182.856 30.9479 183.108 31.1272 183.359 31.308C185.309 32.7216 186.372 35.0903 185.453 37.3588C185.4 37.4903 185.34 37.6191 185.276 37.7443C186.298 39.0762 186.392 40.8978 185.557 42.4218C185.369 42.7642 185.138 43.0825 184.868 43.3695C184.712 43.5353 184.545 43.6879 184.365 43.8282ZM179.762 51.4513H126.598C126.598 51.9862 126.603 52.5229 126.64 53.0564C126.711 54.1833 126.905 55.4131 127.523 56.3964C128.567 58.0538 130.516 58.4557 132.415 58.4557H173.95C175.849 58.4557 177.797 58.0538 178.842 56.3964C179.721 55.0006 179.764 53.0579 179.765 51.4513H179.762ZM126.824 30.9464H179.536V29.4802C179.536 3.71787 126.824 3.71787 126.824 29.4802V30.9464ZM153.839 38.5067C154.883 38.372 155.573 37.3886 156.025 36.5727L156.056 36.5128L156.11 36.4682C156.441 36.1768 156.799 35.9093 157.188 35.6927C156.214 35.3011 155.218 34.9485 154.229 34.6108L151.499 33.6781L154.394 33.8515C156.717 33.9892 159.286 34.3178 161.268 35.5731C161.688 35.7403 162.096 35.9347 162.501 36.1305C163.162 36.4503 163.856 36.7984 164.576 36.978C166.423 37.4368 168.751 37.8385 170.614 37.2229C171.107 37.0586 171.542 36.8345 171.984 36.5729C172.212 36.4384 172.435 36.2978 172.665 36.1662C171.81 35.8333 170.942 35.5266 170.075 35.2309L167.345 34.2984L170.239 34.4703C172.391 34.5971 174.733 34.8871 176.64 35.9152C176.722 35.944 176.805 35.9721 176.886 36.0034L176.947 36.026L176.996 36.0663C177.988 36.8464 179.336 37.5845 180.67 37.4967C181.462 37.4444 182.218 37.0736 182.551 36.3577C182.742 35.9467 182.752 35.494 182.611 35.0681C182.424 34.5016 181.997 34.0353 181.509 33.6811C181.167 33.4331 180.822 33.1912 180.473 32.955H126.608C126.004 33.4616 125.378 34.0742 124.982 34.7334C124.738 35.1396 124.529 35.6598 124.671 36.132C124.764 36.4442 124.997 36.6819 125.271 36.8657C126.24 37.5159 127.242 37.7342 128.411 37.607C129.333 37.5085 130.218 37.2185 131.106 36.9555C130.282 36.6356 129.446 36.3415 128.614 36.0572L125.883 35.1247L128.778 35.2966C130.915 35.4238 133.236 35.7091 135.135 36.7193C135.491 36.8585 135.817 37.0511 136.113 37.2844L136.117 37.2871L136.122 37.2917C136.74 37.8057 137.65 38.4589 138.529 38.2138C139.099 38.0554 139.656 37.5413 140.084 37.1648C140.74 36.5863 141.37 36.0456 142.184 35.6717C144.108 34.6019 146.492 34.3058 148.677 34.176L151.573 34.004L148.841 34.9366C148.167 35.1666 147.492 35.4026 146.826 35.6538C147.33 35.8211 147.823 36.0245 148.296 36.2455C148.862 36.51 149.412 36.8014 149.959 37.0976C150.45 37.3619 150.94 37.6326 151.442 37.8775C152.134 38.2154 153.039 38.6082 153.837 38.5068L153.839 38.5067ZM125.267 41.125L151.326 40.037C151.051 39.9262 150.783 39.8037 150.521 39.6752C149.465 39.1612 148.462 38.5529 147.398 38.0553C146.824 37.7864 146.224 37.5398 145.604 37.3828L143.067 37.4904C142.961 37.5384 142.856 37.5921 142.755 37.6503C142.631 37.7252 142.51 37.8044 142.393 37.8894C142.121 38.0853 141.866 38.3047 141.615 38.5259C140.857 39.1925 140.159 39.8368 139.145 40.1311C137.499 40.6123 136.011 39.8396 134.795 38.8324C134.538 38.6336 134.273 38.5155 133.942 38.4797C132.916 38.369 131.107 39.0848 130.069 39.3421C127.917 39.8724 125.993 39.7754 124.129 38.541C123.537 39.0131 123.56 39.9516 123.991 40.5343L124.007 40.5555L124.039 40.5959L124.05 40.6078L124.082 40.6454L124.098 40.6616L124.119 40.6858L124.121 40.6871L124.127 40.6928L124.137 40.7077L124.153 40.7241C124.328 40.8978 124.545 41.0172 124.79 41.0785L124.822 41.0875L124.843 41.0919L124.848 41.0932C124.875 41.0978 124.896 41.1025 124.921 41.1067H124.922C124.949 41.1115 124.971 41.1144 124.999 41.1172H125.004C125.031 41.1201 125.058 41.1221 125.084 41.1231L125.089 41.1247C125.116 41.126 125.146 41.126 125.174 41.126H125.178C125.204 41.1275 125.235 41.126 125.263 41.1247L125.267 41.125ZM157.48 38.1389L181.222 41.8213C181.407 41.8496 181.596 41.851 181.782 41.8155C181.896 41.7928 182.005 41.7571 182.109 41.7093L182.112 41.7078L182.122 41.7031L182.134 41.6973L182.155 41.6882L182.176 41.6761L182.181 41.6719L182.186 41.6691L182.198 41.6614H182.201L182.216 41.6508L182.232 41.6422L182.248 41.633L182.269 41.6211L182.302 41.5985L182.323 41.5835L182.355 41.561L182.376 41.5446L182.403 41.5225L182.424 41.5029L182.451 41.4804L182.473 41.4582L182.494 41.4356L182.52 41.4117L182.541 41.3896L182.568 41.3626L182.584 41.3429L182.611 41.3118L182.627 41.2921L182.654 41.2594L182.669 41.2396L182.675 41.2339C183.174 40.5615 183.141 39.5513 182.337 39.1477C181.886 39.3345 181.403 39.4498 180.912 39.4915C179.289 39.6318 177.726 39.0206 176.413 38.1495L173.945 37.7668C173.607 37.9359 173.286 38.1525 172.961 38.3423C172.346 38.7023 171.716 38.9985 171.023 39.2016C168.796 39.8547 166.265 39.472 164.054 38.922C163.175 38.7038 162.372 38.3153 161.566 37.9253C160.903 37.6055 160.002 37.1408 159.246 37.1437C158.644 37.1465 158.137 37.4322 157.689 37.7908C157.621 37.909 157.548 38.024 157.474 38.1391L157.48 38.1389ZM155.171 40.3283C154.575 41.3803 153.478 41.9571 152.243 42.0095L125.36 43.1319C125.224 43.1377 125.089 43.1362 124.954 43.1273L124.927 43.4576C125.215 43.8464 125.578 44.1047 126.065 44.2571C126.494 44.3904 126.964 44.426 127.413 44.4455C128.222 44.4825 129.092 44.4648 129.845 44.7875C130.359 45.009 130.744 45.3585 131.023 45.8233C131.353 46.3718 131.841 46.7948 132.517 46.8798C133.154 46.9606 133.797 46.7229 134.305 46.3689C135.39 45.6127 136.812 44.6996 138.124 44.3619C138.944 44.1497 139.724 44.1676 140.469 44.5858C141.141 44.9627 141.635 45.5662 142.229 46.0386C142.936 46.6005 143.642 46.8469 144.568 46.8469C146.01 46.8469 147.16 46.5466 148.46 45.9787C149.027 45.7306 149.583 45.4557 150.148 45.197C150.783 44.9071 151.424 44.6425 152.094 44.4303C154.018 43.8163 156.162 43.5248 158.177 43.3547C160.551 43.1541 162.954 43.1123 165.337 43.1334C168.686 43.163 172.026 43.3321 175.373 43.4785C176.674 43.5368 177.979 43.5937 179.282 43.607L179.645 43.61L155.758 39.9054C155.597 40.0068 155.428 40.098 155.254 40.1757C155.227 40.228 155.2 40.279 155.173 40.3283H155.171ZM158.309 45.2225C156.397 45.3838 154.396 45.647 152.572 46.2284C151.36 46.6154 150.244 47.2147 149.087 47.7212C147.598 48.3728 146.214 48.7195 144.567 48.7195C143.291 48.7195 142.244 48.3563 141.263 47.5777C140.943 47.3236 140.652 47.0413 140.351 46.7647C140.155 46.5855 139.939 46.3927 139.704 46.2612C139.319 46.0444 138.933 46.0775 138.516 46.1851C137.404 46.4718 136.122 47.3178 135.195 47.965C133.288 49.295 130.92 48.9811 129.714 46.974C129.593 46.7723 129.448 46.6303 129.225 46.5347C128.731 46.3226 127.885 46.3418 127.342 46.3181C126.458 46.2777 125.612 46.158 124.874 45.7592V47.1969C124.874 48.044 125.226 48.8451 125.845 49.4443H180.515C181.135 48.8451 181.485 48.044 181.485 47.1969V45.4318C180.75 45.4961 179.996 45.4885 179.263 45.4812C177.942 45.4663 176.623 45.4093 175.301 45.3512C171.977 45.2048 168.65 45.0372 165.321 45.0074C162.984 44.9868 160.64 45.0252 158.309 45.2225Z" fill="#390E00"/>
<path d="M27.9769 1.15956C27.9378 1.39431 27.8924 1.67539 27.8405 2.00281V4.15263C27.808 4.15263 27.7496 4.1619 27.6651 4.18043C27.5807 4.19896 27.5223 4.20824 27.4898 4.20824C27.4768 4.15881 27.4248 3.79124 27.3339 3.10552C27.2818 2.71016 27.0903 2.40745 26.7591 2.1974C26.6162 2.09856 26.2784 2.10474 25.746 2.21593C25.4796 2.24065 25.0964 2.29934 24.5963 2.392C24.421 2.4476 24.3105 2.55261 24.2651 2.70707C24.1546 3.10243 24.1417 3.67386 24.226 4.42137C24.317 5.16886 24.2943 6.19745 24.1579 7.5071C24.1579 7.50093 24.2001 7.92719 24.2846 8.78585C24.2585 9.08245 24.2521 9.52721 24.2651 10.1203C24.3365 10.4353 24.4404 10.9141 24.5768 11.5566C24.6417 11.8654 24.8594 12.0632 25.2295 12.1497C25.5283 12.2176 25.827 12.2824 26.1259 12.3442C26.1259 12.4369 26.0511 12.5727 25.9017 12.7519H20.3778C20.326 12.7519 20.3 12.7149 20.3 12.6408C20.3 12.6222 20.3032 12.5727 20.3097 12.4925C20.5111 12.4492 20.8065 12.3596 21.1963 12.2238C21.5339 12.0508 21.784 11.8439 21.9464 11.6028C21.9918 11.5349 22.0373 11.2569 22.0827 10.7689C22.1088 9.91639 22.1413 9.02375 22.1802 8.0909V4.75496H22.4433C22.4563 4.74878 22.4789 4.72097 22.5114 4.67156C22.4205 4.4677 22.3101 4.17425 22.1802 3.79124C22.1673 3.7171 22.1152 3.24452 22.0243 2.37346H20.2221C20.0337 2.37346 19.7998 2.47231 19.5206 2.66999C19.2413 2.86769 19.0887 3.02831 19.0627 3.15185C18.9263 3.70166 18.7932 4.08159 18.6632 4.29163C18.5984 4.39666 18.4522 4.44916 18.2249 4.44916C18.2249 4.42445 18.2119 4.34723 18.186 4.21749C18.1664 4.1063 18.1632 4.02599 18.1761 3.97657C18.2541 3.72329 18.3288 3.331 18.4003 2.79973C18.4847 2.15725 18.5497 1.72482 18.5951 1.50242C18.5951 1.50242 18.699 1.37268 18.9068 1.11323C18.712 1.09469 19.3063 1.08543 20.6897 1.08543C21.0924 1.08543 21.7028 1.1194 22.5213 1.18735C23.346 1.25531 23.7422 1.28929 23.7097 1.28929H25.3173C25.3107 1.28929 25.5055 1.2584 25.9017 1.19663C26.3304 1.13485 26.7428 1.09469 27.139 1.07616C27.2884 1.05763 27.4378 1.0391 27.5871 1.02057C27.7821 1.00202 27.9119 1.04835 27.9769 1.15956ZM41.5868 1.16882C41.5868 1.23678 41.5477 1.29855 41.4699 1.35415C41.197 1.42211 40.9633 1.51477 40.7685 1.63215C40.658 1.70011 40.5249 1.84219 40.369 2.05841C40.2196 2.27463 40.145 2.43833 40.145 2.54954C40.145 3.10552 40.1514 3.32483 40.1643 3.20746C40.1125 3.35571 40.054 3.57194 39.989 3.8561C39.989 3.93024 40.0312 4.24839 40.1157 4.81055C40.1417 5.00206 40.1546 5.25226 40.1546 5.56115C40.1546 5.92563 40.132 6.37041 40.0864 6.89552C40.0475 7.41444 40.028 7.65537 40.028 7.6183V8.98973C40.028 10.386 40.2001 11.3527 40.5443 11.8902C40.6093 11.9951 40.7522 12.1033 40.973 12.2145C41.1939 12.3256 41.3821 12.3874 41.538 12.3998C41.4991 12.4616 41.4276 12.5543 41.3237 12.6778H36.774C36.774 12.6408 36.7644 12.5852 36.7448 12.5111C36.7255 12.4307 36.7156 12.3751 36.7156 12.3442C36.8586 12.2824 37.0631 12.1898 37.3294 12.0662C37.5308 11.9736 37.7191 11.6893 37.8945 11.2137C38.0439 10.7998 38.1185 10.4754 38.1185 10.2408V8.88779C38.1185 8.79521 38.0957 8.54187 38.0503 8.12796C38.0179 7.8129 38.0179 7.55962 38.0503 7.3681C38.0764 7.22603 38.0211 6.98509 37.8847 6.64532C37.5664 6.86771 37.0859 7.03452 36.4428 7.14571C36.1051 7.20748 35.8129 7.21985 35.5661 7.18277C35.2283 7.12718 35.0498 7.09938 35.0302 7.09938H32.5751C32.4258 7.1797 32.2342 7.32795 32.0004 7.54418C31.903 7.69243 31.8705 7.90248 31.903 8.17429C31.9549 8.27931 32.0133 8.43067 32.0783 8.62834C32.0588 8.54187 32.0361 8.7117 32.0102 9.13803C32.0036 9.16893 32.0264 9.65381 32.0783 10.5928C32.1303 11.606 32.4973 12.1743 33.1793 12.2978C33.2052 12.3041 33.3449 12.3535 33.5981 12.4461C33.3773 12.6747 33.1272 12.7889 32.8479 12.7889C32.7701 12.7889 32.6759 12.7797 32.5654 12.7612C32.4356 12.7427 32.3544 12.7334 32.3219 12.7334L28.4834 12.6778C28.4899 12.5666 28.6393 12.4555 28.9316 12.3442C29.2758 12.2084 29.5388 12.0075 29.7207 11.7419C29.8571 11.538 29.948 11.155 29.9935 10.5928C30.0455 10.006 30.0519 9.50552 30.013 9.09167C29.9871 9.04219 29.948 8.97427 29.8961 8.88779C29.8896 8.41214 29.9188 7.7048 29.9838 6.76579C29.9902 6.7349 30.026 6.63605 30.091 6.46926C30.1494 6.32717 30.1753 6.2098 30.1689 6.11713C30.0974 6.01211 30.0064 5.82987 29.8961 5.57041C29.9155 5.64454 29.9383 5.44068 29.9643 4.95882C29.9708 4.85997 29.9578 4.71481 29.9253 4.52329C29.8993 4.33178 29.8863 4.22368 29.8863 4.19896V2.70707C29.8863 2.50937 29.7402 2.27154 29.4479 1.99354C29.1556 1.71555 28.8666 1.5333 28.5809 1.44682C28.5874 1.43446 28.6588 1.32944 28.7952 1.13176C29.0291 1.12558 29.3928 1.10396 29.8863 1.0669C30.3539 1.02982 30.5974 1.01129 30.617 1.01129H32.468C32.5525 1.01129 32.6401 1.00202 32.731 0.983491C32.822 0.964961 32.8837 0.955688 32.9162 0.955688C33.046 0.955688 33.2735 1.07616 33.5981 1.31709C33.3708 1.42211 33.1435 1.53021 32.9162 1.64141C32.6368 1.7835 32.4323 1.94103 32.3024 2.11401C32.0946 2.38583 31.9907 2.89548 31.9907 3.64298V5.62601C31.9907 5.66307 32.0004 5.70322 32.0199 5.74647C32.0394 5.78972 32.0491 5.82369 32.0491 5.8484C32.3544 5.97813 32.6142 6.04299 32.8285 6.04299H36.6961C36.8325 6.06154 37.0339 6.10169 37.3002 6.16346C37.3066 6.16346 37.3944 6.20054 37.5632 6.27466C37.6931 6.33026 37.7937 6.35807 37.8653 6.35807C37.9107 6.35807 37.9497 6.35188 37.9821 6.33952C38.1899 6.10478 38.2938 5.8206 38.2938 5.48701C38.2938 5.32021 38.2582 5.07929 38.1867 4.76422C38.1153 4.44916 38.0828 4.22986 38.0893 4.1063C38.0893 4.00746 38.0698 3.81286 38.0309 3.52251C37.9854 3.18274 37.9593 2.94181 37.9529 2.79973C37.9204 2.2005 37.4399 1.66612 36.5111 1.19663C36.6344 1.07307 36.7286 1.01129 36.7936 1.01129H38.2452C38.1607 1.01129 38.4302 1.00511 39.0537 0.992763C39.5994 0.974232 40.0183 0.971142 40.3106 0.983491C40.6029 1.02673 41.0283 1.08852 41.5868 1.16882ZM52.1181 9.66615C52.0987 9.98742 52.0564 10.4415 51.9915 11.0283C51.9136 11.189 51.8161 11.4144 51.6992 11.7048C51.6733 11.8284 51.6245 12.0014 51.553 12.2238C51.5271 12.2917 51.4427 12.406 51.2997 12.5666C51.1309 12.7643 50.9945 12.8631 50.8906 12.8631H48.4063C48.3608 12.8631 48.0686 12.8539 47.5295 12.8353C46.9905 12.8169 46.6982 12.8075 46.6528 12.8075H45.1524C45.1135 12.8075 44.9121 12.7889 44.5484 12.7519C44.1912 12.721 43.9899 12.7056 43.9444 12.7056H42.4734L42.3467 12.5759C42.4181 12.4894 42.7007 12.3041 43.1942 12.0199C43.532 11.8161 43.7008 11.5689 43.7008 11.2786V8.35035C43.7008 7.87468 43.7788 7.23529 43.9346 6.43219C43.8502 6.18508 43.834 5.87621 43.886 5.50554C43.769 5.41288 43.7105 5.28315 43.7105 5.11635C43.7105 5.104 43.7755 4.85071 43.9054 4.35649C43.9119 4.31325 43.8794 4.22677 43.808 4.09704C43.7171 3.9426 43.6684 3.86228 43.6618 3.8561C43.6163 3.72638 43.597 3.52251 43.6034 3.24452C43.6034 2.8615 43.6034 2.65146 43.6034 2.6144C43.584 2.40436 43.5385 2.23447 43.467 2.10474C43.3696 1.92559 43.2104 1.7835 42.9897 1.67848C42.7947 1.59817 42.5999 1.51477 42.4051 1.42829C42.496 1.22443 42.5935 1.11631 42.6974 1.10396C42.8988 1.12867 43.1878 1.13485 43.5645 1.12249C43.98 1.02982 44.1814 0.983491 44.1684 0.983491H45.8929C45.9188 0.983491 46.1136 1.00511 46.4773 1.04835C46.8476 1.09161 47.1269 1.11631 47.3152 1.12249C47.3931 1.12249 48.0426 1.08234 49.2636 1.00202C49.543 0.983491 50.2736 1.00202 51.4557 1.05763C51.5595 1.12558 51.6116 1.20897 51.6116 1.30782C51.6116 1.36343 51.5888 1.44373 51.5433 1.54874C51.5044 1.65377 51.4849 1.73098 51.4849 1.78041C51.4783 1.98427 51.4102 2.65764 51.2802 3.80051C51.2608 3.83757 51.1666 3.89627 50.9978 3.97657C50.9588 3.9148 50.8386 3.58429 50.6373 2.98505C50.5074 2.59587 50.2671 2.38274 49.9163 2.34568C49.7735 2.31478 49.6273 2.28389 49.478 2.25301C49.2766 2.20975 49.1207 2.20359 49.0104 2.23447C48.7245 2.31478 48.1043 2.32404 47.1496 2.26227C46.6235 2.22521 46.2274 2.23447 45.961 2.29007C45.883 2.3086 45.8312 2.37965 45.8051 2.5032C46.0389 3.22599 46.0486 3.86538 45.8344 4.42137C45.8474 4.3843 45.8538 4.53873 45.8538 4.88469C45.8538 4.97117 45.8376 5.15033 45.8051 5.42215C45.7727 5.64454 45.7662 5.82369 45.7857 5.9596C45.7921 6.02137 45.8538 6.10169 45.9708 6.20054H49.6436C49.7604 6.16346 49.8742 6.1264 49.9846 6.08933C50.1665 6.02755 50.293 5.9318 50.3646 5.80207C50.4294 5.64145 50.5495 5.41906 50.725 5.13488C50.9328 5.13488 51.066 5.20283 51.1245 5.33874C51.0984 5.69087 51.0724 6.14184 51.0465 6.69165C51.0399 7.05614 50.9945 7.59051 50.9101 8.29476C50.884 8.39978 50.7542 8.43376 50.5203 8.39669C50.436 8.24843 50.2866 8.05383 50.0723 7.8129C49.6761 7.52872 49.3157 7.38665 48.9909 7.38665H47.6464C47.562 7.38665 47.3964 7.3712 47.1496 7.34032C46.9027 7.30942 46.7176 7.29398 46.5943 7.29398C46.25 7.29398 46.0325 7.38973 45.9415 7.58124C45.8376 7.79746 45.7857 7.96425 45.7857 8.08163C45.7857 8.19282 45.8084 8.40287 45.8538 8.7117C45.8993 9.02063 45.9188 9.25853 45.9122 9.42527C45.9058 9.51175 45.8733 9.6755 45.8149 9.91639C45.7629 10.1512 45.737 10.3365 45.737 10.4724C45.737 10.5774 45.7499 10.6732 45.7759 10.7597C45.8213 10.908 45.9968 11.087 46.302 11.2972C46.6137 11.5071 46.8801 11.6276 47.1008 11.6585C47.1333 11.6709 47.1658 11.6832 47.1983 11.6956C47.2633 11.7141 47.3217 11.7233 47.3736 11.7233H48.9909C49.3546 11.7233 49.6598 11.6678 49.9067 11.5566C50.2508 11.4083 50.5853 11.1612 50.9101 10.8153C51.2672 10.4322 51.4589 10.0678 51.4849 9.72186C51.6538 9.61681 51.8648 9.59824 52.1181 9.66615Z" fill="#390E00"/>
<path d="M27.0096 52.3675C27.043 52.8758 26.9512 53.543 26.734 54.3691C26.4501 55.3222 26.1078 56.7598 25.7069 58.682C25.423 60.5564 24.9804 61.5096 24.3792 61.5414C23.7111 61.5572 23.0014 61.5494 22.2498 61.5175C21.2644 61.4699 20.3877 61.4461 19.6194 61.4461C17.8324 61.4461 16.4045 61.4222 15.3357 61.3745C14.2668 61.3269 13.8326 61.3031 14.0329 61.3031C13.2313 61.3031 12.2376 61.3428 11.0518 61.4222C10.9516 61.4064 10.8264 61.3666 10.676 61.3031C10.3587 61.2236 8.68863 61.1839 5.66576 61.1839H1.08134C1.03123 61.1839 0.880916 61.1522 0.630404 61.0886C0.379891 61.041 0.187838 61.0172 0.0542297 61.0172C0.121027 60.7311 0.212878 60.342 0.329797 59.8495C0.697215 59.7861 1.20659 59.6589 1.85793 59.4683C2.52597 59.1664 3.0437 58.6422 3.41113 57.8956C3.61153 57.705 3.82864 57.4191 4.06246 57.0378C4.07915 56.7995 4.02906 56.4263 3.91215 55.918C3.81194 55.4096 3.76184 55.0363 3.76184 54.798C3.92886 54.8297 4.31298 54.5836 4.9142 54.0594C4.8808 54.0117 4.7472 53.7575 4.51338 53.2969C4.49668 53.265 4.36307 53.2412 4.11256 53.2253C3.77854 52.9394 3.85369 52.4947 4.33803 51.891C4.62193 51.5414 4.76389 51.0728 4.76389 50.485C4.76389 50.1356 4.6971 49.6511 4.56349 49.0316C4.44658 48.3961 4.38812 47.9911 4.38812 47.8164C4.38812 47.7369 4.42988 47.6019 4.51338 47.4113C4.59689 47.2206 4.63864 47.0936 4.63864 47.03V44.8139C4.63864 44.7664 4.68875 44.5836 4.78895 44.266C4.88915 43.9483 4.94761 43.702 4.96431 43.5273C4.96431 43.4478 4.88915 43.1381 4.73885 42.598C4.75554 42.6456 4.7973 42.328 4.86411 41.6449C4.8808 41.4861 4.85576 41.2795 4.78895 41.0253C4.70545 40.7077 4.66369 40.4852 4.66369 40.3581C4.64699 40.1358 4.68875 39.7069 4.78895 39.0714C4.88915 38.3725 4.94761 37.9197 4.96431 37.7133C4.96431 37.4431 4.93926 37.0222 4.88915 36.4503C4.83906 35.8784 4.814 35.5846 4.814 35.5686V33.2811C4.814 33.1859 4.86411 33.0588 4.96431 32.9C4.96431 32.9 4.9142 32.05 4.814 30.3503C4.76389 29.6514 4.7806 29.1113 4.86411 28.73C4.9142 28.5236 4.93926 28.3091 4.93926 28.0867C4.93926 27.6578 4.84741 27.1336 4.66369 26.5139C4.51338 26.0375 4.36307 25.553 4.21277 25.0605C4.19607 25.0287 4.20442 24.5998 4.23781 23.7738C4.23781 23.7897 4.17937 22.0502 4.06246 18.5555C4.01235 18.3013 3.93721 17.9041 3.83699 17.3639C3.83699 17.3481 3.87875 17.0305 3.96225 16.4109C3.97895 16.2997 3.93721 16.117 3.83699 15.8628C3.73679 15.5928 3.67834 15.41 3.66164 15.3148C3.67834 15.41 3.75349 14.9494 3.8871 13.9328C3.61988 13.4403 3.12721 12.7811 2.40906 11.955C2.20864 11.812 1.89133 11.7247 1.4571 11.693C0.905971 11.6453 0.571958 11.6055 0.455053 11.5738C0.371539 11.4625 0.371539 11.2561 0.455053 10.9542C0.538553 10.6683 0.655458 10.4856 0.805768 10.4061C1.50721 10.3586 1.84123 10.3347 1.80783 10.3347C3.21071 10.43 5.34008 10.5412 8.19595 10.6683C8.91409 10.7 9.20636 10.716 9.07275 10.716C11.7282 10.4459 12.9974 10.3109 12.8806 10.3109H16.488C16.5214 10.6286 16.4295 11.0178 16.2124 11.4784C15.6278 11.5897 14.7511 11.7486 13.582 11.955C12.4798 12.1297 11.6698 12.9081 11.152 14.2902C11.0184 14.6873 10.8681 15.426 10.7011 16.5061C10.5007 18.063 10.4005 19.167 10.4005 19.8183V43.718C10.4005 43.7814 10.4172 43.9561 10.4506 44.2422C10.484 44.5281 10.5007 44.7186 10.5007 44.8139C10.5508 45.783 10.5508 46.6408 10.5007 47.3875C10.4339 48.4677 10.5758 49.0555 10.9266 49.1508C10.9099 49.1031 10.8681 49.5955 10.8013 50.6281C10.7846 50.6281 10.7429 50.6598 10.676 50.7234C11.127 52.7408 11.3524 53.9084 11.3524 54.2261C11.1186 54.5597 10.8681 55.0998 10.6009 55.8464C10.5842 56.037 10.8096 56.7042 11.2773 57.848C11.9286 57.8797 12.9056 57.9513 14.2082 58.0625C14.4421 58.0942 14.8012 58.2848 15.2855 58.6344C15.369 58.5231 15.5443 58.3325 15.8115 58.0625C16.2291 58.0466 16.8137 58.0783 17.5652 58.1578C18.3835 58.2213 18.9765 58.2531 19.3439 58.2531C19.4106 58.2531 19.561 58.1816 19.7948 58.0386C20.0285 57.9116 20.204 57.8322 20.3208 57.8003C20.7718 57.7209 21.4315 57.562 22.2999 57.3238C22.4836 57.2602 22.7926 56.9266 23.2269 56.323C23.8615 55.4652 24.1787 55.0363 24.1787 55.0363C25.1474 53.9084 25.6234 52.8997 25.6067 52.01C25.9408 52.0736 26.4084 52.1928 27.0096 52.3675ZM5.39019 25.0128C5.37349 24.6158 5.36514 24.1789 5.36514 23.7022C5.36514 23.2416 5.38184 22.5427 5.41523 21.6055C5.44864 20.6681 5.46534 19.9692 5.46534 19.5086C5.46534 17.4594 5.20647 15.8389 4.68874 14.6475C4.58854 14.8223 4.57184 15.1639 4.63864 15.6722C4.68874 16.0375 4.73885 16.403 4.78895 16.7683C4.85576 18.7699 5.05616 21.518 5.39019 25.0128ZM47.4015 34.3772C47.4015 35.2828 47.3765 35.9738 47.3263 36.4503C47.1593 36.8158 46.984 37.3797 46.8003 38.1422C46.7669 38.9047 46.5915 39.7147 46.2741 40.5725C46.0069 40.8903 45.6145 41.4066 45.0968 42.1214C44.9631 42.598 44.5957 43.2811 43.9944 44.1706C43.5102 44.6313 42.7754 45.3461 41.79 46.3152C41.6397 46.3628 41.4475 46.4422 41.2138 46.5534C40.9966 46.7441 40.6126 47.0221 40.0614 47.3875C37.3225 48.7695 34.7171 49.5558 32.2454 49.7464H28.9386C28.9719 49.7464 28.9051 49.6988 28.7382 49.6034C26.9344 49.5558 25.5816 49.3175 24.6798 48.8886C24.4459 48.841 24.1287 48.7616 23.7278 48.6503C23.0598 48.3961 22.0578 47.9434 20.7217 47.2922C19.1184 46.3231 17.6153 44.957 16.2124 43.1936C15.4274 42.2088 14.7344 40.938 14.1331 39.3811C13.5653 37.9356 13.248 36.7203 13.1811 35.7355C13.0643 34.0516 13.1311 32.3995 13.3816 30.7792C13.4818 30.5727 13.6154 30.2789 13.7824 29.8975C13.8826 29.4211 14.058 28.73 14.3086 27.8245C14.676 27.2686 15.1602 26.4584 15.7615 25.3941C15.845 25.2194 15.8868 25.0128 15.8868 24.7745C15.9703 24.6951 16.1373 24.7189 16.3877 24.8461C16.4712 24.6236 16.4712 24.3059 16.3877 23.893C16.6049 23.8294 16.9139 23.6944 17.3146 23.4878C17.4483 23.1542 17.7655 22.7492 18.2666 22.2725C19.2687 21.7642 20.7802 21.0177 22.8009 20.0328C23.3186 19.7945 23.9783 19.588 24.78 19.4133C26.8175 18.9684 28.2038 18.7461 28.9386 18.7461H30.8926C32.4124 18.7461 33.715 18.8811 34.8006 19.1511C35.3851 19.31 36.6712 19.7547 38.6585 20.4855C39.0761 20.7397 39.7358 21.1367 40.6376 21.6769C41.9402 22.4711 43.1261 23.5594 44.1949 24.9414C45.1468 26.1805 45.7648 27.3242 46.0486 28.3725C46.1823 28.5473 46.3493 28.8094 46.5497 29.1589C46.9171 30.112 47.1259 31.5258 47.1761 33.4003C47.1761 33.4639 47.2094 33.6147 47.2763 33.8531C47.3598 34.0755 47.4015 34.2502 47.4015 34.3772ZM41.84 34.9969C41.6897 32.9953 41.2805 31.1684 40.6126 29.5164C39.7607 27.3877 38.7587 25.7117 37.6063 24.4886C35.9697 22.773 34.1827 21.7642 32.2454 21.4625C30.4082 21.1764 29.1474 21.0811 28.4626 21.1764C27.1265 21.3353 25.9908 21.6133 25.0556 22.0105C24.9386 22.0581 24.1787 22.4791 22.7759 23.2734C22.6924 23.4322 22.5421 23.6228 22.325 23.8453C22.1913 23.877 22.041 23.9247 21.8741 23.9883C21.5401 24.4013 21.1225 24.9572 20.6214 25.6561C20.5547 25.8469 20.4461 26.1169 20.2958 26.4664C20.0454 26.8475 19.778 27.3003 19.4941 27.8245C19.3439 28.4123 19.11 29.2939 18.7927 30.4695C18.8095 30.9142 18.8011 31.5894 18.7677 32.4949C18.7677 32.5425 18.7342 32.6458 18.6675 32.8047C18.6007 32.9635 18.5756 33.0747 18.5923 33.1383C18.8261 34.1708 19.1602 35.6005 19.5943 37.4272C19.5443 37.5544 19.5109 37.7053 19.4941 37.88C19.6111 38.1024 19.778 38.4042 19.9952 38.7855C20.0119 38.992 20.062 39.262 20.1455 39.5956C20.8469 40.93 21.2144 41.6131 21.2478 41.6449C21.7488 42.4709 22.4335 43.2572 23.302 44.0039C23.3186 44.0197 23.4272 44.3453 23.6276 44.9808C23.6945 44.9967 23.9783 45.0444 24.4794 45.1238C25.2977 45.8386 25.9241 46.3231 26.3582 46.5773C27.5941 47.2763 29.832 47.4908 33.0721 47.2206C33.3393 47.1412 33.69 47.038 34.1243 46.9109C34.6754 46.7997 35.4686 46.5375 36.5041 46.1245C36.7379 45.918 37.0468 45.6719 37.431 45.3859C39.101 44.401 40.0948 43.1858 40.4122 41.7402C40.5792 41.5495 40.7796 41.2795 41.0133 40.93C41.0468 40.6283 41.0968 40.2708 41.1637 39.8578C41.2638 39.7625 41.364 39.6116 41.4642 39.405C41.4977 39.0397 41.5812 38.2453 41.7148 37.0222C41.8318 36.0373 41.8735 35.3622 41.84 34.9969ZM78.4652 48.7219C78.3317 48.8966 78.1145 49.1111 77.8139 49.3652C77.0625 49.7623 76.5196 49.9609 76.1856 49.9609H73.1795C72.1607 49.9609 71.4008 49.9211 70.8997 49.8417C70.5323 49.7147 69.9729 49.532 69.2213 49.2936C68.5867 49.1031 67.4761 48.15 65.8894 46.4344C65.7559 46.2914 65.1045 45.2667 63.9354 43.3605C62.8832 41.6289 62.0566 40.1755 61.4554 39C61.305 38.5552 61.0378 37.9833 60.6537 37.2844C60.4867 37.1096 60.0691 37.0461 59.4012 37.0936C58.9836 37.1414 58.5577 37.1889 58.1235 37.2367C57.5724 37.2049 56.7541 37.1969 55.6684 37.2128C55.5515 37.2128 55.4096 37.3081 55.2426 37.4988C55.3094 38.1183 55.3929 40.0642 55.4931 43.3367C55.5098 43.9721 55.6435 44.8061 55.8939 45.8386C55.8939 46.1245 55.9774 46.5455 56.1444 47.1014C56.4951 47.6734 57.0631 48.0864 57.8479 48.3406C58.4826 48.5153 59.1173 48.69 59.7519 48.8648C59.7686 49.0395 59.7519 49.2461 59.7017 49.4844C59.2175 49.675 58.7248 49.7703 58.2237 49.7703H55.5933C55.5599 49.7703 55.3345 49.7305 54.9169 49.6511C54.4994 49.5717 54.1988 49.532 54.0151 49.532C53.4973 49.532 52.6873 49.5717 51.5851 49.6511C50.4995 49.7305 49.9567 49.7703 49.9567 49.7703H47.4265C47.1761 49.7703 46.8754 49.6988 46.5246 49.5558C46.5246 49.5081 46.4996 49.4128 46.4495 49.2699C46.4162 49.1269 46.3994 49.0236 46.3994 48.96C47.2679 48.7377 47.8023 48.5789 48.0027 48.4836C48.6206 48.2135 49.1217 47.7528 49.5058 47.1014C49.6728 46.8156 49.7897 46.0848 49.8565 44.9094C49.8565 44.7187 49.9149 44.2263 50.0319 43.432C50.1321 42.7013 50.1821 42.1453 50.1821 41.7639C50.1821 39.6036 50.199 38.4361 50.2323 38.2613C50.2823 38.0866 50.4411 37.8006 50.7083 37.4034C50.5913 37.2922 50.4411 37.0778 50.2574 36.76C50.1739 36.4742 50.1321 36.0691 50.1321 35.5449V33.1383C50.1321 33.1223 50.107 32.8761 50.0569 32.3995C50.0737 32.5902 50.1488 31.5417 50.2823 29.2542C50.2657 29.2225 50.2239 29.1669 50.1572 29.0875C49.9735 28.468 49.9818 27.6498 50.1821 26.6331C50.249 26.3472 50.1404 25.3941 49.8565 23.7738C49.8398 23.2655 49.6895 22.5983 49.4056 21.7722C49.0382 21.3433 48.5622 21.0733 47.9777 20.962C47.4766 20.8508 46.984 20.7475 46.4996 20.6522C46.4996 19.7469 46.4746 19.5561 46.4245 20.0805C46.4579 19.8263 46.6248 19.6912 46.9255 19.6753C47.6102 19.6436 48.7041 19.5721 50.2072 19.4609C51.5935 19.3338 52.3032 19.2703 52.3367 19.2703H55.5682C56.1695 19.2703 56.7874 19.2225 57.422 19.1272C58.0567 19.032 58.5995 18.9844 59.0504 18.9844C59.6182 18.9844 60.3281 19.032 61.1797 19.1272C61.7142 19.2385 62.4991 19.3973 63.5347 19.6039C63.6348 19.6674 63.8019 19.7389 64.0356 19.8183C65.6389 20.0566 67.0585 20.7794 68.2944 21.9867C68.9792 22.6697 69.5887 23.877 70.1231 25.6086C70.1398 25.8627 70.1649 26.2361 70.1984 26.7284C70.2317 27.1256 70.1984 27.7213 70.098 28.5156C69.881 30.1994 69.4634 31.4703 68.8455 32.3281C68.2777 33.1223 67.1838 34.2344 65.5638 35.6639C65.5471 35.9975 65.614 36.2914 65.7642 36.5456C66.8164 38.4678 67.8685 40.39 68.9207 42.312C70.1733 44.393 71.6931 46.1642 73.4801 47.6258C73.6304 47.7528 74.2484 47.9594 75.3339 48.2453C75.9852 48.4041 76.5363 48.4438 76.9872 48.3644C77.6553 48.2373 78.1313 48.1897 78.4152 48.2214C78.4486 48.3327 78.4652 48.4994 78.4652 48.7219ZM64.7371 28.325C64.7371 27.8008 64.6953 27.4513 64.6118 27.2764C63.7768 25.1638 63.0669 23.8135 62.4825 23.2258C61.6808 22.3997 60.7873 21.8755 59.8019 21.6531C59.1506 21.51 58.0984 21.4703 56.6455 21.5339C56.4951 21.5498 56.2614 21.6372 55.944 21.7961C55.6768 24.5283 55.5098 26.7364 55.4429 28.4203C55.5265 28.5473 55.61 28.73 55.6935 28.9683C55.6935 29.1908 55.6184 30.0961 55.468 31.6847C55.3678 32.7331 55.3929 33.7816 55.5433 34.83C55.5933 34.8777 55.6601 34.9492 55.7437 35.0445H58.2237C58.5076 35.108 58.8083 35.1397 59.1255 35.1397C60.1109 35.1397 61.0545 34.8459 61.9564 34.2581C62.875 33.6545 63.4345 33.162 63.6348 32.7808C64.3697 31.4783 64.7371 29.993 64.7371 28.325ZM106.773 32.066C106.874 32.8761 106.79 34.3058 106.523 36.355C106.356 36.9905 106.114 37.9197 105.796 39.143C105.112 41.8434 103.868 43.9959 102.064 45.6003C101.362 46.2199 100.46 46.8394 99.3582 47.4589C98.0555 48.2055 97.0034 48.6106 96.2017 48.6742C96.1015 48.7377 95.9346 48.8092 95.7007 48.8886C93.2289 49.2381 92.0348 49.4128 92.1183 49.4128H75.8099C75.6762 48.8569 75.718 48.5074 75.935 48.3644C76.6365 48.1261 77.1209 48.007 77.3881 48.007C77.4883 47.8799 77.6302 47.7052 77.8139 47.4828C78.5989 46.7044 78.9914 45.8466 78.9914 44.9094C78.9914 44.8934 78.9412 44.6949 78.8411 44.3136C78.9079 44.1547 78.9579 43.9244 78.9914 43.6225C78.9246 43.4955 78.8411 43.2969 78.7409 43.0269C78.7242 42.9316 78.7575 42.7569 78.8411 42.5027C78.9246 42.2327 78.9747 42.0341 78.9914 41.907C79.0248 41.3033 79.0414 40.3502 79.0414 39.0475V36.355C79.0248 34.5283 79.0414 31.8753 79.0916 28.3964C79.0916 28.3488 79.0498 28.2455 78.9663 28.0867C78.8828 27.9119 78.8411 27.7848 78.8411 27.7055C78.8411 27.4513 78.8828 27.062 78.9663 26.5378C79.0498 25.9977 79.0916 25.5927 79.0916 25.3225C79.0916 25.2591 79.0414 25.14 78.9412 24.9652C78.841 24.7905 78.7742 24.6475 78.7409 24.5363C78.7575 24.2344 78.7325 23.7738 78.6658 23.1542C78.3817 22.09 77.9559 21.4147 77.3881 21.1289C76.9205 20.9064 76.1189 20.7158 74.9832 20.557C74.9665 20.4617 74.9581 20.2552 74.9581 19.9375C75.6762 19.6039 76.3944 19.5086 77.1125 19.6514C77.1125 19.6514 77.1709 19.6992 77.2879 19.7945C77.4048 19.8739 77.505 19.9056 77.5885 19.8897C77.7053 19.8263 77.8473 19.7469 78.0143 19.6514C78.5654 19.6356 79.1167 19.6197 79.6678 19.6039C80.269 19.6197 80.7366 19.858 81.0707 20.3186C81.1207 20.3186 81.1792 20.3108 81.246 20.2949C81.3963 20.0566 81.6469 19.7469 81.9976 19.3656C82.3984 19.4291 82.9579 19.5086 83.676 19.6039C83.7094 19.6197 83.7762 19.5721 83.8764 19.4609C83.9933 19.3497 84.0936 19.2783 84.1771 19.2464C84.6947 19.0875 85.4714 19.0081 86.5068 19.0081H92.8699C95.6256 19.5959 97.5712 20.1281 98.7069 20.6047C100.861 21.4942 102.632 22.8603 104.018 24.7031C104.302 25.0525 104.694 25.6164 105.195 26.3949C105.93 27.7769 106.456 29.6672 106.773 32.066ZM105.646 32.0422C103.609 31.915 102.172 31.8674 101.337 31.8992C101.204 31.8356 101.154 31.5656 101.187 31.0889C100.886 30.39 100.41 29.3892 99.759 28.0867C98.8738 26.3711 97.8969 25.0128 96.828 24.012C95.7592 22.9953 94.0223 22.2805 91.6174 21.8675C90.5317 21.6928 90.039 21.6055 90.1392 21.6055H87.559C87.4921 21.6055 87.033 21.6848 86.1811 21.8436C85.3293 21.9867 84.7615 22.0741 84.4777 22.1058C84.2438 23.2178 84.152 24.425 84.202 25.7277C84.2355 26.3472 84.2522 27.61 84.2522 29.5164V38.9284C84.2522 38.9125 84.2271 39.1827 84.1771 39.7386C84.1436 40.2311 84.1436 40.5964 84.1771 40.8347C84.2605 41.7561 84.3022 42.1533 84.3022 42.0261C84.2522 42.6616 84.2438 43.1936 84.2773 43.6225C84.2773 43.718 84.3273 43.9324 84.4275 44.266C84.511 44.5361 84.5445 44.7425 84.5277 44.8855C84.511 44.9014 84.2355 45.0047 83.7011 45.1953C83.3169 45.3541 83.0832 45.5606 82.9996 45.8148C83.2835 46.0531 83.6593 46.1961 84.1269 46.2436C84.461 46.2596 84.7949 46.2675 85.129 46.2675C88.4859 46.6328 90.4315 46.8156 90.9659 46.8156C92.5526 46.8156 93.9555 46.5853 95.1746 46.1245C96.2434 45.7116 97.1203 45.1714 97.8049 44.5042C99.2747 43.0905 100.252 41.335 100.736 39.2383C100.97 38.2216 101.137 36.5297 101.237 34.1628C101.237 33.9722 101.087 33.7022 100.786 33.3527C100.753 33.1303 100.803 33.0033 100.936 32.9714C101.187 32.892 101.705 32.8047 102.49 32.7094C103.174 32.6458 104.151 32.5425 105.421 32.3995C105.571 32.2883 105.646 32.1692 105.646 32.0422Z" fill="#390E00"/>
<path d="M46.2519 61.0714C46.2519 61.4236 46.2422 61.6922 46.2227 61.8776C46.1577 62.0198 46.0895 62.2389 46.0181 62.5355C46.005 62.832 45.9369 63.1472 45.8135 63.4808C45.7096 63.6043 45.557 63.805 45.3556 64.083C45.3037 64.2683 45.1608 64.534 44.9269 64.88C44.7386 65.059 44.4529 65.3371 44.0697 65.7139C44.0112 65.7325 43.9364 65.7634 43.8455 65.8066C43.7611 65.8808 43.6118 65.9888 43.3974 66.1309C42.3323 66.6684 41.3191 66.9742 40.3579 67.0483H39.0718C39.0849 67.0483 39.0589 67.0298 38.9939 66.9927C38.2926 66.9742 37.7664 66.8815 37.4157 66.7147C37.3247 66.6961 37.2013 66.6652 37.0455 66.622C36.7857 66.5232 36.396 66.3471 35.8764 66.0939C35.2528 65.717 34.6684 65.1858 34.1228 64.5C33.8176 64.1171 33.5481 63.6228 33.3142 63.0174C33.0933 62.4552 32.97 61.9826 32.944 61.5997C32.8985 60.9448 32.9246 60.3023 33.0219 59.6722C33.061 59.5918 33.1128 59.4775 33.1778 59.3294C33.2167 59.1439 33.285 58.8753 33.3823 58.5231C33.5253 58.3069 33.7137 57.9919 33.9474 57.578C33.9799 57.51 33.9961 57.4297 33.9961 57.337C34.0286 57.3061 34.0936 57.3154 34.191 57.3648C34.2235 57.2783 34.2235 57.1548 34.191 56.9942C34.2755 56.9695 34.3956 56.9169 34.5515 56.8366C34.6034 56.7069 34.7268 56.5494 34.9216 56.3641C35.3114 56.1663 35.8992 55.876 36.685 55.493C36.8864 55.4003 37.1429 55.3201 37.4547 55.252C38.2471 55.079 38.7861 54.9926 39.0718 54.9926H39.8317C40.4229 54.9926 40.9294 55.0451 41.3515 55.1501C41.5789 55.2119 42.079 55.3849 42.8519 55.6691C43.0142 55.7679 43.2707 55.9223 43.6215 56.1324C44.1281 56.4412 44.5893 56.8644 45.0049 57.4019C45.3751 57.8837 45.6154 58.3286 45.7258 58.7363C45.7777 58.8042 45.8427 58.9062 45.9207 59.042C46.0636 59.4127 46.1447 59.9626 46.1642 60.6914C46.1642 60.7162 46.1772 60.7749 46.2031 60.8675C46.2356 60.954 46.2519 61.0221 46.2519 61.0714ZM44.0891 61.3123C44.0306 60.5339 43.8716 59.8235 43.6118 59.1811C43.2806 58.3532 42.8908 57.7015 42.4427 57.2258C41.8063 56.5586 41.1112 56.1663 40.3579 56.0489C39.6434 55.9378 39.1531 55.9008 38.8868 55.9378C38.3672 55.9996 37.9256 56.1076 37.5619 56.2622C37.5164 56.2806 37.2208 56.4443 36.6753 56.7533C36.6428 56.815 36.5844 56.8891 36.4999 56.9756C36.448 56.9879 36.3895 57.0065 36.3246 57.0312C36.1947 57.1918 36.0323 57.408 35.8374 57.6799C35.8115 57.754 35.7693 57.859 35.7107 57.995C35.6134 58.1433 35.5095 58.3192 35.3991 58.5231C35.3406 58.7516 35.2497 59.0946 35.1263 59.5517C35.1327 59.7247 35.1296 59.9872 35.1165 60.3394C35.1165 60.3578 35.1035 60.3981 35.0776 60.4598C35.0516 60.5216 35.0418 60.5648 35.0483 60.5895C35.1393 60.9912 35.2691 61.5471 35.438 62.2575C35.4186 62.307 35.4055 62.3657 35.3991 62.4336C35.4445 62.5201 35.5095 62.6375 35.5939 62.7858C35.6004 62.866 35.6198 62.9711 35.6523 63.1008C35.9251 63.6197 36.068 63.8854 36.081 63.8977C36.2758 64.219 36.5422 64.5247 36.8798 64.815C36.8864 64.8213 36.9285 64.9479 37.0065 65.195C37.0324 65.2012 37.1429 65.2197 37.3377 65.2506C37.6559 65.5286 37.8995 65.717 38.0684 65.8158C38.5491 66.0876 39.4194 66.1711 40.6794 66.0661C40.7833 66.0352 40.9197 65.9951 41.0886 65.9456C41.3029 65.9023 41.6113 65.8004 42.014 65.6398C42.105 65.5595 42.2251 65.4637 42.3745 65.3525C43.0239 64.9696 43.4104 64.4969 43.5338 63.9347C43.5988 63.8606 43.6768 63.7557 43.7677 63.6197C43.7807 63.5023 43.8 63.3634 43.8261 63.2027C43.865 63.1656 43.9041 63.1069 43.943 63.0267C43.956 62.8846 43.9884 62.5757 44.0405 62.1C44.0859 61.7169 44.1022 61.4545 44.0891 61.3123ZM55.0784 55.3355C55.1368 55.6259 55.1173 56.4444 55.02 57.7911C55.0134 57.8962 54.929 58.0196 54.7666 58.1617C54.7406 58.1679 54.6335 58.1711 54.4451 58.1711C54.4061 57.7324 54.3574 57.4235 54.299 57.2444C54.1756 56.8799 53.9612 56.6574 53.6559 56.5772C53.3572 56.4907 52.7012 56.4475 51.6881 56.4475H49.9929C49.6746 56.4475 49.5156 56.7408 49.5156 57.3278C49.5156 57.2536 49.548 57.578 49.6129 58.3008C49.6259 58.4552 49.6032 58.7084 49.5448 59.0606C49.4798 59.4498 49.4473 59.734 49.4473 59.9131C49.4473 60.1911 49.4994 60.4228 49.6032 60.6081H50.8892C50.9152 60.6081 51.0191 60.6266 51.201 60.6637C51.3892 60.6946 51.5063 60.71 51.5517 60.71H52.7987C53.2663 60.71 53.6722 60.4783 54.0165 60.015C54.0424 59.9224 54.0879 59.7927 54.1529 59.6258C54.2243 59.5703 54.3672 59.5456 54.5814 59.5517C54.6139 59.7432 54.6431 60.0213 54.6692 60.3858C54.6497 60.8305 54.5718 61.7108 54.4354 63.0267C54.4158 63.1996 54.2502 63.2738 53.9386 63.2491C53.8801 62.9957 53.8215 62.7425 53.7631 62.4892C53.6592 62.1742 53.471 61.9765 53.198 61.8961C53.0357 61.8529 52.6331 61.8313 51.9901 61.8313H50.5483C50.4833 61.8683 50.3274 61.8807 50.0805 61.8683C49.8598 61.856 49.7071 61.9053 49.6228 62.0166C49.6292 62.1649 49.6195 62.3841 49.5934 62.6745C49.587 62.7301 49.5383 62.9155 49.4473 63.2305C49.3759 63.4591 49.3467 63.6444 49.3597 63.7864C49.4052 63.8668 49.4506 63.9842 49.4961 64.1386C49.4961 64.2498 49.4831 64.4198 49.457 64.6483C49.4376 64.8769 49.4278 65.0467 49.4278 65.158C49.4278 65.6398 49.6033 66.0166 49.954 66.2884C49.9604 66.2946 50.4411 66.4738 51.3958 66.8259C51.2724 66.9679 51.1101 67.0421 50.9087 67.0483C51.2983 67.0421 51.1101 67.0298 50.3436 67.0112C49.7461 66.9988 49.0024 66.9679 48.1127 66.9186C47.6385 66.9 47.33 66.9031 47.1872 66.9278C47.1027 66.9773 46.9858 67.0329 46.8365 67.0947C46.8429 67.0947 46.5993 67.0452 46.1058 66.9464C46.1447 66.8352 46.2973 66.69 46.5637 66.5108C46.8299 66.3316 46.9891 66.1989 47.041 66.1124C47.2814 65.68 47.4015 65.2753 47.4015 64.8985V62.6745C47.4015 62.6807 47.3917 62.4676 47.3723 62.0351C47.3592 61.5965 47.3528 61.2661 47.3528 61.0436C47.3528 61.0745 47.3592 60.9663 47.3723 60.7192C47.3853 60.5463 47.382 60.3981 47.3625 60.2745C47.343 60.0954 47.2944 59.944 47.2164 59.8205C47.4437 59.5116 47.5573 59.1471 47.5573 58.727C47.5573 58.3069 47.4437 57.8281 47.2164 57.2906C47.2164 57.1795 47.2099 57.0312 47.1969 56.8459C47.1905 56.7408 47.1709 56.6543 47.1385 56.5864C47.0085 56.327 46.8169 56.083 46.5637 55.8544C46.4921 55.7864 46.3265 55.7401 46.0667 55.7153C46.0149 55.6474 45.9953 55.5208 46.0083 55.3355C45.9758 55.3355 46.4207 55.3262 47.343 55.3077C48.7784 55.2891 50.9671 55.2675 53.9093 55.2428C54.2015 55.2428 54.5913 55.2737 55.0784 55.3355ZM69.7794 55.3817C69.7405 55.6165 69.695 55.8977 69.643 56.225V58.3749C69.6105 58.3749 69.5521 58.3842 69.4677 58.4027C69.3832 58.4212 69.3248 58.4305 69.2923 58.4305C69.2793 58.381 69.2273 58.0135 69.1364 57.3278C69.0845 56.9324 68.8928 56.6297 68.5616 56.4197C68.4188 56.3209 68.081 56.327 67.5484 56.4381C67.2821 56.4629 66.899 56.5216 66.3988 56.6142C66.2235 56.6698 66.113 56.7748 66.0676 56.9292C65.9571 57.3247 65.9442 57.8962 66.0287 58.6436C66.1196 59.3911 66.0968 60.4197 65.9604 61.7294C65.9604 61.7232 66.0026 62.1495 66.0871 63.0081C66.0612 63.3047 66.0546 63.7494 66.0676 64.3425C66.139 64.6575 66.243 65.1363 66.3794 65.7788C66.4442 66.0876 66.6619 66.2854 67.0321 66.3719C67.3308 66.4398 67.6295 66.5046 67.9284 66.5664C67.9284 66.6591 67.8537 66.795 67.7044 66.9742H62.1805C62.1285 66.9742 62.1025 66.9372 62.1025 66.863C62.1025 66.8444 62.1058 66.795 62.1122 66.7147C62.3136 66.6715 62.6092 66.5819 62.9988 66.446C63.3366 66.2731 63.5865 66.0661 63.749 65.8251C63.7945 65.7572 63.8399 65.4791 63.8854 64.9911C63.9113 64.1386 63.9438 63.246 63.9827 62.3131V58.9772H64.2458C64.2588 58.971 64.2816 58.9432 64.3139 58.8938C64.223 58.69 64.1127 58.3965 63.9827 58.0135C63.9698 57.9394 63.9179 57.4667 63.827 56.5958H62.0246C61.8362 56.5958 61.6024 56.6946 61.3231 56.8922C61.0439 57.0899 60.8913 57.2505 60.8652 57.3741C60.7288 57.9239 60.5957 58.3038 60.4659 58.5139C60.4009 58.6189 60.2547 58.6714 60.0274 58.6714C60.0274 58.6467 60.0144 58.5695 59.9885 58.4397C59.9689 58.3286 59.9657 58.2482 59.9788 58.1988C60.0566 57.9455 60.1314 57.5532 60.2028 57.022C60.2872 56.3794 60.3522 55.947 60.3976 55.7247C60.3976 55.7247 60.5015 55.595 60.7094 55.3355C60.5145 55.3169 61.1088 55.3077 62.4922 55.3077C62.8949 55.3077 63.5054 55.3416 64.3238 55.4097C65.1486 55.4776 65.5448 55.5115 65.5123 55.5115H67.1198C67.1132 55.5115 67.3082 55.4807 67.7044 55.4189C68.1329 55.3571 68.5453 55.3169 68.9415 55.2984C69.0909 55.2799 69.2404 55.2614 69.3897 55.2428C69.5846 55.2242 69.7144 55.2706 69.7794 55.3817ZM83.3893 55.3911C83.3893 55.459 83.3504 55.5208 83.2724 55.5764C82.9996 55.6443 82.7658 55.737 82.571 55.8544C82.4605 55.9223 82.3274 56.0644 82.1715 56.2806C82.0221 56.4968 81.9474 56.6606 81.9474 56.7717C81.9474 57.3278 81.954 57.5471 81.967 57.4297C81.915 57.578 81.8565 57.7942 81.7915 58.0783C81.7915 58.1525 81.8337 58.4706 81.9182 59.0328C81.9442 59.2243 81.9571 59.4746 81.9571 59.7834C81.9571 60.1479 81.9345 60.5926 81.889 61.1178C81.85 61.6367 81.8306 61.8776 81.8306 61.8405V63.212C81.8306 64.6082 82.0026 65.575 82.3469 66.1124C82.4118 66.2174 82.5547 66.3255 82.7756 66.4367C82.9964 66.5478 83.1848 66.6097 83.3405 66.622C83.3016 66.6838 83.2302 66.7765 83.1262 66.9H78.5767C78.5767 66.863 78.5669 66.8074 78.5475 66.7333C78.5279 66.6529 78.5181 66.5973 78.5181 66.5664C78.6611 66.5046 78.8657 66.412 79.1319 66.2884C79.3333 66.1958 79.5216 65.9116 79.697 65.4359C79.8463 65.022 79.921 64.6976 79.921 64.463V63.11C79.921 63.0174 79.8984 62.7641 79.8529 62.3502C79.8204 62.0351 79.8204 61.7819 79.8529 61.5903C79.8788 61.4482 79.8237 61.2074 79.6873 60.8675C79.3691 61.09 78.8884 61.2567 78.2453 61.368C77.9077 61.4297 77.6154 61.442 77.3686 61.405C77.0308 61.3494 76.8523 61.3216 76.8327 61.3216H74.3778C74.2284 61.4019 74.0367 61.5502 73.803 61.7664C73.7055 61.9147 73.673 62.1247 73.7055 62.3966C73.7575 62.5015 73.816 62.6529 73.8808 62.8506C73.8614 62.7641 73.8386 62.9339 73.8127 63.3603C73.8061 63.3912 73.8289 63.876 73.8808 64.815C73.9328 65.8282 74.2998 66.3966 74.9817 66.5201C75.0077 66.5263 75.1473 66.5758 75.4006 66.6684C75.1798 66.8969 74.9297 67.0112 74.6505 67.0112C74.5726 67.0112 74.4784 67.002 74.3679 66.9834C74.2381 66.965 74.1569 66.9556 74.1244 66.9556L70.286 66.9C70.2924 66.7889 70.4419 66.6777 70.7341 66.5664C71.0784 66.4306 71.3413 66.2297 71.5232 65.9641C71.6596 65.7603 71.7505 65.3772 71.796 64.815C71.848 64.2282 71.8545 63.7278 71.8155 63.3139C71.7895 63.2644 71.7505 63.1965 71.6986 63.11C71.6921 62.6344 71.7213 61.927 71.7863 60.988C71.7928 60.9571 71.8285 60.8583 71.8934 60.6914C71.9519 60.5494 71.978 60.432 71.9714 60.3394C71.9 60.2343 71.8091 60.0522 71.6986 59.7927C71.7181 59.8667 71.7408 59.6628 71.7667 59.1811C71.7733 59.0823 71.7603 58.9371 71.7278 58.7455C71.7019 58.554 71.6889 58.446 71.6889 58.4212V56.9292C71.6889 56.7316 71.5427 56.4938 71.2504 56.2158C70.9583 55.9378 70.6692 55.7556 70.3834 55.6691C70.3899 55.6566 70.4613 55.5517 70.5977 55.3539C70.8316 55.3478 71.1953 55.3262 71.6889 55.2891C72.1565 55.252 72.4001 55.2336 72.4196 55.2336H74.2706C74.355 55.2336 74.4426 55.2242 74.5335 55.2058C74.6246 55.1872 74.6862 55.178 74.7187 55.178C74.8486 55.178 75.0759 55.2984 75.4006 55.5394C75.1733 55.6443 74.946 55.7525 74.7187 55.8636C74.4395 56.0057 74.2348 56.1632 74.105 56.3362C73.8971 56.6081 73.7932 57.1177 73.7932 57.8652V59.8483C73.7932 59.8853 73.803 59.9254 73.8224 59.9687C73.8419 60.0119 73.8516 60.0459 73.8516 60.0706C74.1569 60.2003 74.4167 60.2653 74.631 60.2653H78.4987C78.6351 60.2838 78.8365 60.324 79.1027 60.3858C79.1093 60.3858 79.1969 60.4228 79.3658 60.4969C79.4956 60.5525 79.5964 60.5803 79.6678 60.5803C79.7132 60.5803 79.7521 60.5741 79.7846 60.5617C79.9926 60.3271 80.0965 60.0428 80.0965 59.7092C80.0965 59.5425 80.0607 59.3015 79.9893 58.9864C79.9178 58.6714 79.8854 58.4521 79.8918 58.3286C79.8918 58.2298 79.8723 58.0351 79.8334 57.7447C79.7879 57.405 79.762 57.164 79.7554 57.022C79.7229 56.4227 79.2424 55.8883 78.3136 55.4189C78.437 55.2952 78.5312 55.2336 78.5961 55.2336H80.0477C79.9632 55.2336 80.2328 55.2273 80.8564 55.215C81.4019 55.1964 81.8208 55.1933 82.1131 55.2058C82.4053 55.249 82.8308 55.3107 83.3893 55.3911ZM93.9207 63.8884C93.9012 64.2097 93.859 64.6638 93.794 65.2506C93.716 65.4112 93.6187 65.6366 93.5017 65.927C93.4758 66.0506 93.427 66.2236 93.3556 66.446C93.3297 66.514 93.2452 66.6282 93.1022 66.7889C92.9335 66.9865 92.7971 67.0853 92.6931 67.0853H90.2089C90.1634 67.0853 89.8711 67.0761 89.332 67.0575C88.793 67.0391 88.5007 67.0297 88.4553 67.0297H86.955C86.9159 67.0297 86.7146 67.0112 86.3509 66.9742C85.9937 66.9433 85.7924 66.9278 85.7469 66.9278H84.2759L84.1492 66.7981C84.2206 66.7116 84.5032 66.5263 84.9967 66.2422C85.3345 66.0383 85.5033 65.7912 85.5033 65.5008V62.5725C85.5033 62.0969 85.5813 61.4575 85.7372 60.6544C85.6527 60.4073 85.6364 60.0984 85.6885 59.7278C85.5716 59.6351 85.513 59.5053 85.513 59.3386C85.513 59.3263 85.578 59.0729 85.708 58.5787C85.7144 58.5354 85.6819 58.4489 85.6105 58.3192C85.5196 58.1648 85.4708 58.0846 85.4644 58.0783C85.419 57.9486 85.3994 57.7447 85.406 57.4667C85.406 57.0838 85.406 56.8737 85.406 56.8366C85.3865 56.6265 85.341 56.4567 85.2696 56.327C85.1721 56.1478 85.0129 56.0057 84.7922 55.9008C84.5974 55.8204 84.4026 55.737 84.2076 55.6505C84.2985 55.4467 84.396 55.3385 84.4999 55.3262C84.7013 55.351 84.9903 55.3571 85.367 55.3447C85.7827 55.252 85.984 55.2058 85.9709 55.2058H87.6954C87.7213 55.2058 87.9161 55.2273 88.28 55.2706C88.6501 55.3138 88.9294 55.3385 89.1177 55.3447C89.1956 55.3447 89.8452 55.3046 91.0661 55.2242C91.3454 55.2058 92.0761 55.2242 93.2581 55.2799C93.362 55.3478 93.4141 55.4312 93.4141 55.53C93.4141 55.5856 93.3913 55.666 93.3458 55.771C93.3069 55.876 93.2874 55.9532 93.2874 56.0027C93.2809 56.2065 93.2127 56.8799 93.0828 58.0228C93.0633 58.0598 92.9691 58.1185 92.8002 58.1988C92.7613 58.137 92.6412 57.8065 92.4398 57.2073C92.31 56.8181 92.0696 56.605 91.7188 56.5678C91.576 56.5371 91.4298 56.5062 91.2805 56.4753C91.0791 56.432 90.9233 56.4258 90.8129 56.4567C90.5271 56.5371 89.9069 56.5463 88.9521 56.4845C88.426 56.4475 88.0298 56.4567 87.7636 56.5123C87.6857 56.5308 87.6337 56.6019 87.6077 56.7255C87.8414 57.4483 87.8513 58.0876 87.6369 58.6436C87.6499 58.6066 87.6565 58.761 87.6565 59.1069C87.6565 59.1934 87.6402 59.3726 87.6077 59.6444C87.5752 59.8667 87.5687 60.0459 87.5882 60.1819C87.5947 60.2436 87.6565 60.324 87.7733 60.4228H91.4461C91.5631 60.3858 91.6767 60.3486 91.7871 60.3116C91.969 60.2498 92.0957 60.1541 92.1671 60.0244C92.232 59.8637 92.3522 59.6413 92.5275 59.3572C92.7354 59.3572 92.8685 59.4251 92.9269 59.561C92.901 59.9131 92.8749 60.3641 92.849 60.9139C92.8426 61.2784 92.7971 61.8128 92.7126 62.517C92.6867 62.622 92.5567 62.6561 92.323 62.6189C92.2385 62.4706 92.0891 62.2761 91.8748 62.0351C91.4786 61.7509 91.1181 61.6089 90.7933 61.6089H89.449C89.3645 61.6089 89.1989 61.5934 88.9521 61.5625C88.7054 61.5316 88.5202 61.5162 88.3968 61.5162C88.0526 61.5162 87.835 61.612 87.7441 61.8034C87.6402 62.0198 87.5882 62.1865 87.5882 62.3039C87.5882 62.415 87.611 62.6251 87.6565 62.9339C87.7019 63.2429 87.7213 63.4808 87.7149 63.6475C87.7083 63.734 87.6758 63.8977 87.6174 64.1386C87.5655 64.3734 87.5394 64.5587 87.5394 64.6947C87.5394 64.7996 87.5524 64.8954 87.5785 64.9819C87.624 65.1302 87.7993 65.3093 88.1045 65.5194C88.4163 65.7294 88.6826 65.8499 88.9035 65.8808C88.9358 65.8931 88.9683 65.9054 89.0008 65.9178C89.0658 65.9364 89.1242 65.9456 89.1762 65.9456H90.7933C91.157 65.9456 91.4623 65.89 91.7092 65.7788C92.0533 65.6305 92.3878 65.3834 92.7126 65.0375C93.0699 64.6544 93.2614 64.29 93.2874 63.9441C93.4562 63.839 93.6673 63.8205 93.9207 63.8884Z" fill="#390E00"/>
<path d="M30.6671 97.5325C30.734 98.0089 30.7673 98.5491 30.7673 99.1528C30.7673 99.8358 30.5752 101.925 30.1911 105.419C30.0408 106.738 29.2809 108.477 27.9115 110.638C26.6087 112.703 25.5065 114.006 24.6047 114.546C23.1183 115.435 21.682 116.055 20.2958 116.404C19.778 116.531 18.2165 116.595 15.6111 116.595H2.2838C1.98318 116.595 1.61576 116.468 1.18153 116.214C1.18153 116.15 1.15648 115.999 1.10638 115.761C1.05627 115.523 1.03122 115.348 1.03122 115.237C2.10008 114.856 2.75142 114.593 2.98524 114.45C3.72008 113.99 4.32132 113.227 4.78894 112.163C5.00606 111.686 5.14801 110.463 5.21482 108.493C5.23152 108.192 5.30667 107.373 5.44028 106.039C5.55718 104.816 5.61564 103.887 5.61564 103.251C5.61564 99.6769 5.6407 97.7151 5.69079 97.3656C5.7409 97.1114 5.93296 96.6508 6.26698 95.9836C6.11667 95.8089 5.92461 95.4594 5.69079 94.9352C5.59059 94.4586 5.54049 93.7755 5.54049 92.8859V88.9305C5.54049 88.8511 5.51544 88.438 5.46533 87.6914C5.41522 87.0083 5.43192 86.1347 5.51544 85.0703C5.66575 83.4977 5.7409 82.6239 5.7409 82.4492C5.72419 82.4016 5.6741 82.3062 5.59059 82.1633C5.37348 81.1148 5.38183 79.7567 5.61564 78.0886C5.69914 77.5962 5.56553 76.0156 5.21482 73.3469C5.19811 72.4891 5.02275 71.3692 4.68874 69.9872C4.25451 69.2881 3.66998 68.8355 2.93513 68.6289C2.35059 68.47 1.75772 68.3033 1.15648 68.1286C1.15648 66.6194 1.13144 66.3017 1.08133 67.1753C1.09803 66.7624 1.29844 66.5478 1.68256 66.532C2.50091 66.4685 3.82028 66.3334 5.6407 66.1269C7.32749 65.9364 8.19595 65.8411 8.24604 65.8411H11.9036C12.5716 65.8411 13.273 65.7695 14.0078 65.6266C14.7595 65.4677 15.4024 65.3883 15.9368 65.3883C16.5381 65.3883 17.2729 65.4597 18.1414 65.6028C18.2582 65.6186 19.4523 65.9761 21.7238 66.675C22.9261 67.0403 24.0703 68.065 25.1558 69.7489C26.1912 71.3533 26.7924 72.9022 26.9595 74.3953C27.0597 75.2531 27.1098 76.0792 27.1098 76.8734C27.1098 80.9401 25.7236 84.5381 22.9512 87.6675C22.9846 87.6994 23.0514 87.7628 23.1516 87.8583C23.7696 87.8264 24.5712 88.1362 25.5565 88.7875C26.5587 89.4228 27.4355 90.2172 28.1869 91.1703C29.473 92.8064 30.2997 94.9272 30.6671 97.5325ZM25.3562 76.6352C25.2058 76.6192 24.5379 76.6114 23.3521 76.6114C22.517 76.6272 21.8908 76.4683 21.4732 76.1347C21.0725 75.8011 20.7217 75.1578 20.421 74.2047C20.1705 73.4422 19.9283 72.6717 19.6946 71.8933C19.4774 71.4009 19.0265 70.845 18.3417 70.2253C17.6571 69.59 17.0725 69.2325 16.5882 69.1531C14.367 68.756 13.0476 68.8195 12.63 69.3438L12.129 78.2555C12.129 78.3825 12.1791 78.5414 12.2793 78.732C12.3795 78.9067 12.4296 79.01 12.4296 79.0417C12.4296 79.1053 12.3294 80.13 12.129 82.1156C12.0121 83.3706 12.0455 84.983 12.2292 86.9528C12.9474 87.2545 13.3232 87.4055 13.3566 87.4055C15.9452 87.2466 17.6654 86.9845 18.5172 86.6191C20.5045 85.7614 21.4983 83.2038 21.4983 78.9464C21.4983 78.4541 21.4816 77.9775 21.4481 77.5167C21.5316 77.358 21.6236 77.2388 21.7238 77.1594C22.6924 77.1117 23.9032 76.937 25.3562 76.6352ZM24.1036 101.083C24.0703 100.447 23.8615 99.5895 23.4774 98.5094C23.16 97.6675 22.8344 96.8175 22.5003 95.9597C22.3166 95.3878 22.016 94.665 21.5985 93.7914C20.0285 91.6786 18.0412 90.6222 15.6362 90.6222C15.2688 90.6222 14.7511 90.6381 14.0831 90.67C13.2981 90.7175 12.6467 90.8844 12.129 91.1703C12.0121 92.5523 11.8869 94.2124 11.7532 96.1503C11.7365 97.453 11.7532 98.8667 11.8034 100.392C11.8702 102.425 11.9036 103.481 11.9036 103.561C11.937 105.864 12.2125 108.644 12.7302 111.901C12.7804 112.187 13.106 112.655 13.7073 113.307C14.0413 113.259 14.4087 113.235 14.8095 113.235C15.0934 113.235 15.5025 113.251 16.037 113.283C16.5882 113.331 16.989 113.354 17.2395 113.354C18.6925 113.354 19.8783 112.854 20.7968 111.853C21.4315 111.218 22.1329 110.368 22.9012 109.304C23.8364 106.635 24.2373 103.894 24.1036 101.083ZM63.0837 75.0386C63.0837 75.6264 62.9751 75.9362 62.7581 75.968C62.4407 75.9997 61.9731 76.095 61.3552 76.2539C61.088 76.238 60.7205 76.3253 60.2528 76.5161C59.685 77.0084 59.351 77.7153 59.2508 78.6367C59.2008 78.7161 59.1422 78.8433 59.0755 79.018C58.992 79.9075 58.9669 80.4636 59.0003 80.6859C59.2341 82.1314 59.351 82.8622 59.351 82.8781V84.7128C59.351 84.7764 59.3176 84.9036 59.2508 85.0941C59.2008 85.2689 59.1673 85.388 59.1506 85.4516C59.1339 85.5628 59.1422 85.7772 59.1757 86.095C59.3259 87.3658 59.4011 89.0258 59.4011 91.075C59.4011 91.0909 59.3677 91.1464 59.301 91.2417C59.2508 91.3212 59.2257 91.3847 59.2257 91.4325C59.2257 92.9733 59.2425 93.5849 59.2759 93.2672C59.209 94.1091 59.0504 95.3561 58.7999 97.0083C58.6997 97.5006 58.4074 98.2552 57.9231 99.2719C57.4555 100.273 57.0546 100.987 56.7206 101.416C56.3198 101.909 55.5849 102.52 54.516 103.251C53.6644 103.839 52.8043 104.419 51.9358 104.991C51.6852 104.816 50.9671 104.879 49.7814 105.181C49.5475 105.308 49.1801 105.483 48.679 105.706C48.5957 105.737 48.462 105.713 48.2783 105.634C48.0946 105.554 47.9944 105.515 47.9777 105.515H46.1239C46.3576 105.515 45.9318 105.404 44.8462 105.181C44.4622 105.165 43.9109 105.102 43.1928 104.991C42.7585 104.768 42.0906 104.49 41.1887 104.157C40.9215 104.141 40.5206 104.101 39.9862 104.037C39.8025 103.99 39.4768 103.839 39.0093 103.585C36.003 101.933 34.4332 99.105 34.2996 95.102L34.0741 87.5722C33.9572 85.4913 33.7234 82.3936 33.3726 78.2792C33.2725 77.3739 32.9133 76.7384 32.2955 76.3731C32.1117 76.2459 31.3184 76.0156 29.9155 75.682C29.8655 75.5867 29.8404 75.4994 29.8404 75.42C29.8404 75.1181 30.1243 75.0069 30.6922 75.0864C31.9948 75.2452 33.4895 75.3247 35.1763 75.3247H37.6063C37.6565 75.3247 37.8902 75.2928 38.3078 75.2292C38.7254 75.1658 39.0426 75.1339 39.2598 75.1339C40.0614 75.1817 41.2638 75.1499 42.8671 75.0386C43.0008 75.1975 43.0675 75.3405 43.0675 75.4675C43.0675 75.7217 42.5499 75.9283 41.5144 76.0872C41.4309 76.1506 41.2805 76.2539 41.0635 76.3969C40.9466 76.4445 40.7796 76.5319 40.5624 76.6589C40.2618 76.8814 40.0948 77.08 40.0614 77.2547C39.7607 78.7003 39.4017 80.265 38.9842 81.9489C39.0008 81.9011 39.0844 82.1633 39.2347 82.7352C39.2514 82.7352 39.1845 83.1481 39.0343 83.9742C39.101 84.2442 39.0593 84.8797 38.9091 85.8805C38.9424 85.6898 39.0343 86.2776 39.1845 87.6438C39.2014 87.8503 39.1596 88.5492 39.0593 89.7406C39.0761 89.82 39.1094 89.9233 39.1596 90.0503C39.1596 90.1298 39.101 90.7175 38.9842 91.8136C38.9508 92.1631 39.0259 92.9177 39.2096 94.0773C39.3098 94.2044 39.4184 94.395 39.5353 94.6492C39.5519 94.6969 39.6021 95.237 39.6856 96.2695C39.669 96.4602 39.6605 96.7461 39.6605 97.1273C39.7441 97.3021 39.8527 97.5483 39.9862 97.8661C40.0364 97.9931 40.0279 98.1917 39.9612 98.4617C40.1616 98.7159 40.4455 99.0972 40.8129 99.6055C41.0133 99.955 41.4142 100.431 42.0155 101.035C42.4664 101.369 42.9173 101.702 43.3682 102.036C44.0028 102.465 44.5706 102.719 45.0717 102.798C45.5226 102.846 46.0486 102.87 46.6499 102.87H49.9818C50.9003 102.87 51.8689 102.362 52.8878 101.345C53.8565 100.392 54.4827 99.3989 54.7666 98.3664C54.9002 97.4927 55.0589 96.4284 55.2426 95.1734C55.3762 94.3474 55.3762 93.2275 55.2426 91.8136L55.2927 80.543C55.1757 79.6058 54.9169 78.5175 54.516 77.2786C54.3491 76.7702 53.7145 76.3731 52.6122 76.0872C52.4118 76.0394 52.0611 75.968 51.56 75.8727C51.4598 75.7138 51.4098 75.5073 51.4098 75.2531C51.3262 75.2531 51.5851 75.2214 52.1863 75.1578C53.4389 75.0148 54.633 75.0625 55.7687 75.3008C55.9691 75.2531 56.2446 75.2214 56.5953 75.2055C57.2299 75.3167 58.3323 75.2928 59.9021 75.1339C59.9689 75.1181 60.0942 75.1339 60.2779 75.1816C60.4616 75.2134 60.5869 75.2292 60.6537 75.2292C60.8374 75.2292 61.6475 75.1658 63.0837 75.0386ZM94.398 104.3C94.2644 104.474 94.0472 104.689 93.7467 104.943C92.9951 105.34 92.4524 105.539 92.1183 105.539H89.1121C88.0934 105.539 87.3335 105.499 86.8324 105.419C86.465 105.292 85.9055 105.11 85.154 104.871C84.5194 104.681 83.4088 103.728 81.8222 102.012C81.6886 101.869 81.0372 100.844 79.8682 98.9383C78.816 97.2067 77.9894 95.7533 77.3881 94.5778C77.2378 94.133 76.9705 93.5611 76.5865 92.8622C76.4194 92.6874 76.0019 92.6239 75.3339 92.6714C74.9163 92.7191 74.4905 92.7667 74.0562 92.8145C73.5051 92.7827 72.6867 92.7747 71.6011 92.7906C71.4843 92.7906 71.3423 92.8859 71.1753 93.0766C71.2421 93.6961 71.3257 95.642 71.4258 98.9145C71.4425 99.5499 71.5762 100.384 71.8266 101.416C71.8266 101.702 71.9101 102.123 72.0771 102.679C72.4279 103.251 72.9957 103.664 73.7806 103.918C74.4152 104.093 75.05 104.268 75.6846 104.443C75.7013 104.617 75.6846 104.824 75.6345 105.062C75.1502 105.253 74.6575 105.348 74.1564 105.348H71.526C71.4927 105.348 71.2672 105.308 70.8497 105.229C70.4321 105.149 70.1315 105.11 69.9478 105.11C69.4301 105.11 68.62 105.149 67.5178 105.229C66.4323 105.308 65.8894 105.348 65.8894 105.348H63.3592C63.1087 105.348 62.8081 105.277 62.4574 105.134C62.4574 105.086 62.4323 104.991 62.3823 104.848C62.3488 104.705 62.3321 104.601 62.3321 104.538C63.2006 104.316 63.735 104.157 63.9354 104.061C64.5533 103.791 65.0544 103.331 65.4385 102.679C65.6055 102.393 65.7224 101.663 65.7892 100.487C65.7892 100.296 65.8477 99.8041 65.9647 99.0097C66.0649 98.2791 66.1149 97.7231 66.1149 97.3417C66.1149 95.1814 66.1316 94.0138 66.1651 93.8391C66.2151 93.6644 66.3738 93.3784 66.6411 92.9812C66.524 92.87 66.3738 92.6556 66.1901 92.3378C66.1066 92.052 66.0649 91.6469 66.0649 91.1227V88.7161C66.0649 88.7001 66.0398 88.4539 65.9896 87.9773C66.0064 88.168 66.0815 87.1195 66.2151 84.832C66.1984 84.8003 66.1566 84.7447 66.0898 84.6653C65.9061 84.0458 65.9145 83.2276 66.1149 82.2109C66.1817 81.925 66.0731 80.9719 65.7892 79.3516C65.7726 78.8433 65.6222 78.1761 65.3383 77.35C64.9709 76.9211 64.4949 76.6511 63.9103 76.5398C63.4094 76.4286 62.9167 76.3253 62.4323 76.23C62.4323 75.3247 62.4074 75.1339 62.3572 75.6583C62.3905 75.4041 62.5576 75.2689 62.8583 75.2531C63.5429 75.2214 64.6369 75.1499 66.14 75.0386C67.5262 74.9116 68.2359 74.8481 68.2693 74.8481H71.501C72.1022 74.8481 72.7202 74.8003 73.3548 74.705C73.9894 74.6097 74.5322 74.5622 74.9832 74.5622C75.5509 74.5622 76.2608 74.6097 77.1125 74.705C77.6469 74.8163 78.4319 74.9751 79.4674 75.1816C79.5676 75.2452 79.7346 75.3167 79.9683 75.3961C81.5716 75.6344 82.9912 76.3572 84.2271 77.5644C84.9119 78.2475 85.5214 79.4548 86.0559 81.1864C86.0725 81.4405 86.0976 81.8138 86.131 82.3062C86.1645 82.7034 86.131 83.2991 86.0308 84.0933C85.8137 85.7772 85.3962 87.0481 84.7782 87.9058C84.2104 88.7001 83.1165 89.8122 81.4965 91.2417C81.4798 91.5753 81.5465 91.8692 81.6969 92.1234C82.7491 94.0456 83.8013 95.9677 84.8535 97.8898C86.106 99.9708 87.6258 101.742 89.4128 103.204C89.563 103.331 90.181 103.537 91.2666 103.823C91.9179 103.982 92.469 104.022 92.92 103.942C93.5881 103.815 94.0639 103.767 94.3479 103.799C94.3813 103.91 94.398 104.077 94.398 104.3ZM80.6698 83.9028C80.6698 83.3786 80.628 83.0291 80.5445 82.8542C79.7095 80.7416 78.9997 79.3913 78.4152 78.8036C77.6136 77.9775 76.72 77.4533 75.7346 77.2308C75.0834 77.0878 74.0312 77.0481 72.5782 77.1117C72.4279 77.1276 72.194 77.215 71.8768 77.3739C71.6095 80.1061 71.4425 82.3142 71.3757 83.998C71.4592 84.1251 71.5427 84.3078 71.6262 84.5461C71.6262 84.7685 71.5511 85.6739 71.4008 87.2625C71.3006 88.3109 71.3257 89.3594 71.4759 90.4078C71.526 90.4555 71.5929 90.5269 71.6764 90.6222H74.1564C74.4403 90.6858 74.741 90.7175 75.0583 90.7175C76.0436 90.7175 76.9872 90.4237 77.889 89.8359C78.8077 89.2323 79.3672 88.7398 79.5676 88.3586C80.3024 87.056 80.6698 85.5708 80.6698 83.9028ZM117.145 75.2531C117.178 75.3802 117.195 75.5231 117.195 75.682C117.195 76.0315 117.111 76.6431 116.944 77.5167C116.794 78.3905 116.719 79.0417 116.719 79.4708C116.719 79.6931 116.727 79.8997 116.744 80.0903C116.66 80.3761 116.585 80.7733 116.518 81.2816C116.652 81.917 116.727 82.1633 116.744 82.0203C116.694 82.1156 116.619 82.2347 116.518 82.3778C116.518 82.5366 116.569 82.9894 116.669 83.7359C116.251 84.1172 115.875 84.3078 115.541 84.3078C115.408 84.3078 115.257 84.2125 115.091 84.0219C115.241 83.0847 115.291 82.5048 115.241 82.2825C115.191 82.0283 115.091 81.6708 114.94 81.2102C114.606 80.5112 113.988 79.7408 113.086 78.8989C112.736 78.5811 111.917 78.1602 110.631 77.6359C110.481 77.5724 109.938 77.4612 109.003 77.3023C108.402 77.207 107.517 77.1594 106.348 77.1594C103.041 77.1594 100.444 77.9933 98.5566 79.6614C98.3227 79.7725 97.9888 80.0188 97.5545 80.4C96.1015 82.3062 95.2749 84.1728 95.0743 85.9997C94.9908 86.7622 94.9491 88.017 94.9491 89.7645V91.3372C94.9491 91.2417 95.0661 91.6628 95.2998 92.6C95.3166 93.0925 95.4001 93.7597 95.5504 94.6016C95.6505 94.681 95.8176 94.9192 96.0514 95.3164C96.0681 95.5228 96.1265 95.793 96.2267 96.1266C96.4606 96.4284 96.8196 96.8811 97.304 97.4847C97.3708 97.6753 97.4877 97.9455 97.6547 98.295C98.4062 99.5975 99.567 100.678 101.137 101.536C101.838 101.917 102.531 102.187 103.216 102.346C106.506 103.076 108.619 103.442 109.554 103.442C109.988 103.442 110.414 103.394 110.832 103.299C111.032 103.267 111.324 103.172 111.709 103.013C111.792 102.393 111.834 102.084 111.834 102.084C111.834 101.861 111.725 101.71 111.508 101.631C111.207 101.536 111.007 101.408 110.907 101.25C110.74 100.995 110.732 100.503 110.882 99.7722C110.882 99.7722 110.882 98.5094 110.882 95.9836C110.782 95.0622 110.64 94.3394 110.456 93.8153C110.356 93.7358 110.222 93.5849 110.055 93.3625C109.771 92.5206 109.162 91.9805 108.226 91.7422C107.842 91.6469 107.024 91.5833 105.771 91.5516C105.721 91.5198 105.646 91.4642 105.546 91.3847V90.7653C105.963 90.6381 106.648 90.5747 107.6 90.5747C107.667 90.5747 108.251 90.6222 109.354 90.7175C110.456 90.797 111.041 90.8367 111.107 90.8367C111.191 90.8367 111.333 90.805 111.533 90.7414C111.734 90.662 111.884 90.6144 111.984 90.5984C113.003 90.5189 113.571 90.4792 113.688 90.4792C116.042 90.4792 117.044 90.4872 116.694 90.5031V91.5278C116.694 91.5753 116.619 91.7422 116.468 92.0281C116.285 92.3617 116.176 92.592 116.143 92.7191C115.859 93.8153 115.692 94.9272 115.642 96.055C115.575 97.4847 115.541 98.4697 115.541 99.0097C115.541 100.106 115.667 101.615 115.917 103.537C115.149 103.918 113.137 104.427 109.88 105.062C109.613 105.046 109.203 105.062 108.652 105.11C107.901 105.269 107.375 105.348 107.074 105.348C106.991 105.348 106.865 105.324 106.698 105.277C106.531 105.229 106.414 105.205 106.348 105.205C104.627 105.126 103.199 104.991 102.064 104.8C101.629 104.641 100.987 104.443 100.135 104.204C98.448 103.887 96.5859 102.87 94.5483 101.154C92.4273 99.3592 91.1247 97.6356 90.6403 95.9836C90.4899 95.6183 90.298 95.0702 90.0641 94.3395C89.9306 94.1011 89.7551 93.7438 89.5381 93.2672C89.3376 92.4888 89.2374 91.8295 89.2374 91.2895C89.2374 91.3372 89.2791 91.0433 89.3626 90.4078C89.4462 89.8677 89.4546 89.4864 89.3877 89.2641C89.3209 89.0099 89.2875 88.7398 89.2875 88.4539C89.2875 87.9138 89.4295 87.1433 89.7134 86.1425C90.0474 84.9036 90.2478 84.0695 90.3146 83.6406C91.9513 80.8289 92.945 79.4231 93.2958 79.4231C93.3626 79.4231 93.4126 79.4548 93.4461 79.5183C93.4795 79.5661 93.5379 79.5898 93.6214 79.5898C93.9053 79.5898 94.1308 79.5263 94.2978 79.3992C94.3646 79.2086 94.4982 78.9464 94.6987 78.6128C96.2518 76.9767 97.1954 76.1586 97.5295 76.1586C97.613 76.1586 97.6714 76.1745 97.7047 76.2062C97.7382 76.238 97.7883 76.2539 97.8551 76.2539C97.9219 76.2539 98.0972 76.1506 98.3811 75.9441C98.6818 75.7217 98.8738 75.6106 98.9573 75.6106C99.0241 75.6106 99.1161 75.6423 99.2329 75.7058C99.3666 75.7694 99.4668 75.8011 99.5335 75.8011C99.617 75.8011 100.36 75.6344 101.763 75.3008C103.166 74.9672 103.909 74.8003 103.993 74.8003H110.431C110.514 74.8003 111.283 74.8798 112.736 75.0386C114.189 75.1817 114.957 75.2531 115.04 75.2531C115.074 75.2531 115.366 75.2531 115.917 75.2531C116.485 75.2531 116.894 75.2531 117.145 75.2531ZM143.675 97.1989C143.625 98.0249 143.515 99.1925 143.348 100.702C143.149 101.115 142.898 101.694 142.597 102.441C142.53 102.759 142.405 103.204 142.221 103.775C142.154 103.95 141.937 104.244 141.57 104.657C141.136 105.165 140.784 105.419 140.518 105.419H134.13C134.013 105.419 133.261 105.396 131.875 105.348C130.489 105.3 129.737 105.277 129.62 105.277H125.762C125.662 105.277 125.144 105.229 124.209 105.134C123.291 105.054 122.773 105.014 122.656 105.014H118.873L118.548 104.681C118.731 104.458 119.458 103.982 120.727 103.251C121.596 102.727 122.03 102.092 122.03 101.345V93.8153C122.03 92.592 122.23 90.9478 122.631 88.8828C122.414 88.2474 122.372 87.4531 122.506 86.5C122.205 86.2617 122.055 85.9281 122.055 85.4992C122.055 85.4675 122.222 84.8161 122.556 83.5453C122.573 83.4341 122.489 83.2117 122.305 82.8781C122.072 82.4811 121.946 82.2745 121.93 82.2586C121.813 81.925 121.763 81.4008 121.779 80.6859C121.779 79.7011 121.779 79.1609 121.779 79.0656C121.729 78.5255 121.612 78.0886 121.428 77.755C121.178 77.2944 120.769 76.9291 120.201 76.6589C119.7 76.4525 119.199 76.238 118.698 76.0156C118.932 75.4914 119.182 75.2134 119.45 75.1816C119.967 75.2452 120.71 75.2611 121.679 75.2292C122.748 74.9911 123.266 74.8719 123.232 74.8719H127.666C127.733 74.8719 128.234 74.9275 129.169 75.0386C130.121 75.1499 130.839 75.2134 131.324 75.2292C131.524 75.2292 133.194 75.1261 136.334 74.9195C137.052 74.8719 138.931 74.9195 141.97 75.0625C142.238 75.2372 142.372 75.4517 142.372 75.7058C142.372 75.8489 142.314 76.0553 142.197 76.3253C142.095 76.5955 142.046 76.794 142.046 76.9211C142.028 77.4453 141.853 79.1769 141.52 82.1156C141.47 82.2109 141.228 82.3619 140.793 82.5683C140.693 82.4095 140.384 81.5597 139.866 80.0188C139.532 79.018 138.915 78.47 138.013 78.3747C137.645 78.2952 137.269 78.2158 136.885 78.1364C136.367 78.0251 135.967 78.0092 135.683 78.0886C134.948 78.2952 133.353 78.3189 130.898 78.1602C129.545 78.0648 128.526 78.0886 127.842 78.2316C127.641 78.2792 127.508 78.462 127.441 78.7797C128.042 80.6383 128.067 82.2825 127.516 83.7122C127.549 83.6167 127.566 84.0139 127.566 84.9036C127.566 85.1259 127.524 85.5866 127.441 86.2855C127.357 86.8575 127.341 87.3181 127.391 87.6675C127.407 87.8264 127.566 88.033 127.867 88.2872H137.311C137.612 88.1917 137.904 88.0964 138.188 88.0011C138.656 87.8423 138.981 87.5961 139.165 87.2625C139.332 86.8495 139.641 86.2775 140.092 85.5469C140.626 85.5469 140.968 85.7216 141.119 86.0711C141.052 86.9766 140.985 88.1362 140.918 89.55C140.901 90.4872 140.784 91.8614 140.568 93.6722C140.501 93.9423 140.167 94.0297 139.566 93.9344C139.349 93.5531 138.965 93.0528 138.413 92.4333C137.395 91.7025 136.468 91.3372 135.633 91.3372H132.176C131.959 91.3372 131.533 91.2974 130.898 91.218C130.263 91.1386 129.787 91.0989 129.47 91.0989C128.585 91.0989 128.025 91.345 127.792 91.8375C127.524 92.3935 127.391 92.8224 127.391 93.1242C127.391 93.4102 127.449 93.9503 127.566 94.7445C127.683 95.5388 127.733 96.1503 127.716 96.5792C127.7 96.8017 127.616 97.2227 127.466 97.8422C127.332 98.4458 127.265 98.9224 127.265 99.2719C127.265 99.5419 127.299 99.7881 127.366 100.011C127.483 100.392 127.934 100.852 128.719 101.393C129.52 101.933 130.205 102.242 130.773 102.322C130.856 102.354 130.94 102.385 131.023 102.417C131.19 102.465 131.341 102.489 131.474 102.489H135.633C136.568 102.489 137.353 102.346 137.988 102.06C138.873 101.679 139.733 101.043 140.568 100.154C141.487 99.1686 141.979 98.2314 142.046 97.3417C142.48 97.0717 143.023 97.0241 143.675 97.1989ZM176.617 104.3C176.483 104.474 176.266 104.689 175.966 104.943C175.215 105.34 174.672 105.539 174.337 105.539H171.331C170.312 105.539 169.552 105.499 169.051 105.419C168.684 105.292 168.124 105.11 167.373 104.871C166.738 104.681 165.628 103.728 164.041 102.012C163.907 101.869 163.256 100.844 162.087 98.9383C161.034 97.2067 160.208 95.7533 159.606 94.5778C159.457 94.133 159.19 93.5611 158.805 92.8622C158.639 92.6874 158.221 92.6239 157.553 92.6714C157.135 92.7191 156.709 92.7667 156.276 92.8145C155.724 92.7827 154.906 92.7747 153.82 92.7906C153.703 92.7906 153.561 92.8859 153.394 93.0766C153.461 93.6961 153.545 95.642 153.645 98.9145C153.662 99.5499 153.795 100.384 154.045 101.416C154.045 101.702 154.129 102.123 154.296 102.679C154.647 103.251 155.214 103.664 155.999 103.918C156.635 104.093 157.269 104.268 157.903 104.443C157.92 104.617 157.903 104.824 157.853 105.062C157.369 105.253 156.876 105.348 156.375 105.348H153.745C153.712 105.348 153.487 105.308 153.069 105.229C152.652 105.149 152.351 105.11 152.167 105.11C151.648 105.11 150.839 105.149 149.737 105.229C148.651 105.308 148.108 105.348 148.108 105.348H145.579C145.328 105.348 145.027 105.277 144.676 105.134C144.676 105.086 144.651 104.991 144.601 104.848C144.568 104.705 144.551 104.601 144.551 104.538C145.419 104.316 145.953 104.157 146.154 104.061C146.773 103.791 147.273 103.331 147.658 102.679C147.825 102.393 147.941 101.663 148.008 100.487C148.008 100.296 148.067 99.8041 148.184 99.0097C148.283 98.2791 148.333 97.7231 148.333 97.3417C148.333 95.1814 148.35 94.0138 148.383 93.8391C148.435 93.6644 148.593 93.3784 148.859 92.9812C148.742 92.87 148.593 92.6556 148.409 92.3378C148.325 92.052 148.283 91.6469 148.283 91.1227V88.7161C148.283 88.7001 148.259 88.4539 148.208 87.9773C148.225 88.168 148.301 87.1195 148.435 84.832C148.417 84.8003 148.376 84.7447 148.309 84.6653C148.125 84.0458 148.134 83.2276 148.333 82.2109C148.4 81.925 148.292 80.9719 148.008 79.3516C147.991 78.8433 147.842 78.1761 147.557 77.35C147.19 76.9211 146.714 76.6511 146.129 76.5398C145.628 76.4286 145.135 76.3253 144.651 76.23C144.651 75.3247 144.627 75.1339 144.577 75.6583C144.609 75.4041 144.776 75.2689 145.077 75.2531C145.762 75.2214 146.855 75.1499 148.359 75.0386C149.746 74.9116 150.455 74.8481 150.488 74.8481H153.72C154.322 74.8481 154.939 74.8003 155.573 74.705C156.209 74.6097 156.752 74.5622 157.202 74.5622C157.769 74.5622 158.479 74.6097 159.331 74.705C159.866 74.8163 160.651 74.9751 161.686 75.1816C161.787 75.2452 161.953 75.3167 162.187 75.3961C163.791 75.6344 165.21 76.3572 166.446 77.5644C167.131 78.2475 167.741 79.4548 168.275 81.1864C168.291 81.4405 168.317 81.8138 168.35 82.3062C168.384 82.7034 168.35 83.2991 168.25 84.0933C168.033 85.7772 167.616 87.0481 166.997 87.9058C166.43 88.7001 165.335 89.8122 163.715 91.2417C163.699 91.5753 163.765 91.8692 163.916 92.1234C164.968 94.0456 166.019 95.9677 167.073 97.8898C168.325 99.9708 169.845 101.742 171.632 103.204C171.781 103.331 172.4 103.537 173.486 103.823C174.137 103.982 174.689 104.022 175.139 103.942C175.807 103.815 176.283 103.767 176.567 103.799C176.6 103.91 176.617 104.077 176.617 104.3ZM162.888 83.9028C162.888 83.3786 162.847 83.0291 162.763 82.8542C161.928 80.7416 161.218 79.3913 160.634 78.8036C159.833 77.9775 158.939 77.4533 157.953 77.2308C157.302 77.0878 156.25 77.0481 154.796 77.1117C154.647 77.1276 154.413 77.215 154.095 77.3739C153.829 80.1061 153.662 82.3142 153.595 83.998C153.678 84.1251 153.762 84.3078 153.846 84.5461C153.846 84.7685 153.77 85.6739 153.619 87.2625C153.519 88.3109 153.545 89.3594 153.695 90.4078C153.745 90.4555 153.812 90.5269 153.896 90.6222H156.375C156.659 90.6858 156.96 90.7175 157.278 90.7175C158.262 90.7175 159.206 90.4237 160.108 89.8359C161.027 89.2323 161.586 88.7398 161.787 88.3586C162.521 87.056 162.888 85.5708 162.888 83.9028ZM194.93 97.3417C194.93 97.6913 194.729 98.3823 194.329 99.4148C193.944 100.431 193.66 101.059 193.476 101.297C192.691 102.203 191.856 102.997 190.971 103.68C190.486 104.045 189.852 104.347 189.067 104.586C187.046 105.189 185.135 105.491 183.331 105.491C183.364 105.491 183.047 105.475 182.379 105.443C181.777 105.396 181.336 105.38 181.05 105.396C181.102 105.539 181.126 105.261 181.126 104.562C180.708 104.181 180.157 103.99 179.473 103.99C179.222 103.99 178.988 104.093 178.772 104.3C178.804 104.331 179.055 104.443 179.523 104.633C179.423 104.919 179.222 105.062 178.921 105.062C178.605 105.062 177.895 104.935 176.792 104.681C175.356 104.347 174.312 103.966 173.661 103.537C173.51 103.442 173.343 102.806 173.159 101.631C173.025 100.694 172.96 99.5419 172.96 98.1758C172.96 96.9367 173.025 95.928 173.159 95.1497C173.244 95.1655 173.51 95.1337 173.962 95.0542C174.094 95.2131 174.154 95.515 174.137 95.9597C174.12 96.5317 174.111 96.8097 174.111 96.7938C174.196 97.175 174.321 97.7389 174.488 98.4855C174.505 98.5967 174.73 98.9462 175.163 99.5339C175.414 99.9152 175.866 100.439 176.517 101.107C177.067 101.52 177.811 101.837 178.746 102.06C179.248 102.203 179.748 102.354 180.25 102.512C180.884 102.687 181.41 102.775 181.827 102.775C181.994 102.87 182.119 102.918 182.203 102.918C182.27 102.918 182.37 102.902 182.504 102.87C182.638 102.838 182.738 102.822 182.805 102.822C182.888 102.822 183.205 102.886 183.757 103.013C184.308 103.124 184.616 103.18 184.683 103.18C184.75 103.18 184.908 103.092 185.159 102.918C185.427 102.727 185.627 102.616 185.761 102.584C186.228 102.489 186.914 102.354 187.814 102.179C188.283 102.084 188.658 101.655 188.942 100.892C189.058 100.686 189.227 100.384 189.443 99.9867C189.443 99.8755 189.46 99.7008 189.493 99.4625C189.527 99.3513 189.627 99.1528 189.794 98.8667C189.961 98.5808 190.045 98.3981 190.045 98.3188C190.045 97.7311 189.969 97.2306 189.819 96.8175C189.735 96.5634 189.393 95.9995 188.792 95.1258C188.608 94.9986 188.342 94.8161 187.99 94.5778C186.537 93.4658 185.135 92.6953 183.781 92.2664C183.415 92.0599 182.88 91.7819 182.178 91.4325C181.343 91.0989 179.999 90.3839 178.145 89.2878C178.012 89.2403 177.82 89.1608 177.569 89.0497C177.067 88.6525 176.55 88.1361 176.015 87.5008C175.247 86.5794 174.83 86.087 174.763 86.0234C174.763 85.8011 174.747 85.4675 174.713 85.0227C174.613 84.8638 174.471 84.6017 174.287 84.2364C174.287 83.9028 174.263 83.442 174.213 82.8542C174.312 82.7272 174.362 82.6161 174.362 82.5208C174.178 82.1077 174.087 81.9091 174.087 81.925C174.087 81.9567 174.263 81.5834 174.613 80.805C174.663 80.4556 174.78 79.9791 174.964 79.3753C175.031 79.2325 175.472 78.7797 176.292 78.0172C176.675 78.1919 176.851 78.2792 176.818 78.2792C176.868 78.0728 176.967 77.8106 177.119 77.493C178.655 76.095 180.066 75.2372 181.351 74.9195C182.404 74.6653 183.815 74.5383 185.585 74.5383C185.669 74.5383 186.512 74.6256 188.115 74.8003C189.718 74.9751 190.562 75.0625 190.646 75.0625C190.713 75.0625 191.079 75.0228 191.748 74.9433C192.433 74.8481 192.817 74.8003 192.901 74.8003C193.368 74.8003 193.602 74.9911 193.602 75.3722L193.226 79.3039V81.3769C193.226 81.4087 193.21 81.6867 193.176 82.2109C193.143 82.7352 193.126 83.1164 193.126 83.3547C193.109 83.3547 193.05 83.3864 192.95 83.45C192.866 83.5136 192.784 83.5453 192.7 83.5453H192.124C192.074 83.037 191.966 82.3142 191.798 81.3769C191.28 79.5025 190.203 78.2872 188.567 77.7312C187.714 77.4453 186.22 77.3023 184.082 77.3023C183.681 77.3023 182.997 77.4612 182.028 77.7789C181.193 78.0489 180.399 78.74 179.648 79.8519C179.38 80.2491 179.248 80.678 179.248 81.1386C179.248 81.8853 179.506 82.7828 180.024 83.8312C180.241 84.0219 180.542 84.2839 180.925 84.6175C182.078 85.7136 183.79 86.7065 186.061 87.5961C189.653 88.994 192.148 90.5349 193.552 92.2188C194.069 92.8383 194.42 93.5611 194.604 94.3872C194.82 95.3561 194.93 96.3411 194.93 97.3417Z" fill="#390E00"/>
</svg>
