<svg width="238" height="122" viewBox="0 0 238 122" fill="none" xmlns="http://www.w3.org/2000/svg">
<path fill-rule="evenodd" clip-rule="evenodd" d="M186.365 48.8282V52.1969C186.365 53.6388 185.817 55.0152 184.836 56.0911C184.836 56.8115 184.833 57.5302 184.788 58.249C184.689 59.8079 184.39 61.3636 183.584 62.7415C181.984 65.4731 179.074 66.4222 175.949 66.4222H134.413C131.288 66.4222 128.377 65.4731 126.778 62.7415C125.582 60.6972 125.525 58.3686 125.525 56.0911C124.544 55.0152 123.996 53.6388 123.996 52.1969V47.8598C123.799 47.6745 123.618 47.4728 123.458 47.2563C123.224 46.9407 123.034 46.5984 122.89 46.2384C122.266 44.6768 122.542 42.9327 123.653 41.7207C123.181 39.7228 124.339 37.8727 125.761 36.4665V34.4802C125.761 29.9761 127.142 25.7873 130.048 22.217C143.631 5.52878 184.601 9.743 184.601 34.4802V35.7713C184.856 35.9478 185.108 36.1272 185.359 36.308C187.309 37.7216 188.372 40.0903 187.453 42.3588C187.4 42.4903 187.34 42.6191 187.276 42.7443C188.298 44.0762 188.392 45.8978 187.557 47.4218C187.369 47.7642 187.138 48.0825 186.868 48.3695C186.712 48.5353 186.545 48.6879 186.365 48.8282ZM181.762 56.4513H128.598C128.598 56.9862 128.603 57.5229 128.64 58.0564C128.711 59.1833 128.905 60.413 129.523 61.3964C130.567 63.0538 132.516 63.4557 134.415 63.4557H175.95C177.849 63.4557 179.797 63.0538 180.842 61.3964C181.721 60.0005 181.764 58.0579 181.765 56.4513H181.762ZM128.824 35.9463H181.536V34.4802C181.536 8.71786 128.824 8.71786 128.824 34.4802V35.9463ZM155.839 43.5067C156.883 43.3719 157.573 42.3886 158.025 41.5727L158.056 41.5128L158.11 41.4682C158.441 41.1768 158.799 40.9093 159.188 40.6927C158.214 40.3011 157.218 39.9485 156.229 39.6108L153.499 38.6781L156.395 38.8514C158.717 38.9892 161.286 39.3177 163.268 40.5731C163.688 40.7403 164.096 40.9347 164.501 41.1305C165.162 41.4503 165.856 41.7984 166.576 41.978C168.423 42.4367 170.751 42.8385 172.614 42.2228C173.107 42.0585 173.542 41.8345 173.984 41.5729C174.212 41.4384 174.435 41.2978 174.665 41.1662C173.81 40.8333 172.942 40.5266 172.075 40.2309L169.345 39.2984L172.239 39.4702C174.391 39.5971 176.733 39.8871 178.64 40.9151C178.722 40.944 178.805 40.9721 178.886 41.0034L178.948 41.026L178.996 41.0663C179.988 41.8464 181.336 42.5845 182.67 42.4967C183.462 42.4443 184.218 42.0736 184.551 41.3577C184.742 40.9467 184.752 40.494 184.611 40.068C184.424 39.5016 183.997 39.0353 183.509 38.681C183.167 38.4331 182.822 38.1911 182.473 37.955H128.608C128.004 38.4616 127.378 39.0742 126.982 39.7334C126.738 40.1396 126.529 40.6597 126.671 41.132C126.765 41.4442 126.997 41.6818 127.271 41.8657C128.24 42.5159 129.242 42.7342 130.411 42.607C131.333 42.5085 132.218 42.2185 133.106 41.9555C132.282 41.6356 131.446 41.3415 130.614 41.0572L127.883 40.1247L130.778 40.2966C132.915 40.4237 135.236 40.7091 137.135 41.7193C137.491 41.8585 137.817 42.0511 138.113 42.2844L138.117 42.2871L138.122 42.2917C138.74 42.8057 139.65 43.4588 140.529 43.2138C141.099 43.0554 141.656 42.5413 142.084 42.1648C142.74 41.5863 143.37 41.0455 144.184 40.6717C146.108 39.6019 148.492 39.3058 150.677 39.176L153.573 39.0039L150.841 39.9366C150.167 40.1666 149.493 40.4026 148.826 40.6538C149.33 40.8211 149.823 41.0245 150.296 41.2455C150.862 41.51 151.412 41.8014 151.959 42.0976C152.45 42.3619 152.94 42.6326 153.442 42.8774C154.134 43.2154 155.039 43.6082 155.837 43.5068L155.839 43.5067ZM127.267 46.1249L153.326 45.037C153.051 44.9262 152.783 44.8037 152.521 44.6752C151.465 44.1611 150.462 43.5529 149.398 43.0553C148.824 42.7863 148.224 42.5398 147.604 42.3828L145.067 42.4904C144.961 42.5384 144.856 42.5921 144.755 42.6502C144.631 42.7252 144.51 42.8044 144.393 42.8894C144.121 43.0852 143.866 43.3047 143.615 43.5259C142.857 44.1925 142.159 44.8368 141.145 45.131C139.499 45.6123 138.011 44.8396 136.795 43.8324C136.538 43.6336 136.273 43.5155 135.942 43.4797C134.916 43.369 133.107 44.0848 132.069 44.3421C129.917 44.8724 127.993 44.7754 126.129 43.541C125.537 44.0131 125.56 44.9516 125.991 45.5343L126.007 45.5555L126.039 45.5959L126.05 45.6078L126.082 45.6453L126.098 45.6616L126.119 45.6857L126.121 45.6871L126.127 45.6928L126.137 45.7077L126.153 45.7241C126.328 45.8978 126.545 46.0172 126.79 46.0784L126.822 46.0875L126.843 46.0919L126.848 46.0932C126.875 46.0978 126.896 46.1024 126.921 46.1066H126.922C126.949 46.1115 126.971 46.1144 126.999 46.1172H127.004C127.031 46.1201 127.058 46.1221 127.084 46.123L127.089 46.1247C127.116 46.126 127.146 46.126 127.174 46.126H127.178C127.204 46.1275 127.235 46.126 127.263 46.1247L127.267 46.1249ZM159.48 43.1389L183.222 46.8213C183.407 46.8496 183.596 46.851 183.782 46.8155C183.896 46.7928 184.005 46.757 184.109 46.7093L184.112 46.7078L184.122 46.7031L184.134 46.6973L184.155 46.6882L184.176 46.6761L184.181 46.6719L184.186 46.6691L184.198 46.6613H184.201L184.216 46.6508L184.232 46.6422L184.248 46.633L184.269 46.6211L184.302 46.5984L184.323 46.5835L184.355 46.561L184.376 46.5446L184.403 46.5225L184.424 46.5029L184.451 46.4804L184.473 46.4581L184.494 46.4356L184.52 46.4116L184.541 46.3895L184.568 46.3626L184.584 46.3429L184.611 46.3117L184.627 46.2921L184.654 46.2594L184.669 46.2396L184.675 46.2339C185.174 45.5614 185.141 44.5513 184.337 44.1477C183.886 44.3345 183.403 44.4498 182.912 44.4915C181.289 44.6318 179.726 44.0206 178.413 43.1495L175.945 42.7668C175.607 42.9359 175.286 43.1525 174.961 43.3423C174.346 43.7023 173.716 43.9985 173.023 44.2015C170.796 44.8547 168.265 44.472 166.054 43.922C165.175 43.7038 164.372 43.3153 163.566 42.9253C162.903 42.6055 162.002 42.1408 161.246 42.1437C160.644 42.1465 160.137 42.4321 159.689 42.7908C159.621 42.909 159.548 43.024 159.474 43.1391L159.48 43.1389ZM157.171 45.3283C156.575 46.3803 155.478 46.9571 154.243 47.0094L127.36 48.1318C127.224 48.1377 127.089 48.1362 126.954 48.1272L126.927 48.4576C127.215 48.8464 127.578 49.1047 128.065 49.2571C128.494 49.3903 128.964 49.426 129.413 49.4455C130.222 49.4825 131.092 49.4648 131.845 49.7875C132.359 50.009 132.744 50.3585 133.023 50.8233C133.353 51.3718 133.841 51.7948 134.517 51.8798C135.154 51.9606 135.797 51.7228 136.305 51.3689C137.39 50.6126 138.812 49.6995 140.124 49.3619C140.944 49.1497 141.724 49.1676 142.469 49.5858C143.141 49.9627 143.635 50.5662 144.229 51.0386C144.936 51.6004 145.642 51.8469 146.568 51.8469C148.01 51.8469 149.16 51.5466 150.46 50.9786C151.027 50.7306 151.583 50.4557 152.148 50.197C152.783 49.9071 153.424 49.6425 154.094 49.4303C156.018 48.8163 158.162 48.5248 160.177 48.3547C162.551 48.1541 164.954 48.1123 167.337 48.1333C170.686 48.163 174.026 48.3321 177.373 48.4785C178.674 48.5367 179.979 48.5937 181.282 48.607L181.645 48.6099L157.758 44.9053C157.597 45.0067 157.428 45.098 157.254 45.1756C157.227 45.228 157.2 45.2789 157.173 45.3283H157.171ZM160.309 50.2225C158.397 50.3838 156.396 50.6469 154.572 51.2283C153.36 51.6154 152.244 52.2146 151.087 52.7212C149.598 53.3728 148.214 53.7194 146.567 53.7194C145.291 53.7194 144.244 53.3563 143.263 52.5777C142.943 52.3236 142.652 52.0413 142.351 51.7647C142.155 51.5855 141.939 51.3926 141.704 51.2611C141.319 51.0444 140.933 51.0775 140.516 51.1851C139.404 51.4718 138.122 52.3178 137.195 52.9649C135.288 54.295 132.92 53.9811 131.714 51.974C131.593 51.7723 131.448 51.6303 131.225 51.5347C130.731 51.3225 129.885 51.3418 129.342 51.3181C128.458 51.2777 127.612 51.158 126.874 50.7592V52.1969C126.874 53.044 127.226 53.8451 127.845 54.4443H182.515C183.135 53.8451 183.485 53.044 183.485 52.1969V50.4318C182.75 50.4961 181.996 50.4885 181.263 50.4812C179.942 50.4662 178.623 50.4093 177.301 50.3512C173.977 50.2048 170.65 50.0372 167.321 50.0074C164.984 49.9868 162.64 50.0251 160.309 50.2225Z" fill="#390E00"/>
<path d="M29.9769 6.15958C29.9378 6.39432 29.8924 6.67541 29.8405 7.00283V9.15265C29.808 9.15265 29.7496 9.16192 29.6651 9.18045C29.5807 9.19898 29.5223 9.20825 29.4898 9.20825C29.4768 9.15883 29.4248 8.79125 29.3339 8.10553C29.2818 7.71017 29.0903 7.40746 28.7591 7.19742C28.6162 7.09857 28.2784 7.10475 27.746 7.21595C27.4796 7.24066 27.0964 7.29936 26.5963 7.39201C26.421 7.44762 26.3105 7.55263 26.2651 7.70708C26.1546 8.10244 26.1417 8.67388 26.226 9.42139C26.317 10.1689 26.2943 11.1975 26.1579 12.5071C26.1579 12.5009 26.2001 12.9272 26.2846 13.7859C26.2585 14.0825 26.2521 14.5272 26.2651 15.1203C26.3365 15.4353 26.4404 15.9141 26.5768 16.5566C26.6417 16.8654 26.8594 17.0632 27.2295 17.1497C27.5283 17.2176 27.827 17.2824 28.1259 17.3442C28.1259 17.4369 28.0511 17.5727 27.9017 17.752H22.3778C22.326 17.752 22.3 17.7149 22.3 17.6408C22.3 17.6222 22.3032 17.5727 22.3097 17.4925C22.5111 17.4493 22.8065 17.3597 23.1963 17.2238C23.5339 17.0509 23.784 16.8439 23.9464 16.6028C23.9918 16.5349 24.0373 16.2569 24.0827 15.7689C24.1088 14.9164 24.1413 14.0238 24.1802 13.0909V9.75497H24.4433C24.4563 9.74879 24.4789 9.72099 24.5114 9.67158C24.4205 9.46772 24.3101 9.17427 24.1802 8.79126C24.1673 8.71712 24.1152 8.24453 24.0243 7.37348H22.2221C22.0337 7.37348 21.7998 7.47233 21.5206 7.67001C21.2413 7.8677 21.0887 8.02832 21.0627 8.15187C20.9263 8.70168 20.7932 9.0816 20.6632 9.29164C20.5984 9.39667 20.4522 9.44917 20.2249 9.44917C20.2249 9.42446 20.2119 9.34725 20.186 9.21751C20.1664 9.10631 20.1632 9.02601 20.1761 8.97659C20.2541 8.7233 20.3288 8.33102 20.4003 7.79975C20.4847 7.15727 20.5497 6.72483 20.5951 6.50244C20.5951 6.50244 20.699 6.3727 20.9068 6.11325C20.712 6.0947 21.3063 6.08544 22.6897 6.08544C23.0924 6.08544 23.7028 6.11941 24.5213 6.18737C25.346 6.25532 25.7422 6.28931 25.7097 6.28931H27.3173C27.3107 6.28931 27.5055 6.25841 27.9017 6.19664C28.3304 6.13487 28.7428 6.0947 29.139 6.07617C29.2884 6.05764 29.4378 6.03911 29.5871 6.02058C29.7821 6.00204 29.9119 6.04837 29.9769 6.15958ZM43.5868 6.16884C43.5868 6.23679 43.5477 6.29856 43.4699 6.35417C43.197 6.42212 42.9633 6.51479 42.7685 6.63217C42.658 6.70012 42.5249 6.84221 42.369 7.05842C42.2196 7.27465 42.145 7.43834 42.145 7.54955C42.145 8.10553 42.1514 8.32485 42.1643 8.20747C42.1125 8.35573 42.054 8.57195 41.989 8.85612C41.989 8.93025 42.0312 9.2484 42.1157 9.81057C42.1417 10.0021 42.1546 10.2523 42.1546 10.5612C42.1546 10.9256 42.132 11.3704 42.0864 11.8955C42.0475 12.4145 42.028 12.6554 42.028 12.6183V13.9897C42.028 15.386 42.2001 16.3527 42.5443 16.8902C42.6093 16.9951 42.7522 17.1033 42.973 17.2145C43.1939 17.3256 43.3821 17.3874 43.538 17.3998C43.4991 17.4616 43.4276 17.5543 43.3237 17.6778H38.774C38.774 17.6408 38.7644 17.5852 38.7448 17.5111C38.7255 17.4307 38.7156 17.3751 38.7156 17.3442C38.8586 17.2824 39.0631 17.1898 39.3294 17.0662C39.5308 16.9736 39.7191 16.6893 39.8945 16.2137C40.0439 15.7998 40.1185 15.4754 40.1185 15.2408V13.8878C40.1185 13.7952 40.0957 13.5419 40.0503 13.128C40.0179 12.8129 40.0179 12.5596 40.0503 12.3681C40.0764 12.226 40.0211 11.9851 39.8847 11.6453C39.5664 11.8677 39.0859 12.0345 38.4428 12.1457C38.1051 12.2075 37.8129 12.2199 37.5661 12.1828C37.2283 12.1272 37.0498 12.0994 37.0302 12.0994H34.5751C34.4258 12.1797 34.2342 12.328 34.0004 12.5442C33.903 12.6924 33.8705 12.9025 33.903 13.1743C33.9549 13.2793 34.0133 13.4307 34.0783 13.6284C34.0588 13.5419 34.0361 13.7117 34.0102 14.138C34.0036 14.1689 34.0264 14.6538 34.0783 15.5928C34.1303 16.606 34.4973 17.1744 35.1793 17.2978C35.2052 17.3041 35.3449 17.3536 35.5981 17.4461C35.3773 17.6747 35.1272 17.789 34.8479 17.789C34.7701 17.789 34.6759 17.7797 34.5654 17.7612C34.4356 17.7427 34.3544 17.7334 34.3219 17.7334L30.4834 17.6778C30.4899 17.5666 30.6393 17.4555 30.9316 17.3442C31.2758 17.2084 31.5388 17.0075 31.7207 16.7419C31.8571 16.5381 31.948 16.155 31.9935 15.5928C32.0455 15.006 32.0519 14.5055 32.013 14.0917C31.9871 14.0422 31.948 13.9743 31.8961 13.8878C31.8896 13.4122 31.9188 12.7048 31.9838 11.7658C31.9902 11.7349 32.026 11.6361 32.091 11.4693C32.1494 11.3272 32.1753 11.2098 32.1689 11.1171C32.0974 11.0121 32.0064 10.8299 31.8961 10.5704C31.9155 10.6446 31.9383 10.4407 31.9643 9.95884C31.9708 9.85999 31.9578 9.71482 31.9253 9.52331C31.8993 9.3318 31.8863 9.22369 31.8863 9.19898V7.70708C31.8863 7.50939 31.7402 7.27156 31.4479 6.99356C31.1556 6.71556 30.8666 6.53332 30.5809 6.44684C30.5874 6.43447 30.6588 6.32946 30.7952 6.13178C31.0291 6.1256 31.3928 6.10397 31.8863 6.06691C32.3539 6.02984 32.5974 6.01131 32.617 6.01131H34.468C34.5525 6.01131 34.6401 6.00204 34.731 5.98351C34.822 5.96498 34.8837 5.9557 34.9162 5.9557C35.046 5.9557 35.2735 6.07617 35.5981 6.31711C35.3708 6.42212 35.1435 6.53023 34.9162 6.64142C34.6368 6.78351 34.4323 6.94104 34.3024 7.11403C34.0946 7.38584 33.9907 7.89549 33.9907 8.643V10.626C33.9907 10.6631 34.0004 10.7032 34.0199 10.7465C34.0394 10.7897 34.0491 10.8237 34.0491 10.8484C34.3544 10.9781 34.6142 11.043 34.8285 11.043H38.6961C38.8325 11.0616 39.0339 11.1017 39.3002 11.1635C39.3066 11.1635 39.3944 11.2006 39.5632 11.2747C39.6931 11.3303 39.7937 11.3581 39.8653 11.3581C39.9107 11.3581 39.9497 11.3519 39.9821 11.3395C40.1899 11.1048 40.2938 10.8206 40.2938 10.487C40.2938 10.3202 40.2582 10.0793 40.1867 9.76423C40.1153 9.44917 40.0828 9.22987 40.0893 9.10631C40.0893 9.00748 40.0698 8.81288 40.0309 8.52253C39.9854 8.18276 39.9593 7.94182 39.9529 7.79975C39.9204 7.20051 39.4399 6.66614 38.5111 6.19664C38.6344 6.07308 38.7286 6.01131 38.7936 6.01131H40.2452C40.1607 6.01131 40.4302 6.00513 41.0537 5.99278C41.5994 5.97425 42.0183 5.97116 42.3106 5.98351C42.6029 6.02675 43.0283 6.08853 43.5868 6.16884ZM54.1181 14.6662C54.0987 14.9874 54.0564 15.4415 53.9915 16.0284C53.9136 16.189 53.8161 16.4144 53.6992 16.7048C53.6733 16.8284 53.6245 17.0014 53.553 17.2238C53.5271 17.2917 53.4427 17.406 53.2997 17.5666C53.1309 17.7643 52.9945 17.8631 52.8906 17.8631H50.4063C50.3608 17.8631 50.0686 17.8539 49.5295 17.8353C48.9905 17.8169 48.6982 17.8075 48.6528 17.8075H47.1524C47.1135 17.8075 46.9121 17.789 46.5484 17.752C46.1912 17.721 45.9899 17.7056 45.9444 17.7056H44.4734L44.3467 17.5759C44.4181 17.4894 44.7007 17.3041 45.1942 17.02C45.532 16.8161 45.7008 16.569 45.7008 16.2786V13.3504C45.7008 12.8747 45.7788 12.2353 45.9346 11.4322C45.8502 11.1851 45.834 10.8762 45.886 10.5056C45.769 10.4129 45.7105 10.2832 45.7105 10.1164C45.7105 10.104 45.7755 9.85073 45.9054 9.35651C45.9119 9.31327 45.8794 9.22678 45.808 9.09705C45.7171 8.94262 45.6684 8.8623 45.6618 8.85612C45.6163 8.72639 45.597 8.52253 45.6034 8.24453C45.6034 7.86152 45.6034 7.65148 45.6034 7.61442C45.584 7.40437 45.5385 7.23448 45.467 7.10475C45.3696 6.9256 45.2104 6.78351 44.9897 6.6785C44.7947 6.59818 44.5999 6.51479 44.4051 6.4283C44.496 6.22444 44.5935 6.11632 44.6974 6.10397C44.8988 6.12869 45.1878 6.13487 45.5645 6.12251C45.98 6.02984 46.1814 5.98351 46.1684 5.98351H47.8929C47.9188 5.98351 48.1136 6.00513 48.4773 6.04837C48.8476 6.09163 49.1269 6.11632 49.3152 6.12251C49.3931 6.12251 50.0426 6.08235 51.2636 6.00204C51.543 5.98351 52.2736 6.00204 53.4557 6.05764C53.5595 6.1256 53.6116 6.20899 53.6116 6.30784C53.6116 6.36344 53.5888 6.44374 53.5433 6.54876C53.5044 6.65379 53.4849 6.731 53.4849 6.78042C53.4783 6.98429 53.4102 7.65766 53.2802 8.80053C53.2608 8.83759 53.1666 8.89628 52.9978 8.97659C52.9588 8.91481 52.8386 8.5843 52.6373 7.98507C52.5074 7.59589 52.2671 7.38275 51.9163 7.34569C51.7735 7.3148 51.6273 7.2839 51.478 7.25303C51.2766 7.20977 51.1207 7.2036 51.0104 7.23448C50.7245 7.3148 50.1043 7.32406 49.1496 7.26228C48.6235 7.22522 48.2274 7.23448 47.961 7.29009C47.883 7.30862 47.8312 7.37966 47.8051 7.50322C48.0389 8.226 48.0486 8.86539 47.8344 9.42139C47.8474 9.38431 47.8538 9.53875 47.8538 9.8847C47.8538 9.97118 47.8376 10.1503 47.8051 10.4222C47.7727 10.6446 47.7662 10.8237 47.7857 10.9596C47.7921 11.0214 47.8538 11.1017 47.9708 11.2006H51.6436C51.7604 11.1635 51.8742 11.1264 51.9846 11.0893C52.1665 11.0276 52.293 10.9318 52.3646 10.8021C52.4294 10.6415 52.5495 10.4191 52.725 10.1349C52.9328 10.1349 53.066 10.2028 53.1245 10.3388C53.0984 10.6909 53.0724 11.1419 53.0465 11.6917C53.0399 12.0562 52.9945 12.5905 52.9101 13.2948C52.884 13.3998 52.7542 13.4338 52.5203 13.3967C52.436 13.2484 52.2866 13.0538 52.0723 12.8129C51.6761 12.5287 51.3157 12.3867 50.9909 12.3867H49.6464C49.562 12.3867 49.3964 12.3712 49.1496 12.3403C48.9027 12.3094 48.7176 12.294 48.5943 12.294C48.25 12.294 48.0325 12.3897 47.9415 12.5813C47.8376 12.7975 47.7857 12.9643 47.7857 13.0816C47.7857 13.1928 47.8084 13.4029 47.8538 13.7117C47.8993 14.0207 47.9188 14.2585 47.9122 14.4253C47.9058 14.5118 47.8733 14.6755 47.8149 14.9164C47.7629 15.1512 47.737 15.3365 47.737 15.4724C47.737 15.5774 47.7499 15.6732 47.7759 15.7597C47.8213 15.908 47.9968 16.0871 48.302 16.2972C48.6137 16.5071 48.8801 16.6277 49.1008 16.6586C49.1333 16.6709 49.1658 16.6832 49.1983 16.6956C49.2633 16.7141 49.3217 16.7234 49.3736 16.7234H50.9909C51.3546 16.7234 51.6598 16.6678 51.9067 16.5566C52.2508 16.4083 52.5853 16.1612 52.9101 15.8153C53.2672 15.4322 53.4589 15.0678 53.4849 14.7219C53.6538 14.6168 53.8648 14.5983 54.1181 14.6662Z" fill="#390E00"/>
<path d="M29.0096 57.3675C29.043 57.8759 28.9512 58.5431 28.734 59.3691C28.4501 60.3222 28.1078 61.7598 27.7069 63.682C27.423 65.5564 26.9804 66.5097 26.3792 66.5414C25.7111 66.5572 25.0014 66.5494 24.2498 66.5175C23.2644 66.4699 22.3877 66.4461 21.6194 66.4461C19.8324 66.4461 18.4045 66.4222 17.3357 66.3745C16.2668 66.3269 15.8326 66.3031 16.0329 66.3031C15.2313 66.3031 14.2376 66.3428 13.0518 66.4222C12.9516 66.4064 12.8264 66.3667 12.676 66.3031C12.3587 66.2236 10.6886 66.1839 7.66576 66.1839H3.08134C3.03123 66.1839 2.88092 66.1522 2.6304 66.0886C2.37989 66.041 2.18784 66.0172 2.05423 66.0172C2.12103 65.7312 2.21288 65.342 2.3298 64.8495C2.69721 64.7861 3.20659 64.6589 3.85793 64.4683C4.52597 64.1664 5.0437 63.6423 5.41113 62.8956C5.61153 62.705 5.82864 62.4191 6.06246 62.0378C6.07915 61.7995 6.02906 61.4263 5.91215 60.918C5.81194 60.4097 5.76184 60.0363 5.76184 59.798C5.92886 59.8298 6.31298 59.5836 6.9142 59.0594C6.8808 59.0117 6.7472 58.7575 6.51338 58.2969C6.49668 58.265 6.36307 58.2412 6.11256 58.2253C5.77854 57.9394 5.85369 57.4947 6.33803 56.891C6.62193 56.5414 6.76389 56.0728 6.76389 55.4851C6.76389 55.1356 6.6971 54.6511 6.56349 54.0316C6.44658 53.3962 6.38812 52.9911 6.38812 52.8164C6.38812 52.7369 6.42988 52.6019 6.51338 52.4113C6.59689 52.2206 6.63864 52.0936 6.63864 52.03V49.814C6.63864 49.7664 6.68875 49.5836 6.78895 49.266C6.88915 48.9483 6.94761 48.702 6.96431 48.5273C6.96431 48.4478 6.88915 48.1381 6.73885 47.598C6.75554 47.6456 6.7973 47.328 6.86411 46.6449C6.8808 46.4861 6.85576 46.2795 6.78895 46.0253C6.70545 45.7077 6.66369 45.4853 6.66369 45.3581C6.64699 45.1358 6.68875 44.7069 6.78895 44.0714C6.88915 43.3725 6.94761 42.9197 6.96431 42.7133C6.96431 42.4431 6.93926 42.0222 6.88915 41.4503C6.83906 40.8784 6.814 40.5847 6.814 40.5687V38.2812C6.814 38.1859 6.86411 38.0589 6.96431 37.9C6.96431 37.9 6.9142 37.05 6.814 35.3503C6.76389 34.6514 6.7806 34.1113 6.86411 33.73C6.9142 33.5236 6.93926 33.3091 6.93926 33.0867C6.93926 32.6578 6.84741 32.1336 6.66369 31.514C6.51338 31.0375 6.36307 30.553 6.21277 30.0605C6.19607 30.0287 6.20442 29.5998 6.23781 28.7738C6.23781 28.7897 6.17937 27.0503 6.06246 23.5555C6.01235 23.3013 5.93721 22.9041 5.83699 22.364C5.83699 22.3481 5.87875 22.0305 5.96225 21.4109C5.97895 21.2997 5.93721 21.117 5.83699 20.8628C5.73679 20.5928 5.67834 20.4101 5.66164 20.3148C5.67834 20.4101 5.75349 19.9494 5.8871 18.9328C5.61988 18.4403 5.12721 17.7811 4.40906 16.955C4.20864 16.812 3.89133 16.7247 3.4571 16.693C2.90597 16.6453 2.57196 16.6056 2.45505 16.5738C2.37154 16.4625 2.37154 16.2561 2.45505 15.9542C2.53855 15.6683 2.65546 15.4856 2.80577 15.4062C3.50721 15.3586 3.84123 15.3347 3.80783 15.3347C5.21071 15.43 7.34008 15.5412 10.196 15.6683C10.9141 15.7 11.2064 15.716 11.0727 15.716C13.7282 15.4459 14.9974 15.3109 14.8806 15.3109H18.488C18.5214 15.6286 18.4295 16.0178 18.2124 16.4784C17.6278 16.5897 16.7511 16.7486 15.582 16.955C14.4798 17.1298 13.6698 17.9081 13.152 19.2902C13.0184 19.6873 12.8681 20.4261 12.7011 21.5062C12.5007 23.063 12.4005 24.167 12.4005 24.8183V48.718C12.4005 48.7814 12.4172 48.9562 12.4506 49.2422C12.484 49.5281 12.5007 49.7187 12.5007 49.814C12.5508 50.783 12.5508 51.6408 12.5007 52.3875C12.4339 53.4677 12.5758 54.0555 12.9266 54.1508C12.9099 54.1031 12.8681 54.5955 12.8013 55.6281C12.7846 55.6281 12.7429 55.6598 12.676 55.7234C13.127 57.7408 13.3524 58.9084 13.3524 59.2261C13.1186 59.5597 12.8681 60.0998 12.6009 60.8464C12.5842 61.037 12.8096 61.7042 13.2773 62.848C13.9286 62.8798 14.9056 62.9513 16.2082 63.0625C16.4421 63.0942 16.8012 63.2848 17.2855 63.6344C17.369 63.5231 17.5443 63.3325 17.8115 63.0625C18.2291 63.0466 18.8137 63.0783 19.5652 63.1578C20.3835 63.2214 20.9765 63.2531 21.3439 63.2531C21.4106 63.2531 21.561 63.1816 21.7948 63.0386C22.0285 62.9116 22.204 62.8322 22.3208 62.8003C22.7718 62.7209 23.4315 62.562 24.2999 62.3238C24.4836 62.2603 24.7926 61.9267 25.2269 61.323C25.8615 60.4652 26.1787 60.0363 26.1787 60.0363C27.1474 58.9084 27.6234 57.8997 27.6067 57.0101C27.9408 57.0736 28.4084 57.1928 29.0096 57.3675ZM7.39019 30.0128C7.37349 29.6158 7.36514 29.1789 7.36514 28.7023C7.36514 28.2416 7.38184 27.5427 7.41523 26.6055C7.44864 25.6681 7.46534 24.9692 7.46534 24.5086C7.46534 22.4594 7.20647 20.839 6.68874 19.6476C6.58854 19.8223 6.57184 20.1639 6.63864 20.6722C6.68874 21.0375 6.73885 21.403 6.78895 21.7683C6.85576 23.7699 7.05616 26.5181 7.39019 30.0128ZM49.4015 39.3773C49.4015 40.2828 49.3765 40.9738 49.3263 41.4503C49.1593 41.8158 48.984 42.3797 48.8003 43.1422C48.7669 43.9047 48.5915 44.7148 48.2741 45.5726C48.0069 45.8903 47.6145 46.4066 47.0968 47.1214C46.9631 47.598 46.5957 48.2811 45.9944 49.1706C45.5102 49.6314 44.7754 50.3461 43.79 51.3152C43.6397 51.3628 43.4475 51.4423 43.2138 51.5534C42.9966 51.7441 42.6126 52.0222 42.0614 52.3875C39.3225 53.7695 36.7171 54.5558 34.2454 54.7464H30.9386C30.9719 54.7464 30.9051 54.6988 30.7382 54.6034C28.9344 54.5558 27.5816 54.3175 26.6798 53.8886C26.4459 53.841 26.1287 53.7616 25.7278 53.6503C25.0598 53.3961 24.0578 52.9434 22.7217 52.2922C21.1184 51.3231 19.6153 49.957 18.2124 48.1937C17.4274 47.2089 16.7344 45.938 16.1331 44.3812C15.5653 42.9356 15.248 41.7203 15.1811 40.7355C15.0643 39.0517 15.1311 37.3995 15.3816 35.7792C15.4818 35.5728 15.6154 35.2789 15.7824 34.8976C15.8826 34.4211 16.058 33.73 16.3086 32.8245C16.676 32.2686 17.1602 31.4584 17.7615 30.3941C17.845 30.2194 17.8868 30.0128 17.8868 29.7745C17.9703 29.6951 18.1373 29.7189 18.3877 29.8461C18.4712 29.6236 18.4712 29.3059 18.3877 28.893C18.6049 28.8294 18.9139 28.6944 19.3146 28.4878C19.4483 28.1542 19.7655 27.7492 20.2666 27.2726C21.2687 26.7642 22.7802 26.0177 24.8009 25.0328C25.3186 24.7945 25.9783 24.588 26.78 24.4133C28.8175 23.9684 30.2038 23.7461 30.9386 23.7461H32.8926C34.4124 23.7461 35.715 23.8811 36.8006 24.1511C37.3851 24.31 38.6712 24.7548 40.6585 25.4855C41.0761 25.7397 41.7358 26.1367 42.6376 26.6769C43.9402 27.4712 45.1261 28.5594 46.1949 29.9414C47.1468 31.1805 47.7648 32.3242 48.0486 33.3726C48.1823 33.5473 48.3493 33.8095 48.5497 34.1589C48.9171 35.112 49.1259 36.5259 49.1761 38.4003C49.1761 38.4639 49.2094 38.6148 49.2763 38.8531C49.3598 39.0755 49.4015 39.2502 49.4015 39.3773ZM43.84 39.9969C43.6897 37.9953 43.2805 36.1684 42.6126 34.5164C41.7607 32.3877 40.7587 30.7117 39.6063 29.4886C37.9697 27.773 36.1827 26.7642 34.2454 26.4625C32.4082 26.1765 31.1474 26.0812 30.4626 26.1765C29.1265 26.3353 27.9908 26.6134 27.0556 27.0105C26.9386 27.0581 26.1787 27.4791 24.7759 28.2734C24.6924 28.4322 24.5421 28.6228 24.325 28.8453C24.1913 28.877 24.041 28.9247 23.8741 28.9883C23.5401 29.4013 23.1225 29.9572 22.6214 30.6562C22.5547 30.8469 22.4461 31.1169 22.2958 31.4664C22.0454 31.8476 21.778 32.3003 21.4941 32.8245C21.3439 33.4123 21.11 34.2939 20.7927 35.4695C20.8095 35.9142 20.8011 36.5894 20.7677 37.4949C20.7677 37.5425 20.7342 37.6458 20.6675 37.8047C20.6007 37.9636 20.5756 38.0747 20.5923 38.1383C20.8261 39.1708 21.1602 40.6005 21.5943 42.4273C21.5443 42.5544 21.5109 42.7053 21.4941 42.88C21.6111 43.1025 21.778 43.4042 21.9952 43.7855C22.0119 43.992 22.062 44.262 22.1455 44.5956C22.8469 45.93 23.2144 46.6131 23.2478 46.6449C23.7488 47.4709 24.4335 48.2572 25.302 49.0039C25.3186 49.0197 25.4272 49.3453 25.6276 49.9808C25.6945 49.9967 25.9783 50.0444 26.4794 50.1238C27.2977 50.8386 27.9241 51.3231 28.3582 51.5773C29.5941 52.2763 31.832 52.4908 35.0721 52.2206C35.3393 52.1412 35.69 52.038 36.1243 51.9109C36.6754 51.7997 37.4686 51.5376 38.5041 51.1245C38.7379 50.9181 39.0468 50.6719 39.431 50.3859C41.101 49.4011 42.0948 48.1858 42.4122 46.7402C42.5792 46.5495 42.7796 46.2795 43.0133 45.93C43.0468 45.6283 43.0968 45.2708 43.1637 44.8578C43.2638 44.7625 43.364 44.6116 43.4642 44.405C43.4977 44.0397 43.5812 43.2453 43.7148 42.0222C43.8318 41.0373 43.8735 40.3622 43.84 39.9969ZM80.4652 53.7219C80.3317 53.8966 80.1145 54.1111 79.8139 54.3652C79.0625 54.7623 78.5196 54.9609 78.1856 54.9609H75.1795C74.1607 54.9609 73.4008 54.9212 72.8997 54.8417C72.5323 54.7147 71.9729 54.532 71.2213 54.2937C70.5867 54.1031 69.4761 53.15 67.8894 51.4344C67.7559 51.2914 67.1045 50.2667 65.9354 48.3605C64.8832 46.6289 64.0566 45.1755 63.4554 44C63.305 43.5552 63.0378 42.9833 62.6537 42.2844C62.4867 42.1097 62.0691 42.0461 61.4012 42.0937C60.9836 42.1414 60.5577 42.189 60.1235 42.2367C59.5724 42.205 58.7541 42.197 57.6684 42.2128C57.5515 42.2128 57.4096 42.3081 57.2426 42.4988C57.3094 43.1183 57.3929 45.0642 57.4931 48.3367C57.5098 48.9722 57.6435 49.8061 57.8939 50.8386C57.8939 51.1245 57.9774 51.5455 58.1444 52.1015C58.4951 52.6734 59.0631 53.0864 59.8479 53.3406C60.4826 53.5153 61.1173 53.69 61.7519 53.8648C61.7686 54.0395 61.7519 54.2461 61.7017 54.4844C61.2175 54.675 60.7248 54.7703 60.2237 54.7703H57.5933C57.5599 54.7703 57.3345 54.7306 56.9169 54.6511C56.4994 54.5717 56.1988 54.532 56.0151 54.532C55.4973 54.532 54.6873 54.5717 53.5851 54.6511C52.4995 54.7306 51.9567 54.7703 51.9567 54.7703H49.4265C49.1761 54.7703 48.8754 54.6988 48.5246 54.5558C48.5246 54.5081 48.4996 54.4128 48.4495 54.2699C48.4162 54.1269 48.3994 54.0236 48.3994 53.9601C49.2679 53.7377 49.8023 53.5789 50.0027 53.4836C50.6206 53.2136 51.1217 52.7528 51.5058 52.1015C51.6728 51.8156 51.7897 51.0848 51.8565 49.9094C51.8565 49.7187 51.9149 49.2263 52.0319 48.432C52.1321 47.7013 52.1821 47.1453 52.1821 46.764C52.1821 44.6036 52.199 43.4361 52.2323 43.2613C52.2823 43.0866 52.4411 42.8006 52.7083 42.4034C52.5913 42.2923 52.4411 42.0778 52.2574 41.7601C52.1739 41.4742 52.1321 41.0691 52.1321 40.5449V38.1383C52.1321 38.1223 52.107 37.8761 52.0569 37.3995C52.0737 37.5902 52.1488 36.5417 52.2823 34.2542C52.2657 34.2225 52.2239 34.1669 52.1572 34.0875C51.9735 33.468 51.9818 32.6498 52.1821 31.6331C52.249 31.3472 52.1404 30.3941 51.8565 28.7738C51.8398 28.2655 51.6895 27.5983 51.4056 26.7722C51.0382 26.3433 50.5622 26.0733 49.9777 25.962C49.4766 25.8509 48.984 25.7476 48.4996 25.6523C48.4996 24.7469 48.4746 24.5562 48.4245 25.0805C48.4579 24.8263 48.6248 24.6912 48.9255 24.6753C49.6102 24.6436 50.7041 24.5722 52.2072 24.4609C53.5935 24.3339 54.3032 24.2703 54.3367 24.2703H57.5682C58.1695 24.2703 58.7874 24.2226 59.422 24.1273C60.0567 24.032 60.5995 23.9844 61.0504 23.9844C61.6182 23.9844 62.3281 24.032 63.1797 24.1273C63.7142 24.2386 64.4991 24.3973 65.5347 24.6039C65.6348 24.6675 65.8019 24.7389 66.0356 24.8183C67.6389 25.0566 69.0585 25.7794 70.2944 26.9867C70.9792 27.6697 71.5887 28.877 72.1231 30.6086C72.1398 30.8627 72.1649 31.2361 72.1984 31.7284C72.2317 32.1256 72.1984 32.7214 72.098 33.5156C71.881 35.1994 71.4634 36.4703 70.8455 37.3281C70.2777 38.1223 69.1838 39.2344 67.5638 40.664C67.5471 40.9976 67.614 41.2914 67.7642 41.5456C68.8164 43.4678 69.8685 45.39 70.9207 47.312C72.1733 49.3931 73.6931 51.1642 75.4801 52.6258C75.6304 52.7528 76.2484 52.9594 77.3339 53.2453C77.9852 53.4041 78.5363 53.4439 78.9872 53.3644C79.6553 53.2373 80.1313 53.1897 80.4152 53.2214C80.4486 53.3327 80.4652 53.4994 80.4652 53.7219ZM66.7371 33.325C66.7371 32.8008 66.6953 32.4513 66.6118 32.2765C65.7768 30.1638 65.0669 28.8136 64.4825 28.2258C63.6808 27.3997 62.7873 26.8755 61.8019 26.6531C61.1506 26.5101 60.0984 26.4703 58.6455 26.5339C58.4951 26.5498 58.2614 26.6372 57.944 26.7961C57.6768 29.5283 57.5098 31.7364 57.4429 33.4203C57.5265 33.5473 57.61 33.73 57.6935 33.9683C57.6935 34.1908 57.6184 35.0961 57.468 36.6847C57.3678 37.7331 57.3929 38.7816 57.5433 39.83C57.5933 39.8777 57.6601 39.9492 57.7437 40.0445H60.2237C60.5076 40.108 60.8083 40.1398 61.1255 40.1398C62.1109 40.1398 63.0545 39.8459 63.9564 39.2581C64.875 38.6545 65.4345 38.162 65.6348 37.7808C66.3697 36.4783 66.7371 34.993 66.7371 33.325ZM108.773 37.066C108.874 37.8761 108.79 39.3058 108.523 41.355C108.356 41.9905 108.114 42.9197 107.796 44.143C107.112 46.8434 105.868 48.9959 104.064 50.6003C103.362 51.2199 102.46 51.8394 101.358 52.4589C100.055 53.2056 99.0034 53.6106 98.2017 53.6742C98.1015 53.7377 97.9346 53.8092 97.7007 53.8886C95.2289 54.2381 94.0348 54.4128 94.1183 54.4128H77.8099C77.6762 53.8569 77.718 53.5074 77.935 53.3644C78.6365 53.1261 79.1209 53.007 79.3881 53.007C79.4883 52.88 79.6302 52.7052 79.8139 52.4828C80.5989 51.7044 80.9914 50.8466 80.9914 49.9094C80.9914 49.8934 80.9412 49.6949 80.8411 49.3136C80.9079 49.1548 80.9579 48.9244 80.9914 48.6226C80.9246 48.4955 80.8411 48.297 80.7409 48.0269C80.7242 47.9316 80.7575 47.7569 80.8411 47.5027C80.9246 47.2327 80.9747 47.0341 80.9914 46.907C81.0248 46.3033 81.0414 45.3502 81.0414 44.0476V41.355C81.0248 39.5283 81.0414 36.8753 81.0916 33.3964C81.0916 33.3488 81.0498 33.2455 80.9663 33.0867C80.8828 32.9119 80.8411 32.7848 80.8411 32.7055C80.8411 32.4513 80.8828 32.062 80.9663 31.5378C81.0498 30.9978 81.0916 30.5927 81.0916 30.3226C81.0916 30.2591 81.0414 30.14 80.9412 29.9652C80.841 29.7905 80.7742 29.6475 80.7409 29.5363C80.7575 29.2345 80.7325 28.7738 80.6658 28.1542C80.3817 27.09 79.9559 26.4148 79.3881 26.1289C78.9205 25.9064 78.1189 25.7158 76.9832 25.557C76.9665 25.4617 76.9581 25.2552 76.9581 24.9375C77.6762 24.6039 78.3944 24.5086 79.1125 24.6515C79.1125 24.6515 79.1709 24.6992 79.2879 24.7945C79.4048 24.8739 79.505 24.9056 79.5885 24.8898C79.7053 24.8263 79.8473 24.7469 80.0143 24.6515C80.5654 24.6356 81.1167 24.6197 81.6678 24.6039C82.269 24.6197 82.7366 24.858 83.0707 25.3187C83.1207 25.3187 83.1792 25.3108 83.246 25.2949C83.3963 25.0566 83.6469 24.7469 83.9976 24.3656C84.3984 24.4291 84.9579 24.5086 85.676 24.6039C85.7094 24.6197 85.7762 24.5722 85.8764 24.4609C85.9933 24.3497 86.0936 24.2783 86.1771 24.2464C86.6947 24.0875 87.4714 24.0081 88.5068 24.0081H94.8699C97.6256 24.5959 99.5712 25.1281 100.707 25.6047C102.861 26.4942 104.632 27.8603 106.018 29.7031C106.302 30.0525 106.694 30.6164 107.195 31.3949C107.93 32.7769 108.456 34.6673 108.773 37.066ZM107.646 37.0422C105.609 36.915 104.172 36.8675 103.337 36.8992C103.204 36.8356 103.154 36.5656 103.187 36.089C102.886 35.39 102.41 34.3892 101.759 33.0867C100.874 31.3711 99.8969 30.0128 98.828 29.012C97.7592 27.9953 96.0223 27.2806 93.6174 26.8675C92.5317 26.6928 92.039 26.6055 92.1392 26.6055H89.559C89.4921 26.6055 89.033 26.6848 88.1811 26.8437C87.3293 26.9867 86.7615 27.0741 86.4777 27.1058C86.2438 28.2178 86.152 29.425 86.202 30.7277C86.2355 31.3472 86.2522 32.6101 86.2522 34.5164V43.9284C86.2522 43.9125 86.2271 44.1827 86.1771 44.7386C86.1436 45.2311 86.1436 45.5964 86.1771 45.8347C86.2605 46.7561 86.3022 47.1533 86.3022 47.0261C86.2522 47.6616 86.2438 48.1937 86.2773 48.6226C86.2773 48.718 86.3273 48.9324 86.4275 49.266C86.511 49.5361 86.5445 49.7425 86.5277 49.8855C86.511 49.9014 86.2355 50.0047 85.7011 50.1953C85.3169 50.3541 85.0832 50.5606 84.9996 50.8148C85.2835 51.0531 85.6593 51.1961 86.1269 51.2437C86.461 51.2597 86.7949 51.2675 87.129 51.2675C90.4859 51.6328 92.4315 51.8156 92.9659 51.8156C94.5526 51.8156 95.9555 51.5853 97.1746 51.1245C98.2434 50.7116 99.1203 50.1714 99.8049 49.5042C101.275 48.0905 102.252 46.3351 102.736 44.2383C102.97 43.2216 103.137 41.5298 103.237 39.1628C103.237 38.9722 103.087 38.7022 102.786 38.3527C102.753 38.1303 102.803 38.0033 102.936 37.9714C103.187 37.892 103.705 37.8047 104.49 37.7094C105.174 37.6458 106.151 37.5425 107.421 37.3995C107.571 37.2884 107.646 37.1692 107.646 37.0422Z" fill="#390E00"/>
<path d="M48.2519 66.0714C48.2519 66.4236 48.2422 66.6922 48.2227 66.8776C48.1577 67.0198 48.0895 67.2389 48.0181 67.5355C48.005 67.832 47.9369 68.1472 47.8135 68.4808C47.7096 68.6043 47.557 68.805 47.3556 69.083C47.3037 69.2683 47.1608 69.534 46.9269 69.88C46.7386 70.059 46.4529 70.3371 46.0697 70.7139C46.0112 70.7325 45.9364 70.7634 45.8455 70.8066C45.7611 70.8808 45.6118 70.9888 45.3974 71.1309C44.3323 71.6684 43.3191 71.9742 42.3579 72.0483H41.0718C41.0849 72.0483 41.0589 72.0298 40.9939 71.9927C40.2926 71.9742 39.7664 71.8815 39.4157 71.7147C39.3247 71.6961 39.2013 71.6652 39.0455 71.622C38.7857 71.5232 38.396 71.3471 37.8764 71.0939C37.2528 70.717 36.6684 70.1858 36.1228 69.5C35.8176 69.1171 35.5481 68.6228 35.3142 68.0174C35.0933 67.4552 34.97 66.9826 34.944 66.5997C34.8985 65.9448 34.9246 65.3023 35.0219 64.6722C35.061 64.5918 35.1128 64.4775 35.1778 64.3294C35.2167 64.1439 35.285 63.8753 35.3823 63.5231C35.5253 63.3069 35.7137 62.9919 35.9474 62.578C35.9799 62.51 35.9961 62.4297 35.9961 62.337C36.0286 62.3061 36.0936 62.3154 36.191 62.3648C36.2235 62.2783 36.2235 62.1548 36.191 61.9942C36.2755 61.9695 36.3956 61.9169 36.5515 61.8366C36.6034 61.7069 36.7268 61.5494 36.9216 61.3641C37.3114 61.1663 37.8992 60.876 38.685 60.493C38.8864 60.4003 39.1429 60.3201 39.4547 60.252C40.2471 60.079 40.7861 59.9926 41.0718 59.9926H41.8317C42.4229 59.9926 42.9294 60.0451 43.3515 60.1501C43.5789 60.2119 44.079 60.3849 44.8519 60.6691C45.0142 60.7679 45.2707 60.9223 45.6215 61.1324C46.1281 61.4412 46.5893 61.8644 47.0049 62.4019C47.3751 62.8837 47.6154 63.3286 47.7258 63.7363C47.7777 63.8042 47.8427 63.9062 47.9207 64.042C48.0636 64.4127 48.1447 64.9626 48.1642 65.6914C48.1642 65.7162 48.1772 65.7749 48.2031 65.8675C48.2356 65.954 48.2519 66.0221 48.2519 66.0714ZM46.0891 66.3123C46.0306 65.5339 45.8716 64.8235 45.6118 64.1811C45.2806 63.3532 44.8908 62.7015 44.4427 62.2258C43.8063 61.5586 43.1112 61.1663 42.3579 61.0489C41.6434 60.9378 41.1531 60.9008 40.8868 60.9378C40.3672 60.9996 39.9256 61.1076 39.5619 61.2622C39.5164 61.2806 39.2208 61.4443 38.6753 61.7533C38.6428 61.815 38.5844 61.8891 38.4999 61.9756C38.448 61.9879 38.3895 62.0065 38.3246 62.0312C38.1947 62.1918 38.0323 62.408 37.8374 62.6799C37.8115 62.754 37.7693 62.859 37.7107 62.995C37.6134 63.1433 37.5095 63.3192 37.3991 63.5231C37.3406 63.7516 37.2497 64.0946 37.1263 64.5517C37.1327 64.7247 37.1296 64.9872 37.1165 65.3394C37.1165 65.3578 37.1035 65.3981 37.0776 65.4598C37.0516 65.5216 37.0418 65.5648 37.0483 65.5895C37.1393 65.9912 37.2691 66.5471 37.438 67.2575C37.4186 67.307 37.4055 67.3657 37.3991 67.4336C37.4445 67.5201 37.5095 67.6375 37.5939 67.7858C37.6004 67.866 37.6198 67.9711 37.6523 68.1008C37.9251 68.6197 38.068 68.8854 38.081 68.8977C38.2758 69.219 38.5422 69.5247 38.8798 69.815C38.8864 69.8213 38.9285 69.9479 39.0065 70.195C39.0324 70.2012 39.1429 70.2197 39.3377 70.2506C39.6559 70.5286 39.8995 70.717 40.0684 70.8158C40.5491 71.0876 41.4194 71.1711 42.6794 71.0661C42.7833 71.0352 42.9197 70.9951 43.0886 70.9456C43.3029 70.9023 43.6113 70.8004 44.014 70.6398C44.105 70.5595 44.2251 70.4637 44.3745 70.3525C45.0239 69.9696 45.4104 69.4969 45.5338 68.9347C45.5988 68.8606 45.6768 68.7557 45.7677 68.6197C45.7807 68.5023 45.8 68.3634 45.8261 68.2027C45.865 68.1656 45.9041 68.1069 45.943 68.0267C45.956 67.8846 45.9884 67.5757 46.0405 67.1C46.0859 66.7169 46.1022 66.4545 46.0891 66.3123ZM57.0784 60.3355C57.1368 60.6259 57.1173 61.4444 57.02 62.7911C57.0134 62.8962 56.929 63.0196 56.7666 63.1617C56.7406 63.1679 56.6335 63.1711 56.4451 63.1711C56.4061 62.7324 56.3574 62.4235 56.299 62.2444C56.1756 61.8799 55.9612 61.6574 55.6559 61.5772C55.3572 61.4907 54.7012 61.4475 53.6881 61.4475H51.9929C51.6746 61.4475 51.5156 61.7408 51.5156 62.3278C51.5156 62.2536 51.548 62.578 51.6129 63.3008C51.6259 63.4552 51.6032 63.7084 51.5448 64.0606C51.4798 64.4498 51.4473 64.734 51.4473 64.9131C51.4473 65.1911 51.4994 65.4228 51.6032 65.6081H52.8892C52.9152 65.6081 53.0191 65.6266 53.201 65.6637C53.3892 65.6946 53.5063 65.71 53.5517 65.71H54.7987C55.2663 65.71 55.6722 65.4783 56.0165 65.015C56.0424 64.9224 56.0879 64.7927 56.1529 64.6258C56.2243 64.5703 56.3672 64.5456 56.5814 64.5517C56.6139 64.7432 56.6431 65.0213 56.6692 65.3858C56.6497 65.8305 56.5718 66.7108 56.4354 68.0267C56.4158 68.1996 56.2502 68.2738 55.9386 68.2491C55.8801 67.9957 55.8215 67.7425 55.7631 67.4892C55.6592 67.1742 55.471 66.9765 55.198 66.8961C55.0357 66.8529 54.6331 66.8313 53.9901 66.8313H52.5483C52.4833 66.8683 52.3274 66.8807 52.0805 66.8683C51.8598 66.856 51.7071 66.9053 51.6228 67.0166C51.6292 67.1649 51.6195 67.3841 51.5934 67.6745C51.587 67.7301 51.5383 67.9155 51.4473 68.2305C51.3759 68.4591 51.3467 68.6444 51.3597 68.7864C51.4052 68.8668 51.4506 68.9842 51.4961 69.1386C51.4961 69.2498 51.4831 69.4198 51.457 69.6483C51.4376 69.8769 51.4278 70.0467 51.4278 70.158C51.4278 70.6398 51.6033 71.0166 51.954 71.2884C51.9604 71.2946 52.4411 71.4738 53.3958 71.8259C53.2724 71.9679 53.1101 72.0421 52.9087 72.0483C53.2983 72.0421 53.1101 72.0298 52.3436 72.0112C51.7461 71.9988 51.0024 71.9679 50.1127 71.9186C49.6385 71.9 49.33 71.9031 49.1872 71.9278C49.1027 71.9773 48.9858 72.0329 48.8365 72.0947C48.8429 72.0947 48.5993 72.0452 48.1058 71.9464C48.1447 71.8352 48.2973 71.69 48.5637 71.5108C48.8299 71.3316 48.9891 71.1989 49.041 71.1124C49.2814 70.68 49.4015 70.2753 49.4015 69.8985V67.6745C49.4015 67.6807 49.3917 67.4676 49.3723 67.0351C49.3592 66.5965 49.3528 66.2661 49.3528 66.0436C49.3528 66.0745 49.3592 65.9663 49.3723 65.7192C49.3853 65.5463 49.382 65.3981 49.3625 65.2745C49.343 65.0954 49.2944 64.944 49.2164 64.8205C49.4437 64.5116 49.5573 64.1471 49.5573 63.727C49.5573 63.3069 49.4437 62.8281 49.2164 62.2906C49.2164 62.1795 49.2099 62.0312 49.1969 61.8459C49.1905 61.7408 49.1709 61.6543 49.1385 61.5864C49.0085 61.327 48.8169 61.083 48.5637 60.8544C48.4921 60.7864 48.3265 60.7401 48.0667 60.7153C48.0149 60.6474 47.9953 60.5208 48.0083 60.3355C47.9758 60.3355 48.4207 60.3262 49.343 60.3077C50.7784 60.2891 52.9671 60.2675 55.9093 60.2428C56.2015 60.2428 56.5913 60.2737 57.0784 60.3355ZM71.7794 60.3817C71.7405 60.6165 71.695 60.8977 71.643 61.225V63.3749C71.6105 63.3749 71.5521 63.3842 71.4677 63.4027C71.3832 63.4212 71.3248 63.4305 71.2923 63.4305C71.2793 63.381 71.2273 63.0135 71.1364 62.3278C71.0845 61.9324 70.8928 61.6297 70.5616 61.4197C70.4188 61.3209 70.081 61.327 69.5484 61.4381C69.2821 61.4629 68.899 61.5216 68.3988 61.6142C68.2235 61.6698 68.113 61.7748 68.0676 61.9292C67.9571 62.3247 67.9442 62.8962 68.0287 63.6436C68.1196 64.3911 68.0968 65.4197 67.9604 66.7294C67.9604 66.7232 68.0026 67.1495 68.0871 68.0081C68.0612 68.3047 68.0546 68.7494 68.0676 69.3425C68.139 69.6575 68.243 70.1363 68.3794 70.7788C68.4442 71.0876 68.6619 71.2854 69.0321 71.3719C69.3308 71.4398 69.6295 71.5046 69.9284 71.5664C69.9284 71.6591 69.8537 71.795 69.7044 71.9742H64.1805C64.1285 71.9742 64.1025 71.9372 64.1025 71.863C64.1025 71.8444 64.1058 71.795 64.1122 71.7147C64.3136 71.6715 64.6092 71.5819 64.9988 71.446C65.3366 71.2731 65.5865 71.0661 65.749 70.8251C65.7945 70.7572 65.8399 70.4791 65.8854 69.9911C65.9113 69.1386 65.9438 68.246 65.9827 67.3131V63.9772H66.2458C66.2588 63.971 66.2816 63.9432 66.3139 63.8938C66.223 63.69 66.1127 63.3965 65.9827 63.0135C65.9698 62.9394 65.9179 62.4667 65.827 61.5958H64.0246C63.8362 61.5958 63.6024 61.6946 63.3231 61.8922C63.0439 62.0899 62.8913 62.2505 62.8652 62.3741C62.7288 62.9239 62.5957 63.3038 62.4659 63.5139C62.4009 63.6189 62.2547 63.6714 62.0274 63.6714C62.0274 63.6467 62.0144 63.5695 61.9885 63.4397C61.9689 63.3286 61.9657 63.2482 61.9788 63.1988C62.0566 62.9455 62.1314 62.5532 62.2028 62.022C62.2872 61.3794 62.3522 60.947 62.3976 60.7247C62.3976 60.7247 62.5015 60.595 62.7094 60.3355C62.5145 60.3169 63.1088 60.3077 64.4922 60.3077C64.8949 60.3077 65.5054 60.3416 66.3238 60.4097C67.1486 60.4776 67.5448 60.5115 67.5123 60.5115H69.1198C69.1132 60.5115 69.3082 60.4807 69.7044 60.4189C70.1329 60.3571 70.5453 60.3169 70.9415 60.2984C71.0909 60.2799 71.2404 60.2614 71.3897 60.2428C71.5846 60.2242 71.7144 60.2706 71.7794 60.3817ZM85.3893 60.3911C85.3893 60.459 85.3504 60.5208 85.2724 60.5764C84.9996 60.6443 84.7658 60.737 84.571 60.8544C84.4605 60.9223 84.3274 61.0644 84.1715 61.2806C84.0221 61.4968 83.9474 61.6606 83.9474 61.7717C83.9474 62.3278 83.954 62.5471 83.967 62.4297C83.915 62.578 83.8565 62.7942 83.7915 63.0783C83.7915 63.1525 83.8337 63.4706 83.9182 64.0328C83.9442 64.2243 83.9571 64.4746 83.9571 64.7834C83.9571 65.1479 83.9345 65.5926 83.889 66.1178C83.85 66.6367 83.8306 66.8776 83.8306 66.8405V68.212C83.8306 69.6082 84.0026 70.575 84.3469 71.1124C84.4118 71.2174 84.5547 71.3255 84.7756 71.4367C84.9964 71.5478 85.1848 71.6097 85.3405 71.622C85.3016 71.6838 85.2302 71.7765 85.1262 71.9H80.5767C80.5767 71.863 80.5669 71.8074 80.5475 71.7333C80.5279 71.6529 80.5181 71.5973 80.5181 71.5664C80.6611 71.5046 80.8657 71.412 81.1319 71.2884C81.3333 71.1958 81.5216 70.9116 81.697 70.4359C81.8463 70.022 81.921 69.6976 81.921 69.463V68.11C81.921 68.0174 81.8984 67.7641 81.8529 67.3502C81.8204 67.0351 81.8204 66.7819 81.8529 66.5903C81.8788 66.4482 81.8237 66.2074 81.6873 65.8675C81.3691 66.09 80.8884 66.2567 80.2453 66.368C79.9077 66.4297 79.6154 66.442 79.3686 66.405C79.0308 66.3494 78.8523 66.3216 78.8327 66.3216H76.3778C76.2284 66.4019 76.0367 66.5502 75.803 66.7664C75.7055 66.9147 75.673 67.1247 75.7055 67.3966C75.7575 67.5015 75.816 67.6529 75.8808 67.8506C75.8614 67.7641 75.8386 67.9339 75.8127 68.3603C75.8061 68.3912 75.8289 68.876 75.8808 69.815C75.9328 70.8282 76.2998 71.3966 76.9817 71.5201C77.0077 71.5263 77.1473 71.5758 77.4006 71.6684C77.1798 71.8969 76.9297 72.0112 76.6505 72.0112C76.5726 72.0112 76.4784 72.002 76.3679 71.9834C76.2381 71.965 76.1569 71.9556 76.1244 71.9556L72.286 71.9C72.2924 71.7889 72.4419 71.6777 72.7341 71.5664C73.0784 71.4306 73.3413 71.2297 73.5232 70.9641C73.6596 70.7603 73.7505 70.3772 73.796 69.815C73.848 69.2282 73.8545 68.7278 73.8155 68.3139C73.7895 68.2644 73.7505 68.1965 73.6986 68.11C73.6921 67.6344 73.7213 66.927 73.7863 65.988C73.7928 65.9571 73.8285 65.8583 73.8934 65.6914C73.9519 65.5494 73.978 65.432 73.9714 65.3394C73.9 65.2343 73.8091 65.0522 73.6986 64.7927C73.7181 64.8667 73.7408 64.6628 73.7667 64.1811C73.7733 64.0823 73.7603 63.9371 73.7278 63.7455C73.7019 63.554 73.6889 63.446 73.6889 63.4212V61.9292C73.6889 61.7316 73.5427 61.4938 73.2504 61.2158C72.9583 60.9378 72.6692 60.7556 72.3834 60.6691C72.3899 60.6566 72.4613 60.5517 72.5977 60.3539C72.8316 60.3478 73.1953 60.3262 73.6889 60.2891C74.1565 60.252 74.4001 60.2336 74.4196 60.2336H76.2706C76.355 60.2336 76.4426 60.2242 76.5335 60.2058C76.6246 60.1872 76.6862 60.178 76.7187 60.178C76.8486 60.178 77.0759 60.2984 77.4006 60.5394C77.1733 60.6443 76.946 60.7525 76.7187 60.8636C76.4395 61.0057 76.2348 61.1632 76.105 61.3362C75.8971 61.6081 75.7932 62.1177 75.7932 62.8652V64.8483C75.7932 64.8853 75.803 64.9254 75.8224 64.9687C75.8419 65.0119 75.8516 65.0459 75.8516 65.0706C76.1569 65.2003 76.4167 65.2653 76.631 65.2653H80.4987C80.6351 65.2838 80.8365 65.324 81.1027 65.3858C81.1093 65.3858 81.1969 65.4228 81.3658 65.4969C81.4956 65.5525 81.5964 65.5803 81.6678 65.5803C81.7132 65.5803 81.7521 65.5741 81.7846 65.5617C81.9926 65.3271 82.0965 65.0428 82.0965 64.7092C82.0965 64.5425 82.0607 64.3015 81.9893 63.9864C81.9178 63.6714 81.8854 63.4521 81.8918 63.3286C81.8918 63.2298 81.8723 63.0351 81.8334 62.7447C81.7879 62.405 81.762 62.164 81.7554 62.022C81.7229 61.4227 81.2424 60.8883 80.3136 60.4189C80.437 60.2952 80.5312 60.2336 80.5961 60.2336H82.0477C81.9632 60.2336 82.2328 60.2273 82.8564 60.215C83.4019 60.1964 83.8208 60.1933 84.1131 60.2058C84.4053 60.249 84.8308 60.3107 85.3893 60.3911ZM95.9207 68.8884C95.9012 69.2097 95.859 69.6638 95.794 70.2506C95.716 70.4112 95.6187 70.6366 95.5017 70.927C95.4758 71.0506 95.427 71.2236 95.3556 71.446C95.3297 71.514 95.2452 71.6282 95.1022 71.7889C94.9335 71.9865 94.7971 72.0853 94.6931 72.0853H92.2089C92.1634 72.0853 91.8711 72.0761 91.332 72.0575C90.793 72.0391 90.5007 72.0297 90.4553 72.0297H88.955C88.9159 72.0297 88.7146 72.0112 88.3509 71.9742C87.9937 71.9433 87.7924 71.9278 87.7469 71.9278H86.2759L86.1492 71.7981C86.2206 71.7116 86.5032 71.5263 86.9967 71.2422C87.3345 71.0383 87.5033 70.7912 87.5033 70.5008V67.5725C87.5033 67.0969 87.5813 66.4575 87.7372 65.6544C87.6527 65.4073 87.6364 65.0984 87.6885 64.7278C87.5716 64.6351 87.513 64.5053 87.513 64.3386C87.513 64.3263 87.578 64.0729 87.708 63.5787C87.7144 63.5354 87.6819 63.4489 87.6105 63.3192C87.5196 63.1648 87.4708 63.0846 87.4644 63.0783C87.419 62.9486 87.3994 62.7447 87.406 62.4667C87.406 62.0838 87.406 61.8737 87.406 61.8366C87.3865 61.6265 87.341 61.4567 87.2696 61.327C87.1721 61.1478 87.0129 61.0057 86.7922 60.9008C86.5974 60.8204 86.4026 60.737 86.2076 60.6505C86.2985 60.4467 86.396 60.3385 86.4999 60.3262C86.7013 60.351 86.9903 60.3571 87.367 60.3447C87.7827 60.252 87.984 60.2058 87.9709 60.2058H89.6954C89.7213 60.2058 89.9161 60.2273 90.28 60.2706C90.6501 60.3138 90.9294 60.3385 91.1177 60.3447C91.1956 60.3447 91.8452 60.3046 93.0661 60.2242C93.3454 60.2058 94.0761 60.2242 95.2581 60.2799C95.362 60.3478 95.4141 60.4312 95.4141 60.53C95.4141 60.5856 95.3913 60.666 95.3458 60.771C95.3069 60.876 95.2874 60.9532 95.2874 61.0027C95.2809 61.2065 95.2127 61.8799 95.0828 63.0228C95.0633 63.0598 94.9691 63.1185 94.8002 63.1988C94.7613 63.137 94.6412 62.8065 94.4398 62.2073C94.31 61.8181 94.0696 61.605 93.7188 61.5678C93.576 61.5371 93.4298 61.5062 93.2805 61.4753C93.0791 61.432 92.9233 61.4258 92.8129 61.4567C92.5271 61.5371 91.9069 61.5463 90.9521 61.4845C90.426 61.4475 90.0298 61.4567 89.7636 61.5123C89.6857 61.5308 89.6337 61.6019 89.6077 61.7255C89.8414 62.4483 89.8513 63.0876 89.6369 63.6436C89.6499 63.6066 89.6565 63.761 89.6565 64.1069C89.6565 64.1934 89.6402 64.3726 89.6077 64.6444C89.5752 64.8667 89.5687 65.0459 89.5882 65.1819C89.5947 65.2436 89.6565 65.324 89.7733 65.4228H93.4461C93.5631 65.3858 93.6767 65.3486 93.7871 65.3116C93.969 65.2498 94.0957 65.1541 94.1671 65.0244C94.232 64.8637 94.3522 64.6413 94.5275 64.3572C94.7354 64.3572 94.8685 64.4251 94.9269 64.561C94.901 64.9131 94.8749 65.3641 94.849 65.9139C94.8426 66.2784 94.7971 66.8128 94.7126 67.517C94.6867 67.622 94.5567 67.6561 94.323 67.6189C94.2385 67.4706 94.0891 67.2761 93.8748 67.0351C93.4786 66.7509 93.1181 66.6089 92.7933 66.6089H91.449C91.3645 66.6089 91.1989 66.5934 90.9521 66.5625C90.7054 66.5316 90.5202 66.5162 90.3968 66.5162C90.0526 66.5162 89.835 66.612 89.7441 66.8034C89.6402 67.0198 89.5882 67.1865 89.5882 67.3039C89.5882 67.415 89.611 67.6251 89.6565 67.9339C89.7019 68.2429 89.7213 68.4808 89.7149 68.6475C89.7083 68.734 89.6758 68.8977 89.6174 69.1386C89.5655 69.3734 89.5394 69.5587 89.5394 69.6947C89.5394 69.7996 89.5524 69.8954 89.5785 69.9819C89.624 70.1302 89.7993 70.3093 90.1045 70.5194C90.4163 70.7294 90.6826 70.8499 90.9035 70.8808C90.9358 70.8931 90.9683 70.9054 91.0008 70.9178C91.0658 70.9364 91.1242 70.9456 91.1762 70.9456H92.7933C93.157 70.9456 93.4623 70.89 93.7092 70.7788C94.0533 70.6305 94.3878 70.3834 94.7126 70.0375C95.0699 69.6544 95.2614 69.29 95.2874 68.9441C95.4562 68.839 95.6673 68.8205 95.9207 68.8884Z" fill="#390E00"/>
<path d="M32.6671 102.532C32.734 103.009 32.7673 103.549 32.7673 104.153C32.7673 104.836 32.5752 106.925 32.1911 110.419C32.0408 111.738 31.2809 113.477 29.9115 115.638C28.6087 117.703 27.5065 119.006 26.6047 119.546C25.1183 120.435 23.682 121.055 22.2958 121.404C21.778 121.531 20.2165 121.595 17.6111 121.595H4.2838C3.98318 121.595 3.61576 121.468 3.18153 121.214C3.18153 121.15 3.15648 120.999 3.10638 120.761C3.05627 120.523 3.03122 120.348 3.03122 120.237C4.10008 119.856 4.75142 119.593 4.98524 119.45C5.72008 118.99 6.32132 118.227 6.78894 117.163C7.00606 116.686 7.14801 115.463 7.21482 113.493C7.23152 113.192 7.30667 112.373 7.44028 111.039C7.55718 109.816 7.61564 108.887 7.61564 108.251C7.61564 104.677 7.6407 102.715 7.69079 102.366C7.7409 102.111 7.93296 101.651 8.26698 100.984C8.11667 100.809 7.92461 100.459 7.69079 99.9352C7.59059 99.4586 7.54049 98.7755 7.54049 97.8859V93.9305C7.54049 93.8511 7.51544 93.438 7.46533 92.6914C7.41522 92.0083 7.43192 91.1347 7.51544 90.0703C7.66575 88.4977 7.7409 87.6239 7.7409 87.4492C7.72419 87.4016 7.6741 87.3062 7.59059 87.1633C7.37348 86.1148 7.38183 84.7567 7.61564 83.0886C7.69914 82.5962 7.56553 81.0156 7.21482 78.3469C7.19811 77.4891 7.02275 76.3692 6.68874 74.9872C6.25451 74.2881 5.66998 73.8355 4.93513 73.6289C4.35059 73.47 3.75772 73.3033 3.15648 73.1286C3.15648 71.6194 3.13144 71.3017 3.08133 72.1753C3.09803 71.7624 3.29844 71.5478 3.68256 71.532C4.50091 71.4685 5.82028 71.3334 7.6407 71.1269C9.32749 70.9364 10.1959 70.8411 10.246 70.8411H13.9036C14.5716 70.8411 15.273 70.7695 16.0078 70.6266C16.7595 70.4677 17.4024 70.3883 17.9368 70.3883C18.5381 70.3883 19.2729 70.4597 20.1414 70.6028C20.2582 70.6186 21.4523 70.9761 23.7238 71.675C24.9261 72.0403 26.0703 73.065 27.1558 74.7489C28.1912 76.3533 28.7924 77.9022 28.9595 79.3953C29.0597 80.2531 29.1098 81.0792 29.1098 81.8734C29.1098 85.9401 27.7236 89.5381 24.9512 92.6675C24.9846 92.6994 25.0514 92.7628 25.1516 92.8583C25.7696 92.8264 26.5712 93.1362 27.5565 93.7875C28.5587 94.4228 29.4355 95.2172 30.1869 96.1703C31.473 97.8064 32.2997 99.9272 32.6671 102.532ZM27.3562 81.6352C27.2058 81.6192 26.5379 81.6114 25.3521 81.6114C24.517 81.6272 23.8908 81.4683 23.4732 81.1347C23.0725 80.8011 22.7217 80.1578 22.421 79.2047C22.1705 78.4422 21.9283 77.6717 21.6946 76.8933C21.4774 76.4009 21.0265 75.845 20.3417 75.2253C19.6571 74.59 19.0725 74.2325 18.5882 74.1531C16.367 73.756 15.0476 73.8195 14.63 74.3438L14.129 83.2555C14.129 83.3825 14.1791 83.5414 14.2793 83.732C14.3795 83.9067 14.4296 84.01 14.4296 84.0417C14.4296 84.1053 14.3294 85.13 14.129 87.1156C14.0121 88.3706 14.0455 89.983 14.2292 91.9528C14.9474 92.2545 15.3232 92.4055 15.3566 92.4055C17.9452 92.2466 19.6654 91.9845 20.5172 91.6191C22.5045 90.7614 23.4983 88.2038 23.4983 83.9464C23.4983 83.4541 23.4816 82.9775 23.4481 82.5167C23.5316 82.358 23.6236 82.2388 23.7238 82.1594C24.6924 82.1117 25.9032 81.937 27.3562 81.6352ZM26.1036 106.083C26.0703 105.447 25.8615 104.59 25.4774 103.509C25.16 102.667 24.8344 101.818 24.5003 100.96C24.3166 100.388 24.016 99.665 23.5985 98.7914C22.0285 96.6786 20.0412 95.6222 17.6362 95.6222C17.2688 95.6222 16.7511 95.6381 16.0831 95.67C15.2981 95.7175 14.6467 95.8844 14.129 96.1703C14.0121 97.5523 13.8869 99.2124 13.7532 101.15C13.7365 102.453 13.7532 103.867 13.8034 105.392C13.8702 107.425 13.9036 108.481 13.9036 108.561C13.937 110.864 14.2125 113.644 14.7302 116.901C14.7804 117.187 15.106 117.655 15.7073 118.307C16.0413 118.259 16.4087 118.235 16.8095 118.235C17.0934 118.235 17.5025 118.251 18.037 118.283C18.5882 118.331 18.989 118.354 19.2395 118.354C20.6925 118.354 21.8783 117.854 22.7968 116.853C23.4315 116.218 24.1329 115.368 24.9012 114.304C25.8364 111.635 26.2373 108.894 26.1036 106.083ZM65.0837 80.0386C65.0837 80.6264 64.9751 80.9362 64.7581 80.968C64.4407 80.9997 63.9731 81.095 63.3552 81.2539C63.088 81.238 62.7205 81.3253 62.2528 81.5161C61.685 82.0084 61.351 82.7153 61.2508 83.6367C61.2008 83.7161 61.1422 83.8433 61.0755 84.018C60.992 84.9075 60.9669 85.4636 61.0003 85.6859C61.2341 87.1314 61.351 87.8622 61.351 87.8781V89.7128C61.351 89.7764 61.3176 89.9036 61.2508 90.0941C61.2008 90.2689 61.1673 90.388 61.1506 90.4516C61.1339 90.5628 61.1422 90.7772 61.1757 91.095C61.3259 92.3658 61.4011 94.0258 61.4011 96.075C61.4011 96.0909 61.3677 96.1464 61.301 96.2417C61.2508 96.3212 61.2257 96.3847 61.2257 96.4325C61.2257 97.9733 61.2425 98.5849 61.2759 98.2672C61.209 99.1091 61.0504 100.356 60.7999 102.008C60.6997 102.501 60.4074 103.255 59.9231 104.272C59.4555 105.273 59.0546 105.987 58.7206 106.416C58.3198 106.909 57.5849 107.52 56.516 108.251C55.6644 108.839 54.8043 109.419 53.9358 109.991C53.6852 109.816 52.9671 109.879 51.7814 110.181C51.5475 110.308 51.1801 110.483 50.679 110.706C50.5957 110.737 50.462 110.713 50.2783 110.634C50.0946 110.554 49.9944 110.515 49.9777 110.515H48.1239C48.3576 110.515 47.9318 110.404 46.8462 110.181C46.4622 110.165 45.9109 110.102 45.1928 109.991C44.7585 109.768 44.0906 109.49 43.1887 109.157C42.9215 109.141 42.5206 109.101 41.9862 109.037C41.8025 108.99 41.4768 108.839 41.0093 108.585C38.003 106.933 36.4332 104.105 36.2996 100.102L36.0741 92.5722C35.9572 90.4913 35.7234 87.3936 35.3726 83.2792C35.2725 82.3739 34.9133 81.7384 34.2955 81.3731C34.1117 81.2459 33.3184 81.0156 31.9155 80.682C31.8655 80.5867 31.8404 80.4994 31.8404 80.42C31.8404 80.1181 32.1243 80.0069 32.6922 80.0864C33.9948 80.2452 35.4895 80.3247 37.1763 80.3247H39.6063C39.6565 80.3247 39.8902 80.2928 40.3078 80.2292C40.7254 80.1658 41.0426 80.1339 41.2598 80.1339C42.0614 80.1817 43.2638 80.1499 44.8671 80.0386C45.0008 80.1975 45.0675 80.3405 45.0675 80.4675C45.0675 80.7217 44.5499 80.9283 43.5144 81.0872C43.4309 81.1506 43.2805 81.2539 43.0635 81.3969C42.9466 81.4445 42.7796 81.5319 42.5624 81.6589C42.2618 81.8814 42.0948 82.08 42.0614 82.2547C41.7607 83.7003 41.4017 85.265 40.9842 86.9489C41.0008 86.9011 41.0844 87.1633 41.2347 87.7352C41.2514 87.7352 41.1845 88.1481 41.0343 88.9742C41.101 89.2442 41.0593 89.8797 40.9091 90.8805C40.9424 90.6898 41.0343 91.2776 41.1845 92.6438C41.2014 92.8503 41.1596 93.5492 41.0593 94.7406C41.0761 94.82 41.1094 94.9233 41.1596 95.0503C41.1596 95.1298 41.101 95.7175 40.9842 96.8136C40.9508 97.1631 41.0259 97.9177 41.2096 99.0773C41.3098 99.2044 41.4184 99.395 41.5353 99.6492C41.5519 99.6969 41.6021 100.237 41.6856 101.269C41.669 101.46 41.6605 101.746 41.6605 102.127C41.7441 102.302 41.8527 102.548 41.9862 102.866C42.0364 102.993 42.0279 103.192 41.9612 103.462C42.1616 103.716 42.4455 104.097 42.8129 104.606C43.0133 104.955 43.4142 105.431 44.0155 106.035C44.4664 106.369 44.9173 106.702 45.3682 107.036C46.0028 107.465 46.5706 107.719 47.0717 107.798C47.5226 107.846 48.0486 107.87 48.6499 107.87H51.9818C52.9003 107.87 53.8689 107.362 54.8878 106.345C55.8565 105.392 56.4827 104.399 56.7666 103.366C56.9002 102.493 57.0589 101.428 57.2426 100.173C57.3762 99.3474 57.3762 98.2275 57.2426 96.8136L57.2927 85.543C57.1757 84.6058 56.9169 83.5175 56.516 82.2786C56.3491 81.7702 55.7145 81.3731 54.6122 81.0872C54.4118 81.0394 54.0611 80.968 53.56 80.8727C53.4598 80.7138 53.4098 80.5073 53.4098 80.2531C53.3262 80.2531 53.5851 80.2214 54.1863 80.1578C55.4389 80.0148 56.633 80.0625 57.7687 80.3008C57.9691 80.2531 58.2446 80.2214 58.5953 80.2055C59.2299 80.3167 60.3323 80.2928 61.9021 80.1339C61.9689 80.1181 62.0942 80.1339 62.2779 80.1816C62.4616 80.2134 62.5869 80.2292 62.6537 80.2292C62.8374 80.2292 63.6475 80.1658 65.0837 80.0386ZM96.398 109.3C96.2644 109.474 96.0472 109.689 95.7467 109.943C94.9951 110.34 94.4524 110.539 94.1183 110.539H91.1121C90.0934 110.539 89.3335 110.499 88.8324 110.419C88.465 110.292 87.9055 110.11 87.154 109.871C86.5194 109.681 85.4088 108.728 83.8222 107.012C83.6886 106.869 83.0372 105.844 81.8682 103.938C80.816 102.207 79.9894 100.753 79.3881 99.5778C79.2378 99.133 78.9705 98.5611 78.5865 97.8622C78.4194 97.6874 78.0019 97.6239 77.3339 97.6714C76.9163 97.7191 76.4905 97.7667 76.0562 97.8145C75.5051 97.7827 74.6867 97.7747 73.6011 97.7906C73.4843 97.7906 73.3423 97.8859 73.1753 98.0766C73.2421 98.6961 73.3257 100.642 73.4258 103.914C73.4425 104.55 73.5762 105.384 73.8266 106.416C73.8266 106.702 73.9101 107.123 74.0771 107.679C74.4279 108.251 74.9957 108.664 75.7806 108.918C76.4152 109.093 77.05 109.268 77.6846 109.443C77.7013 109.617 77.6846 109.824 77.6345 110.062C77.1502 110.253 76.6575 110.348 76.1564 110.348H73.526C73.4927 110.348 73.2672 110.308 72.8497 110.229C72.4321 110.149 72.1315 110.11 71.9478 110.11C71.4301 110.11 70.62 110.149 69.5178 110.229C68.4323 110.308 67.8894 110.348 67.8894 110.348H65.3592C65.1087 110.348 64.8081 110.277 64.4574 110.134C64.4574 110.086 64.4323 109.991 64.3823 109.848C64.3488 109.705 64.3321 109.601 64.3321 109.538C65.2006 109.316 65.735 109.157 65.9354 109.061C66.5533 108.791 67.0544 108.331 67.4385 107.679C67.6055 107.393 67.7224 106.663 67.7892 105.487C67.7892 105.296 67.8477 104.804 67.9647 104.01C68.0649 103.279 68.1149 102.723 68.1149 102.342C68.1149 100.181 68.1316 99.0138 68.1651 98.8391C68.2151 98.6644 68.3738 98.3784 68.6411 97.9812C68.524 97.87 68.3738 97.6556 68.1901 97.3378C68.1066 97.052 68.0649 96.6469 68.0649 96.1227V93.7161C68.0649 93.7001 68.0398 93.4539 67.9896 92.9773C68.0064 93.168 68.0815 92.1195 68.2151 89.832C68.1984 89.8003 68.1566 89.7447 68.0898 89.6653C67.9061 89.0458 67.9145 88.2276 68.1149 87.2109C68.1817 86.925 68.0731 85.9719 67.7892 84.3516C67.7726 83.8433 67.6222 83.1761 67.3383 82.35C66.9709 81.9211 66.4949 81.6511 65.9103 81.5398C65.4094 81.4286 64.9167 81.3253 64.4323 81.23C64.4323 80.3247 64.4074 80.1339 64.3572 80.6583C64.3905 80.4041 64.5576 80.2689 64.8583 80.2531C65.5429 80.2214 66.6369 80.1499 68.14 80.0386C69.5262 79.9116 70.2359 79.8481 70.2693 79.8481H73.501C74.1022 79.8481 74.7202 79.8003 75.3548 79.705C75.9894 79.6097 76.5322 79.5622 76.9832 79.5622C77.5509 79.5622 78.2608 79.6097 79.1125 79.705C79.6469 79.8163 80.4319 79.9751 81.4674 80.1816C81.5676 80.2452 81.7346 80.3167 81.9683 80.3961C83.5716 80.6344 84.9912 81.3572 86.2271 82.5644C86.9119 83.2475 87.5214 84.4548 88.0559 86.1864C88.0725 86.4405 88.0976 86.8138 88.131 87.3062C88.1645 87.7034 88.131 88.2991 88.0308 89.0933C87.8137 90.7772 87.3962 92.0481 86.7782 92.9058C86.2104 93.7001 85.1165 94.8122 83.4965 96.2417C83.4798 96.5753 83.5465 96.8692 83.6969 97.1234C84.7491 99.0456 85.8013 100.968 86.8535 102.89C88.106 104.971 89.6258 106.742 91.4128 108.204C91.563 108.331 92.181 108.537 93.2666 108.823C93.9179 108.982 94.469 109.022 94.92 108.942C95.5881 108.815 96.0639 108.767 96.3479 108.799C96.3813 108.91 96.398 109.077 96.398 109.3ZM82.6698 88.9028C82.6698 88.3786 82.628 88.0291 82.5445 87.8542C81.7095 85.7416 80.9997 84.3913 80.4152 83.8036C79.6136 82.9775 78.72 82.4533 77.7346 82.2308C77.0834 82.0878 76.0312 82.0481 74.5782 82.1117C74.4279 82.1276 74.194 82.215 73.8768 82.3739C73.6095 85.1061 73.4425 87.3142 73.3757 88.998C73.4592 89.1251 73.5427 89.3078 73.6262 89.5461C73.6262 89.7685 73.5511 90.6739 73.4008 92.2625C73.3006 93.3109 73.3257 94.3594 73.4759 95.4078C73.526 95.4555 73.5929 95.5269 73.6764 95.6222H76.1564C76.4403 95.6858 76.741 95.7175 77.0583 95.7175C78.0436 95.7175 78.9872 95.4237 79.889 94.8359C80.8077 94.2323 81.3672 93.7398 81.5676 93.3586C82.3024 92.056 82.6698 90.5708 82.6698 88.9028ZM119.145 80.2531C119.178 80.3802 119.195 80.5231 119.195 80.682C119.195 81.0315 119.111 81.6431 118.944 82.5167C118.794 83.3905 118.719 84.0417 118.719 84.4708C118.719 84.6931 118.727 84.8997 118.744 85.0903C118.66 85.3761 118.585 85.7733 118.518 86.2816C118.652 86.917 118.727 87.1633 118.744 87.0203C118.694 87.1156 118.619 87.2347 118.518 87.3778C118.518 87.5366 118.569 87.9894 118.669 88.7359C118.251 89.1172 117.875 89.3078 117.541 89.3078C117.408 89.3078 117.257 89.2125 117.091 89.0219C117.241 88.0847 117.291 87.5048 117.241 87.2825C117.191 87.0283 117.091 86.6708 116.94 86.2102C116.606 85.5112 115.988 84.7408 115.086 83.8989C114.736 83.5811 113.917 83.1602 112.631 82.6359C112.481 82.5724 111.938 82.4612 111.003 82.3023C110.402 82.207 109.517 82.1594 108.348 82.1594C105.041 82.1594 102.444 82.9933 100.557 84.6614C100.323 84.7725 99.9888 85.0188 99.5545 85.4C98.1015 87.3062 97.2749 89.1728 97.0743 90.9997C96.9908 91.7622 96.9491 93.017 96.9491 94.7645V96.3372C96.9491 96.2417 97.0661 96.6628 97.2998 97.6C97.3166 98.0925 97.4001 98.7597 97.5504 99.6016C97.6505 99.681 97.8176 99.9192 98.0514 100.316C98.0681 100.523 98.1265 100.793 98.2267 101.127C98.4606 101.428 98.8196 101.881 99.304 102.485C99.3708 102.675 99.4877 102.945 99.6547 103.295C100.406 104.598 101.567 105.678 103.137 106.536C103.838 106.917 104.531 107.187 105.216 107.346C108.506 108.076 110.619 108.442 111.554 108.442C111.988 108.442 112.414 108.394 112.832 108.299C113.032 108.267 113.324 108.172 113.709 108.013C113.792 107.393 113.834 107.084 113.834 107.084C113.834 106.861 113.725 106.71 113.508 106.631C113.207 106.536 113.007 106.408 112.907 106.25C112.74 105.995 112.732 105.503 112.882 104.772C112.882 104.772 112.882 103.509 112.882 100.984C112.782 100.062 112.64 99.3394 112.456 98.8153C112.356 98.7358 112.222 98.5849 112.055 98.3625C111.771 97.5206 111.162 96.9805 110.226 96.7422C109.842 96.6469 109.024 96.5833 107.771 96.5516C107.721 96.5198 107.646 96.4642 107.546 96.3847V95.7653C107.963 95.6381 108.648 95.5747 109.6 95.5747C109.667 95.5747 110.251 95.6222 111.354 95.7175C112.456 95.797 113.041 95.8367 113.107 95.8367C113.191 95.8367 113.333 95.805 113.533 95.7414C113.734 95.662 113.884 95.6144 113.984 95.5984C115.003 95.5189 115.571 95.4792 115.688 95.4792C118.042 95.4792 119.044 95.4872 118.694 95.5031V96.5278C118.694 96.5753 118.619 96.7422 118.468 97.0281C118.285 97.3617 118.176 97.592 118.143 97.7191C117.859 98.8153 117.692 99.9272 117.642 101.055C117.575 102.485 117.541 103.47 117.541 104.01C117.541 105.106 117.667 106.615 117.917 108.537C117.149 108.918 115.137 109.427 111.88 110.062C111.613 110.046 111.203 110.062 110.652 110.11C109.901 110.269 109.375 110.348 109.074 110.348C108.991 110.348 108.865 110.324 108.698 110.277C108.531 110.229 108.414 110.205 108.348 110.205C106.627 110.126 105.199 109.991 104.064 109.8C103.629 109.641 102.987 109.443 102.135 109.204C100.448 108.887 98.5859 107.87 96.5483 106.154C94.4273 104.359 93.1247 102.636 92.6403 100.984C92.4899 100.618 92.298 100.07 92.0641 99.3395C91.9306 99.1011 91.7551 98.7438 91.5381 98.2672C91.3376 97.4888 91.2374 96.8295 91.2374 96.2895C91.2374 96.3372 91.2791 96.0433 91.3626 95.4078C91.4462 94.8677 91.4546 94.4864 91.3877 94.2641C91.3209 94.0099 91.2875 93.7398 91.2875 93.4539C91.2875 92.9138 91.4295 92.1433 91.7134 91.1425C92.0474 89.9036 92.2478 89.0695 92.3146 88.6406C93.9513 85.8289 94.945 84.4231 95.2958 84.4231C95.3626 84.4231 95.4126 84.4548 95.4461 84.5183C95.4795 84.5661 95.5379 84.5898 95.6214 84.5898C95.9053 84.5898 96.1308 84.5263 96.2978 84.3992C96.3646 84.2086 96.4982 83.9464 96.6987 83.6128C98.2518 81.9767 99.1954 81.1586 99.5295 81.1586C99.613 81.1586 99.6714 81.1745 99.7047 81.2062C99.7382 81.238 99.7883 81.2539 99.8551 81.2539C99.9219 81.2539 100.097 81.1506 100.381 80.9441C100.682 80.7217 100.874 80.6106 100.957 80.6106C101.024 80.6106 101.116 80.6423 101.233 80.7058C101.367 80.7694 101.467 80.8011 101.534 80.8011C101.617 80.8011 102.36 80.6344 103.763 80.3008C105.166 79.9672 105.909 79.8003 105.993 79.8003H112.431C112.514 79.8003 113.283 79.8798 114.736 80.0386C116.189 80.1817 116.957 80.2531 117.04 80.2531C117.074 80.2531 117.366 80.2531 117.917 80.2531C118.485 80.2531 118.894 80.2531 119.145 80.2531ZM145.675 102.199C145.625 103.025 145.515 104.192 145.348 105.702C145.149 106.115 144.898 106.694 144.597 107.441C144.53 107.759 144.405 108.204 144.221 108.775C144.154 108.95 143.937 109.244 143.57 109.657C143.136 110.165 142.784 110.419 142.518 110.419H136.13C136.013 110.419 135.261 110.396 133.875 110.348C132.489 110.3 131.737 110.277 131.62 110.277H127.762C127.662 110.277 127.144 110.229 126.209 110.134C125.291 110.054 124.773 110.014 124.656 110.014H120.873L120.548 109.681C120.731 109.458 121.458 108.982 122.727 108.251C123.596 107.727 124.03 107.092 124.03 106.345V98.8153C124.03 97.592 124.23 95.9478 124.631 93.8828C124.414 93.2474 124.372 92.4531 124.506 91.5C124.205 91.2617 124.055 90.9281 124.055 90.4992C124.055 90.4675 124.222 89.8161 124.556 88.5453C124.573 88.4341 124.489 88.2117 124.305 87.8781C124.072 87.4811 123.946 87.2745 123.93 87.2586C123.813 86.925 123.763 86.4008 123.779 85.6859C123.779 84.7011 123.779 84.1609 123.779 84.0656C123.729 83.5255 123.612 83.0886 123.428 82.755C123.178 82.2944 122.769 81.9291 122.201 81.6589C121.7 81.4525 121.199 81.238 120.698 81.0156C120.932 80.4914 121.182 80.2134 121.45 80.1816C121.967 80.2452 122.71 80.2611 123.679 80.2292C124.748 79.9911 125.266 79.8719 125.232 79.8719H129.666C129.733 79.8719 130.234 79.9275 131.169 80.0386C132.121 80.1499 132.839 80.2134 133.324 80.2292C133.524 80.2292 135.194 80.1261 138.334 79.9195C139.052 79.8719 140.931 79.9195 143.97 80.0625C144.238 80.2372 144.372 80.4517 144.372 80.7058C144.372 80.8489 144.314 81.0553 144.197 81.3253C144.095 81.5955 144.046 81.794 144.046 81.9211C144.028 82.4453 143.853 84.1769 143.52 87.1156C143.47 87.2109 143.228 87.3619 142.793 87.5683C142.693 87.4095 142.384 86.5597 141.866 85.0188C141.532 84.018 140.915 83.47 140.013 83.3747C139.645 83.2952 139.269 83.2158 138.885 83.1364C138.367 83.0251 137.967 83.0092 137.683 83.0886C136.948 83.2952 135.353 83.3189 132.898 83.1602C131.545 83.0648 130.526 83.0886 129.842 83.2316C129.641 83.2792 129.508 83.462 129.441 83.7797C130.042 85.6383 130.067 87.2825 129.516 88.7122C129.549 88.6167 129.566 89.0139 129.566 89.9036C129.566 90.1259 129.524 90.5866 129.441 91.2855C129.357 91.8575 129.341 92.3181 129.391 92.6675C129.407 92.8264 129.566 93.033 129.867 93.2872H139.311C139.612 93.1917 139.904 93.0964 140.188 93.0011C140.656 92.8423 140.981 92.5961 141.165 92.2625C141.332 91.8495 141.641 91.2775 142.092 90.5469C142.626 90.5469 142.968 90.7216 143.119 91.0711C143.052 91.9766 142.985 93.1362 142.918 94.55C142.901 95.4872 142.784 96.8614 142.568 98.6722C142.501 98.9423 142.167 99.0297 141.566 98.9344C141.349 98.5531 140.965 98.0528 140.413 97.4333C139.395 96.7025 138.468 96.3372 137.633 96.3372H134.176C133.959 96.3372 133.533 96.2974 132.898 96.218C132.263 96.1386 131.787 96.0989 131.47 96.0989C130.585 96.0989 130.025 96.345 129.792 96.8375C129.524 97.3935 129.391 97.8224 129.391 98.1242C129.391 98.4102 129.449 98.9503 129.566 99.7445C129.683 100.539 129.733 101.15 129.716 101.579C129.7 101.802 129.616 102.223 129.466 102.842C129.332 103.446 129.265 103.922 129.265 104.272C129.265 104.542 129.299 104.788 129.366 105.011C129.483 105.392 129.934 105.852 130.719 106.393C131.52 106.933 132.205 107.242 132.773 107.322C132.856 107.354 132.94 107.385 133.023 107.417C133.19 107.465 133.341 107.489 133.474 107.489H137.633C138.568 107.489 139.353 107.346 139.988 107.06C140.873 106.679 141.733 106.043 142.568 105.154C143.487 104.169 143.979 103.231 144.046 102.342C144.48 102.072 145.023 102.024 145.675 102.199ZM178.617 109.3C178.483 109.474 178.266 109.689 177.966 109.943C177.215 110.34 176.672 110.539 176.337 110.539H173.331C172.312 110.539 171.552 110.499 171.051 110.419C170.684 110.292 170.124 110.11 169.373 109.871C168.738 109.681 167.628 108.728 166.041 107.012C165.907 106.869 165.256 105.844 164.087 103.938C163.034 102.207 162.208 100.753 161.606 99.5778C161.457 99.133 161.19 98.5611 160.805 97.8622C160.639 97.6874 160.221 97.6239 159.553 97.6714C159.135 97.7191 158.709 97.7667 158.276 97.8145C157.724 97.7827 156.906 97.7747 155.82 97.7906C155.703 97.7906 155.561 97.8859 155.394 98.0766C155.461 98.6961 155.545 100.642 155.645 103.914C155.662 104.55 155.795 105.384 156.045 106.416C156.045 106.702 156.129 107.123 156.296 107.679C156.647 108.251 157.214 108.664 157.999 108.918C158.635 109.093 159.269 109.268 159.903 109.443C159.92 109.617 159.903 109.824 159.853 110.062C159.369 110.253 158.876 110.348 158.375 110.348H155.745C155.712 110.348 155.487 110.308 155.069 110.229C154.652 110.149 154.351 110.11 154.167 110.11C153.648 110.11 152.839 110.149 151.737 110.229C150.651 110.308 150.108 110.348 150.108 110.348H147.579C147.328 110.348 147.027 110.277 146.676 110.134C146.676 110.086 146.651 109.991 146.601 109.848C146.568 109.705 146.551 109.601 146.551 109.538C147.419 109.316 147.953 109.157 148.154 109.061C148.773 108.791 149.273 108.331 149.658 107.679C149.825 107.393 149.941 106.663 150.008 105.487C150.008 105.296 150.067 104.804 150.184 104.01C150.283 103.279 150.333 102.723 150.333 102.342C150.333 100.181 150.35 99.0138 150.383 98.8391C150.435 98.6644 150.593 98.3784 150.859 97.9812C150.742 97.87 150.593 97.6556 150.409 97.3378C150.325 97.052 150.283 96.6469 150.283 96.1227V93.7161C150.283 93.7001 150.259 93.4539 150.208 92.9773C150.225 93.168 150.301 92.1195 150.435 89.832C150.417 89.8003 150.376 89.7447 150.309 89.6653C150.125 89.0458 150.134 88.2276 150.333 87.2109C150.4 86.925 150.292 85.9719 150.008 84.3516C149.991 83.8433 149.842 83.1761 149.557 82.35C149.19 81.9211 148.714 81.6511 148.129 81.5398C147.628 81.4286 147.135 81.3253 146.651 81.23C146.651 80.3247 146.627 80.1339 146.577 80.6583C146.609 80.4041 146.776 80.2689 147.077 80.2531C147.762 80.2214 148.855 80.1499 150.359 80.0386C151.746 79.9116 152.455 79.8481 152.488 79.8481H155.72C156.322 79.8481 156.939 79.8003 157.573 79.705C158.209 79.6097 158.752 79.5622 159.202 79.5622C159.769 79.5622 160.479 79.6097 161.331 79.705C161.866 79.8163 162.651 79.9751 163.686 80.1816C163.787 80.2452 163.953 80.3167 164.187 80.3961C165.791 80.6344 167.21 81.3572 168.446 82.5644C169.131 83.2475 169.741 84.4548 170.275 86.1864C170.291 86.4405 170.317 86.8138 170.35 87.3062C170.384 87.7034 170.35 88.2991 170.25 89.0933C170.033 90.7772 169.616 92.0481 168.997 92.9058C168.43 93.7001 167.335 94.8122 165.715 96.2417C165.699 96.5753 165.765 96.8692 165.916 97.1234C166.968 99.0456 168.019 100.968 169.073 102.89C170.325 104.971 171.845 106.742 173.632 108.204C173.781 108.331 174.4 108.537 175.486 108.823C176.137 108.982 176.689 109.022 177.139 108.942C177.807 108.815 178.283 108.767 178.567 108.799C178.6 108.91 178.617 109.077 178.617 109.3ZM164.888 88.9028C164.888 88.3786 164.847 88.0291 164.763 87.8542C163.928 85.7416 163.218 84.3913 162.634 83.8036C161.833 82.9775 160.939 82.4533 159.953 82.2308C159.302 82.0878 158.25 82.0481 156.796 82.1117C156.647 82.1276 156.413 82.215 156.095 82.3739C155.829 85.1061 155.662 87.3142 155.595 88.998C155.678 89.1251 155.762 89.3078 155.846 89.5461C155.846 89.7685 155.77 90.6739 155.619 92.2625C155.519 93.3109 155.545 94.3594 155.695 95.4078C155.745 95.4555 155.812 95.5269 155.896 95.6222H158.375C158.659 95.6858 158.96 95.7175 159.278 95.7175C160.262 95.7175 161.206 95.4237 162.108 94.8359C163.027 94.2323 163.586 93.7398 163.787 93.3586C164.521 92.056 164.888 90.5708 164.888 88.9028ZM196.93 102.342C196.93 102.691 196.729 103.382 196.329 104.415C195.944 105.431 195.66 106.059 195.476 106.297C194.691 107.203 193.856 107.997 192.971 108.68C192.486 109.045 191.852 109.347 191.067 109.586C189.046 110.189 187.135 110.491 185.331 110.491C185.364 110.491 185.047 110.475 184.379 110.443C183.777 110.396 183.336 110.38 183.05 110.396C183.102 110.539 183.126 110.261 183.126 109.562C182.708 109.181 182.157 108.99 181.473 108.99C181.222 108.99 180.988 109.093 180.772 109.3C180.804 109.331 181.055 109.443 181.523 109.633C181.423 109.919 181.222 110.062 180.921 110.062C180.605 110.062 179.895 109.935 178.792 109.681C177.356 109.347 176.312 108.966 175.661 108.537C175.51 108.442 175.343 107.806 175.159 106.631C175.025 105.694 174.96 104.542 174.96 103.176C174.96 101.937 175.025 100.928 175.159 100.15C175.244 100.166 175.51 100.134 175.962 100.054C176.094 100.213 176.154 100.515 176.137 100.96C176.12 101.532 176.111 101.81 176.111 101.794C176.196 102.175 176.321 102.739 176.488 103.486C176.505 103.597 176.73 103.946 177.163 104.534C177.414 104.915 177.866 105.439 178.517 106.107C179.067 106.52 179.811 106.837 180.746 107.06C181.248 107.203 181.748 107.354 182.25 107.512C182.884 107.687 183.41 107.775 183.827 107.775C183.994 107.87 184.119 107.918 184.203 107.918C184.27 107.918 184.37 107.902 184.504 107.87C184.638 107.838 184.738 107.822 184.805 107.822C184.888 107.822 185.205 107.886 185.757 108.013C186.308 108.124 186.616 108.18 186.683 108.18C186.75 108.18 186.908 108.092 187.159 107.918C187.427 107.727 187.627 107.616 187.761 107.584C188.228 107.489 188.914 107.354 189.814 107.179C190.283 107.084 190.658 106.655 190.942 105.892C191.058 105.686 191.227 105.384 191.443 104.987C191.443 104.876 191.46 104.701 191.493 104.462C191.527 104.351 191.627 104.153 191.794 103.867C191.961 103.581 192.045 103.398 192.045 103.319C192.045 102.731 191.969 102.231 191.819 101.818C191.735 101.563 191.393 100.999 190.792 100.126C190.608 99.9986 190.342 99.8161 189.99 99.5778C188.537 98.4658 187.135 97.6953 185.781 97.2664C185.415 97.0599 184.88 96.7819 184.178 96.4325C183.343 96.0989 181.999 95.3839 180.145 94.2878C180.012 94.2403 179.82 94.1608 179.569 94.0497C179.067 93.6525 178.55 93.1361 178.015 92.5008C177.247 91.5794 176.83 91.087 176.763 91.0234C176.763 90.8011 176.747 90.4675 176.713 90.0227C176.613 89.8638 176.471 89.6017 176.287 89.2364C176.287 88.9028 176.263 88.442 176.213 87.8542C176.312 87.7272 176.362 87.6161 176.362 87.5208C176.178 87.1077 176.087 86.9091 176.087 86.925C176.087 86.9567 176.263 86.5834 176.613 85.805C176.663 85.4556 176.78 84.9791 176.964 84.3753C177.031 84.2325 177.472 83.7797 178.292 83.0172C178.675 83.1919 178.851 83.2792 178.818 83.2792C178.868 83.0728 178.967 82.8106 179.119 82.493C180.655 81.095 182.066 80.2372 183.351 79.9195C184.404 79.6653 185.815 79.5383 187.585 79.5383C187.669 79.5383 188.512 79.6256 190.115 79.8003C191.718 79.9751 192.562 80.0625 192.646 80.0625C192.713 80.0625 193.079 80.0228 193.748 79.9433C194.433 79.8481 194.817 79.8003 194.901 79.8003C195.368 79.8003 195.602 79.9911 195.602 80.3722L195.226 84.3039V86.3769C195.226 86.4087 195.21 86.6867 195.176 87.2109C195.143 87.7352 195.126 88.1164 195.126 88.3547C195.109 88.3547 195.05 88.3864 194.95 88.45C194.866 88.5136 194.784 88.5453 194.7 88.5453H194.124C194.074 88.037 193.966 87.3142 193.798 86.3769C193.28 84.5025 192.203 83.2872 190.567 82.7312C189.714 82.4453 188.22 82.3023 186.082 82.3023C185.681 82.3023 184.997 82.4612 184.028 82.7789C183.193 83.0489 182.399 83.74 181.648 84.8519C181.38 85.2491 181.248 85.678 181.248 86.1386C181.248 86.8853 181.506 87.7828 182.024 88.8312C182.241 89.0219 182.542 89.2839 182.925 89.6175C184.078 90.7136 185.79 91.7065 188.061 92.5961C191.653 93.994 194.148 95.5349 195.552 97.2188C196.069 97.8383 196.42 98.5611 196.604 99.3872C196.82 100.356 196.93 101.341 196.93 102.342Z" fill="#390E00"/>
</svg>
